<svg version="1.1" xmlns="http://www.w3.org/2000/svg" viewBox="0.1 92 612 608.5">

  <circle fill="#9A9B9C" cx="135.9" cy="222.7" r="109.7"/>

  <circle fill="#FFFFFF" cx="126.6" cy="212.2" r="109.7"/>

  <path fill="#9A9B9C" d="M234.5,312.6c-1.8-1.8-6.4-6.4-11.7-11.7c17.5-21,16.3-52.5-3.5-72.3c-8.8-8.8,0.6,0.6-13.4-13.4c-19.8-20.4-48.4-30.9-48.4-30.9l-57.8,60.1c0,0,9.9,26.8,28.6,45.5c16.3,16.3,8.8,9.3,14,14.6c20.4,19.8,51.9,21,73.5,3.5c5.8,5.8,10.5,10.5,11.7,11.7C232.2,324.8,238.6,317.2,234.5,312.6z"/>

  <path fill="#FFFFFF" d="M189.6,281.7c-2.9-2.9-30.9-30.9-30.9-30.9l6.4-6.4c0,0,26.8,26.8,30.9,30.9C200.7,279.3,194.3,286.3,189.6,281.7z"/>

  <path fill="#E4E4E4" d="M173.9,265.3l-7.6-7.6l6.4-6.4l7.6,7.6c0,0-2.9-1.2-5.3,1.8C172.7,262.4,173.9,265.3,173.9,265.3z"/>

  <path fill="#E4E4E4" d="M159.9,159.7c-10.5-10.5-47.8-7.6-65.3,3.5C63,183.1,64.2,219.8,70,232.1c1.2,2.3-36.2,16.3-22.2,56c-19.3-19.8-30.9-46.7-30.9-76.4c0-60.7,49-109.7,109.7-109.7c29.8,0,56.6,11.7,76.4,30.9C179.7,124.7,162.2,162.1,159.9,159.7z"/>

  <circle fill="#FFFFFF" cx="126.6" cy="212.2" r="62.4"/>

  <path fill="#FFFFFF" d="M48.4,291c-21.6-21-33.8-49.6-33.8-79.9c0-61.3,50.2-111.4,111.4-111.4c29.8,0,57.8,11.7,78.8,32.1l-2.3,2.3c-20.4-20.4-47.8-31.5-76.4-31.5c-59.5,0-108.5,48.4-108.5,107.9c0,29.8,11.7,57.2,33.3,78.2L48.4,291z"/>

  <circle fill="#E4E4E4" cx="126.6" cy="212.2" r="55.4"/>

  <circle fill="#FFFFFF" cx="126.6" cy="212.2" r="37.9"/>

  <path fill="#9A9B9C" d="M85.8,254.8c-23.3-23.3-23.3-60.7,0-83.4c23.3-23.3,60.7-23.3,83.4,0c6.4,11.1-8.2,46.1-25.1,63C128.9,249.6,105.6,258.3,85.8,254.8z"/>

  <path fill="#9A9B9C" d="M127.8,274.1L127.8,274.1c-16.3,0-31.5-6.4-43.2-18.1l2.3-2.3c11.1,11.1,25.7,16.9,41.4,16.9s30.3-5.8,41.4-16.9c22.8-22.8,22.8-59.5,0-82.3l2.3-2.3c23.9,23.9,23.9,62.4,0,86.3C159.3,267.6,144.1,274.1,127.8,274.1z"/>

  <path fill="#193642" d="M126.6,115.4c53.1,0,96.3,43.2,96.3,96.3s-43.2,96.3-96.3,96.3s-96.3-43.2-96.3-96.3C30.3,158.6,73.5,115.4,126.6,115.4 M126.6,103.7c-59.5,0-107.9,48.4-107.9,108.5c0,59.5,48.4,107.9,107.9,107.9s107.9-48.4,107.9-107.9C235.1,152.1,186.7,103.7,126.6,103.7L126.6,103.7z"/>

  <path fill="#9A9B9C" d="M98,135.8c-4.7,0-6.4-2.9-8.2-5.3c-5.3-9.9-11.7-13.4-27.4-13.4c0,0-26.8,27.4-34.4,40.8c7,5.3,16.3,8.8,27.4,8.8c14.6,0,27.4-6.4,33.3-15.2c1.8-2.9,5.8-7,8.8-7c1.8,0,7.6,0,12.8,0c22.8,0,86.3,1.8,99.8,2.9c7,0,7-3.5,7-10.5c0-7,0-9.3-7-9.3c-11.7,1.8-75.3,8.2-99.2,8.2C107.9,135.8,98.6,135.8,98,135.8z"/>

  <path fill="#FFFFFF" d="M98,130c-4.7,0-6.4-2.9-8.2-5.3c-5.3-9.9-18.7-16.9-34.4-16.9C35,107.2,18.7,119.5,18.7,134c0,14.6,16.3,26.8,36.8,26.8c14.6,0,27.4-6.4,33.3-15.2c1.8-2.9,5.8-7,8.8-7c1.8,0,7.6,0,12.8,0c22.8,0,86.3,6.4,100.3,7.6c7,0,12.3-5.3,12.3-12.3c0-7-5.3-12.3-12.3-12.3c-12.8,1.8-75.8,8.2-99.8,8.2C107.9,130,98.6,130,98,130z"/>

  <path fill="#E4E4E4" d="M55.4,162.1c-9.9,0-19.3-2.9-26.3-8.2l0.6-1.2c7,5.3,15.8,7.6,25.7,7.6c14,0,26.8-5.8,32.7-15.2c0.6-1.2,5.3-7,9.9-7c0.6,0,1.8,0,3.5,0c2.9,0,6.4,0,9.9,0c19.8,0,71.2,5.3,92.8,7c3.5,0.6,5.8,0.6,7.6,0.6c5.8,0,10.5-4.7,10.5-11.7h1.2c0,7.6-5.3,12.8-12.3,12.8c-1.8,0-4.7-0.6-7.6-0.6c-22.2-1.8-72.9-6.4-92.8-6.4c-3.5,0-7,0-9.9,0c-1.8,0-2.9,0-3.5,0c-2.9,0-6.4,3.5-8.2,6.4C82.8,155.6,70,162.1,55.4,162.1z"/>

  <path fill="#E4E4E4" d="M86.9,133.5c0,11.1-14.6,25.7-29.2,25.7S19.8,148.6,19.8,134c0-14.6,21-26.3,35.6-26.3S86.9,118.9,86.9,133.5z"/>

  <path fill="#E4E4E4" d="M78.2,129.4c0,11.1-9.9,8.2-23.9,8.2s-34.4,11.1-34.4-3.5c0-14.6,19.8-26.3,34.4-26.3S78.2,115.4,78.2,129.4z"/>

  <path fill="#E4E4E4" d="M215.9,134.6c0,3.5-2.3,6.4-5.8,7c-2.3,0.6-46.1-4.1-93.9-5.8c-21.6-0.6-18.7,0-21,0c-4.1,0-3.5-5.3-6.4-3.5c-1.8,1.2,0,2.9-1.2,6.4c-2.3,6.4-4.7,8.8-3.5,9.3c0,0,4.7-7,8.2-9.3c3.5-1.8,11.1-1.8,23.3-1.2c48.4,2.3,92.8,7,92.8,7c5.3,0,9.9-4.7,9.9-9.9H215.9z"/>

  <path fill="#9A9B9C" d="M483.6,228c0.6,0,1.2,0.6,2.3,0.6c17.5,0,22.2,22.2,39.7,22.2c7,0,16.9-0.6,16.9-0.6l4.1-0.6c0,0,58.3-3.5,62.4-3.5c4.1,0,3.5-4.1,0-4.1c-3.5,0-66.5-2.3-66.5-2.3c-1.8,0-2.9-1.2-2.9-2.9c0-1.8,1.2-2.9,2.9-2.9c0,0,63.6,0,66.5,0c4.1,0,4.1-4.1,0-4.1c-4.1,0-66.5-6.4-66.5-6.4c-1.8,0-2.9-1.2-2.9-2.9c0-1.8,1.2-2.9,2.9-2.9c0,0,63,1.2,66.5,1.2c3.5,0,3.5-4.1,0-4.1c-3.5,0-66.5-7.6-66.5-7.6c-1.8,0-2.9-1.2-2.9-2.9s1.2-2.9,2.9-2.9c0,0,62.4,3.5,66.5,3.5c3.5,0,2.9-3.5,0-4.1c-2.9,0-63.6-9.9-63.6-9.9h-2.3c0,0-9.9-0.6-16.9-0.6c-15.8,0-21.6,17.5-35,21c-4.1,0-9.3,0-18.7,0c-39.7,0-123.1-15.2-147-17.5c-11.7,0-21.6,9.3-21.6,21.6c0,11.7,9.3,21.6,21.6,21.6c23.3-1.8,105.6-9.9,147-9.9C476.6,228,480.7,228,483.6,228z"/>

  <path fill="#9A9B9C" d="M424.7,135.8c-7,0-18.7-4.1-21.6-8.2c-8.2-14.6-19.3-25.1-42-25.1c-30.3,0-54.8,18.1-54.8,39.7c0,22.2,24.5,39.7,54.8,39.7c21.6,0,40.8-9.3,49.6-22.8c2.9-4.1,8.2-9.9,13.4-9.9c2.3,0,11.7,0,19.3,0c33.8,0,121.3,2.9,141.8,4.7c9.9,0,18.1-8.2,18.1-18.1c0-9.9-8.2-18.1-18.1-18.1c-19.3,1.8-106.2,18.7-141.2,18.7C439.9,136.4,425.3,135.8,424.7,135.8z"/>

  <path fill="#FFFFFF" d="M414.2,125.3c-7,0-9.9-4.1-12.8-8.2C393.8,102.5,374,92,351.2,92c-30.3,0-54.8,18.1-54.8,39.7c0,22.2,24.5,39.7,54.8,39.7c21.6,0,40.8-9.3,49.6-22.8c2.3-3.5,8.2-9.9,12.8-9.9c2.3,0,11.7,0,19.3,0c33.8,0,128.9,9.9,149.4,11.7c9.9,0,18.1-8.2,18.1-18.1s-8.2-18.1-18.1-18.1c-19.8,1.8-113.8,11.7-149.4,11.7C429.4,125.9,415.4,125.3,414.2,125.3z"/>

  <path fill="#E4E4E4" d="M350,95c-38.5,0-51.9,24.5-51.9,36.2c0,22.8,42.6,19.3,51.3,19.3c12.8,0,26.8-2.3,33.3-9.3C388.6,133.5,400.8,95,350,95z"/>

  <path fill="#E4E4E4" d="M304,150.4c7.6,9.3,18.7,15.8,30.9,18.7c11.7,2.9,24.5,2.3,36.2-0.6c11.7-3.5,22.8-9.9,29.2-20.4c1.8-2.3,4.1-4.7,6.4-7c1.2-1.2,2.9-1.8,4.1-2.3c1.8-0.6,3.5-0.6,4.7-0.6h18.7c25.1,0.6,50.2,2.3,74.7,4.7l74.1,7l0,0c4.7,0,8.8-1.8,11.7-5.3s4.7-7.6,4.7-12.3h1.8c0,4.7-1.8,9.9-5.3,13.4c-3.5,3.5-8.2,5.8-12.8,5.8l0,0l0,0l-74.1-7c-24.5-1.8-49.6-4.1-74.1-4.7H416c-6.4-0.6-10.5,4.7-14.6,8.8c-7,10.5-18.7,17.5-30.3,21c-12.3,3.5-25.1,3.5-37.3,0.6c-12.3-2.9-23.9-9.3-30.9-19.8H304z"/>

  <path fill="#FFFFFF" d="M474.9,222.1c0.6,0,1.8,0.6,2.3,0.6c17.5,0,22.2,22.2,39.7,22.2c7,0,16.9-0.6,16.9-0.6l4.1-0.6c0,0,58.3-6.4,62.4-7c4.1,0,3.5-4.1,0-4.1s-66.5,0.6-66.5,0.6c-1.8,0-2.9-1.2-2.9-2.9c0-1.8,1.2-2.9,2.9-2.9c0,0,63.6-2.9,66.5-3.5c4.1,0,4.1-4.1,0-4.1s-66.5-2.9-66.5-2.9c-1.8,0-2.9-1.2-2.9-2.9c0-1.8,1.2-2.9,2.9-2.9c0,0,63-1.8,66.5-1.8s3.5-4.1,0-4.1s-66.5-4.7-66.5-4.7c-1.8,0-2.9-1.2-2.9-2.9s1.2-2.9,2.9-2.9c0,0,62.4,0.6,66.5,0.6c3.5,0,2.9-3.5,0-4.1c-2.9,0-63.6-7-63.6-7h-2.3c0,0-9.9-0.6-16.9-0.6c-15.8,0-21.6,17.5-35,21c-4.1,0-9.3,0-18.7,0c-39.7,0-123.1-11.7-147-14c-11.7,0-21.6,9.3-21.6,21.6c0,12.3,9.3,21.6,21.6,21.6c23.3-1.8,105.6-13.4,147-13.4C467.9,222.1,472,222.1,474.9,222.1z"/>

  <path fill="#E4E4E4" d="M531.5,198.8h-1.8c0-1.8,1.8-3.5,3.5-3.5c2.3,0,62.4,0.6,65.9,0.6c0.6,0,1.2,0,1.8-0.6v-0.6h1.8c0,0.6,0,1.2-0.6,1.8c-0.6,0.6-1.2,1.2-2.9,1.2c-3.5,0-65.3-0.6-65.9-0.6C532.1,197.1,531.5,198.2,531.5,198.8z"/>

  <path fill="#E4E4E4" d="M531.5,214.6h-1.8c0-1.8,1.8-3.5,3.5-3.5c0,0,63-1.8,66.5-1.8c1.2,0,1.8-0.6,1.8-1.2h1.8c0,1.2-1.2,2.9-3.5,2.9c-3.5,0-66.5,1.8-66.5,1.8C532.1,212.8,531.5,213.4,531.5,214.6z"/>

  <path fill="none" stroke="#E4E4E4" stroke-width="0.3059" stroke-miterlimit="10" d="M533.8,217.5"/>

  <path fill="#E4E4E4" d="M530.9,230.3h-1.8c0-1.8,1.8-3.5,3.5-3.5c0.6,0,63.6-3.5,66.5-3.5c1.2,0,2.3-0.6,2.3-1.2h1.8c0,1.2-1.2,2.9-4.1,2.9s-65.9,3.5-66.5,3.5C531.5,228.6,530.9,229.7,530.9,230.3z"/>

  <path fill="#E4E4E4" d="M516.9,244.9c-9.3,0-15.2-5.8-20.4-11.1c-5.8-5.3-11.1-10.5-19.3-10.5c-0.6,0-1.8,0-2.3-0.6c-2.9,0-7,0-11.7,0c-28.6,0-76.4,5.8-111.4,9.9c-15.8,1.8-28.6,3.5-35.6,4.1l0,0c-12.3,0-21.6-9.9-21.6-22.2h1.8c0,11.7,8.8,20.4,19.8,20.4c7-0.6,20.4-2.3,35.6-4.1c35-4.1,82.8-9.9,111.4-9.9c4.7,0,8.8,0,11.7,0l0,0c0.6,0,1.2,0.6,2.3,0.6c8.8,0,14.6,5.8,20.4,11.1c5.8,5.3,11.1,10.5,19.3,10.5c6.4,0,16.9-0.6,16.9-0.6l4.1-0.6c2.3,0,57.8-7,61.8-7c1.2,0,1.8-0.6,1.8-1.2h1.8c0,1.2-1.2,2.9-3.5,2.9c-4.1,0-61.3,7-61.8,7l-4.1,0.6C533.8,244.9,523.3,244.9,516.9,244.9z"/>

  <path fill="#E4E4E4" d="M510.5,189.5c-8.2,4.7-18.7,26.8-28,26.8c-3.5,0-14,0-42.6,1.2c-64.2,2.3-115.5,8.8-120.8,8.8c-0.6,0-2.3,0-2.3,0c-7,0-12.3-5.3-12.3-12.3h-4.7c0,9.3,7.6,16.9,16.9,16.9c7,0,42.6-7,123.7-10.5c16.3-0.6,26.8-0.6,39.1,0c2.3,0,6.4,0.6,8.2,1.2c5.3,2.9,14,12.8,14,12.8c4.1,3.5,15.2,10.5,15.2,1.8c0-3.5,0-37.9,0-41.4C516.9,190.6,514.6,187.7,510.5,189.5z"/>

  <path fill="#E4E4E4" d="M591.6,132.3c0,4.7-3.5,8.8-7.6,9.3c-2.9,0.6-63.6-4.7-127.8-7c-28.6-1.2-39.7,0-43.2,0c-5.3,0-5.8-8.2-9.9-5.8c-2.3,1.2-1.2,4.1-2.9,8.8c-3.5,8.2-4.7,11.7-2.9,12.3c0,0,5.8-9.3,11.1-12.3c1.8-1.2,5.8-1.2,8.2-1.2c12.3-0.6,22.8-0.6,39.1,0c64.8,2.9,126,8.8,126,8.8c7.6,0,13.4-5.8,13.4-13.4h-3.5V132.3z"/>

  <path fill="#E4E4E4" d="M400.8,467.8c-9.3,0.6-35.6,2.9-65.9,5.8c-26.3-39.7-71.2-65.9-122.5-65.9s-96.3,26.3-122.5,66.5c-25.1-1.8-44.9-2.9-46.1-2.9c-25.7-1.2-37.3,46.7,15.8,46.7c4.1,0,7.6,0,11.1,0c-2.9,11.7-4.7,23.3-4.7,36.2c0,80.5,65.3,146.4,146.4,146.4c80.5,0,146.4-65.3,146.4-146.4c0-16.9-2.9-32.7-8.2-47.8c22.8,1.8,42,4.1,50.2,4.7c11.7,0,21.6-9.3,21.6-21.6C421.8,477.1,412.5,467.8,400.8,467.8z"/>

  <circle fill="#FFFFFF" cx="200.1" cy="539.5" r="146.4"/>

  <path fill="#E4E4E4" d="M200.1,651c-61.3,0-111.4-50.2-111.4-111.4s50.2-111.4,111.4-111.4s111.4,50.2,111.4,111.4C311.5,600.8,261.4,651,200.1,651z M200.1,433.9c-58.3,0-105.6,47.3-105.6,105.6s47.3,105.6,105.6,105.6s105.6-47.3,105.6-105.6S258.5,433.9,200.1,433.9z"/>

  <path fill="#E4E4E4" d="M241.5,439.2c-57.2-18.1-81.1,5.8-103.8,31.5c-30.9,35-49,81.7-41.4,98c1.8,2.9-19.8,18.7-1.2,71.8C69.4,614.2,54.3,578,54.3,538.9c0-80.5,65.3-146.4,146.4-146.4c39.1,0,75.3,15.8,101.5,40.8C270.1,423.4,246.2,440.9,241.5,439.2z"/>

  <path fill="#E4E4E4" d="M200.1,688.9c-39.7,0-77-15.2-105-43.2l4.1-4.1c26.8,26.8,63,41.4,100.9,41.4c78.8,0,143.5-64.2,143.5-143.5c0-39.1-15.8-75.8-43.8-102.7l4.1-4.1c29.2,28.6,45.5,66.5,45.5,107.3C349.5,621.8,282.4,688.9,200.1,688.9z"/>

  <path fill="#9A9B9C" d="M189.6,464.3c-0.6,0-63.6-4.1-109.7-7.6c-9.9,14-15.2,23.9-18.1,35.6c0,0,1.8-0.6,2.3-0.6c6.4,0,27.4,7,42,5.8c14-1.2,29.2-2.9,50.8-4.7c11.1-0.6,21-12.8,25.7-12.8c4.1,0,9.3,0,18.7,0c19.3,0,57.2,2.9,93.9,5.8c13.4,1.2,23.9-4.7,35.6-4.7c0.6,0,7,1.2,8.8,5.8c-4.7-15.2-14.6-23.3-19.3-30.3c-43.2,3.5-95.1,7.6-119,7.6C196.6,464.3,192.5,464.3,189.6,464.3z"/>

  <path fill="#FFFFFF" d="M96.8,644c-29.2-28-44.9-65.9-44.9-106.2c0-81.7,66.5-147.6,147.6-147.6c39.1,0,76.4,15.2,103.8,43.2l-2.3,2.3c-27.4-26.8-63.6-42-102.1-42c-79.9,0-144.7,64.8-144.7,144.7C54.3,578,70,614.8,98,642.2L96.8,644z"/>

  <path fill="#193642" d="M200.1,407.1c72.9,0,132.4,59.5,132.4,132.4S273,672,200.1,672S67.7,612.4,67.7,539.5C67.7,466.6,127.2,407.1,200.1,407.1 M200.1,395.4C120.8,395.4,56,460.2,56,539.5s64.8,144.1,144.1,144.1c79.9,0,144.1-64.8,144.1-144.1S280,395.4,200.1,395.4L200.1,395.4z"/>

  <path fill="#FFFFFF" d="M180.3,454.9c-0.6,0-154.6-10.5-158.7-10.5c-25.7-0.6-36.8,47.3,15.8,47.3c46.1,0,60.1-4.1,110.3-8.2c11.1-0.6,21-12.8,25.7-12.8c4.1,0,9.3,0,18.7,0c39.7,0,162.2,11.7,186.7,14c11.7,0,21.6-9.3,21.6-21.6c0-11.7-9.3-21.6-21.6-21.6c-23.3,1.8-144.7,13.4-186.7,13.4C187.3,454.9,183.2,454.9,180.3,454.9z"/>

  <path fill="#FFFFFF" d="M4.1,479.4c5.3,7,15.8,12.3,33.3,12.3c46.1,0,60.1-4.1,110.3-8.2c11.1-0.6,21-12.8,25.7-12.8c4.1,0,9.3,0,18.7,0c39.7,0,162.2,11.7,186.7,14c11.7,0,21.6-9.3,21.6-21.6"/>

  <path fill="#E4E4E4" d="M7.6,481.2c5.8,5.3,13.4,8.2,21,8.8c7.6,1.2,15.8,0.6,23.3,0.6c15.8-0.6,31.5-1.8,47.3-3.5c15.8-1.8,31.5-3.5,47.3-4.7c7.6,0,14-5.8,20.4-9.9c1.8-1.2,3.5-2.3,5.3-2.9c2.3,0,4.1,0,5.8,0h11.7c31.5,0.6,63,2.9,94.5,5.3s63,5.3,93.9,8.2l0,0c5.3,0,10.5-2.3,14-6.4c3.5-4.1,5.8-9.3,5.8-14.6h1.8c0,5.8-2.3,11.7-5.8,15.8c-4.1,4.1-9.9,6.4-15.2,6.4l0,0l0,0c-31.5-2.9-62.4-5.8-93.9-8.2c-32.1-1.8-63-4.7-94.5-4.7h-11.7c-1.8,0-4.1,0-5.8,0c-1.8,0.6-3.5,1.8-4.7,2.9c-6.4,4.7-12.8,9.9-21,10.5c-15.8,1.2-31.5,2.9-47.3,4.7c-15.8,1.8-31.5,2.9-47.3,3.5c-8.2,0-15.8,0.6-23.9-0.6c-7.6-1.2-15.8-3.5-21.6-9.3L7.6,481.2z"/>

  <path fill="#E4E4E4" d="M17.5,448.5c-8.2,2.3-14.6,7.6-14.6,16.3c0,17.5,20.4,22.2,27.4,22.2c9.9,0,18.7,0,23.3-2.9L17.5,448.5z"/>

  <path fill="#E4E4E4" d="M166.3,454.9c-4.7,0.6-38.5-1.2-43.8-1.2c-2.9,0-5.3,2.9-2.9,5.3c1.2,1.2,14,14,19.8,19.8c2.9,2.9,5.8,3.5,7,3.5c6.4-0.6,11.7-4.7,20.4-10.5c3.5-2.3,7-4.7,11.7-4.7c-1.8-0.6-2.3-2.9-2.3-4.1C175.6,459.6,175.6,454.3,166.3,454.9z"/>

  <path fill="#E4E4E4" d="M388.6,463.1c0,7-5.3,12.3-12.3,12.3c0,0-79.3-5.3-134.8-7.6c-28.6-1.2-55.4-0.6-74.1-1.8l-0.6,4.7c3.5-2.3,5.8-2.3,9.3-2.3c18.1,0.6,40.8,1.2,64.8,1.8c56.6,2.9,134.8,9.3,135.4,9.3c9.3,0,16.9-7.6,16.9-16.9h-4.7V463.1z"/>

  <polygon fill="#9A9B9C" points="487.1,344.7 547.2,344.7 540.8,467.8 541.4,517.9 548.4,672 521,672 519.8,680.1 477.8,672 "/>

  <polygon fill="#FFFFFF" points="529.7,464.8 473.7,464.8 467.9,317.2 535.6,317.2 "/>

  <polygon fill="#FFFFFF" points="473.7,518.5 529.7,518.5 535.6,666.1 467.9,666.1 "/>

  <rect x="470.8" y="464.8" fill="#193642" width="61.3" height="53.7"/>

  <path fill="#E4E4E4" d="M475.5,518.5h54.3c0,0,0.6,13.4,0.6,16.9c-1.2-2.3-8.2-2.3-8.2,2.3c0,8.2,1.2,128.4,1.2,128.4h-15.8c0,0,7.6-130.1,8.2-140c0-2.3-14-4.1-14-4.1L475.5,518.5z"/>

  <polygon fill="#E4E4E4" points="519.8,464.8 522.2,464.8 527.4,317.2 520.4,317.2 "/>

  <rect x="469.6" y="340.6" fill="#193642" width="50.8" height="1.2"/>

  <rect x="520.4" y="345.8" fill="#193642" width="14" height="1.2"/>

  <rect x="469.1" y="647.5" fill="#193642" width="39.7" height="1.2"/>

  <rect x="508.2" y="655.6" fill="#193642" width="27.4" height="1.2"/>

  <polygon fill="#04202D" points="472.6,518.5 532.1,518.5 532.1,464.8 526.2,464.8 "/>

</svg>

