<?xml version="1.0" encoding="utf-8"?>
<!-- Generator: Adobe Illustrator 18.0.0, SVG Export Plug-In . SVG Version: 6.00 Build 0)  -->
<!DOCTYPE svg PUBLIC "-//W3C//DTD SVG 1.1//EN" "http://www.w3.org/Graphics/SVG/1.1/DTD/svg11.dtd">
<svg version="1.1" id="Layer_2" xmlns="http://www.w3.org/2000/svg" xmlns:xlink="http://www.w3.org/1999/xlink" x="0px" y="0px"
	 viewBox="0 0 91.6 69.9" enable-background="new 0 0 91.6 69.9" xml:space="preserve">
<g>
	<g opacity="0.4">
		<path fill="#04202D" d="M61.3,29c-0.1-1.5-0.9-2.7-2-3.5c0.7-1.1,1-2.6,0.5-4c-0.5-1.4-1.5-2.4-2.8-2.9c0.4-1.3,0.3-2.8-0.5-4
			c-0.8-1.2-2.1-2-3.4-2.1c0.1-1.4-0.4-2.8-1.4-3.8c-1.1-1-2.5-1.4-3.8-1.2c-0.2-1.3-1-2.6-2.3-3.3c-1.3-0.7-2.8-0.7-4-0.2
			c-0.6-1.2-1.6-2.2-3.1-2.6c-1.4-0.4-2.9,0-3.9,0.8c-0.1-0.1-0.2-0.3-0.3-0.4c-0.8-0.8-2-1.4-3.3-1.4c-1.5,0-2.8,0.7-3.6,1.8
			C27.1,2.2,27,2,26.9,2c-1-0.6-2.3-0.8-3.5-0.5c-1.4,0.4-2.5,1.4-3.1,2.6c-1.3-0.5-2.7-0.5-4,0.2c-1.3,0.7-2.1,1.9-2.3,3.3
			c-1.4-0.2-2.8,0.2-3.8,1.2c-1.1,1-1.5,2.4-1.4,3.8c-1.4,0.2-2.6,0.9-3.4,2.1c-0.8,1.2-0.9,2.7-0.5,4c-1.3,0.5-2.3,1.5-2.8,2.9
			c-0.5,1.4-0.2,2.8,0.5,4c-1.1,0.8-1.9,2-2,3.5C0.4,30.5,1,31.8,2,32.8c-0.9,1-1.3,2.4-1,3.9c0.3,1.4,1.2,2.6,2.4,3.2
			c-0.6,1.2-0.7,2.7,0,4c0.6,1.3,1.8,2.2,3.1,2.5c-0.3,1.3,0,2.8,1,3.9c0.9,1.1,2.3,1.7,3.7,1.7c0.1,1.4,0.7,2.7,1.9,3.6
			c1.2,0.9,2.6,1.1,4,0.7c0.4,1.3,1.4,2.4,2.7,3c1.4,0.5,2.8,0.4,4-0.3c0.7,1.2,1.9,2,3.4,2.2c1.5,0.2,2.8-0.3,3.8-1.3
			c1,0.9,2.4,1.5,3.8,1.3c1.5-0.2,2.7-1,3.4-2.2c1.2,0.7,2.7,0.8,4,0.3c1.4-0.5,2.3-1.7,2.7-3c1.3,0.4,2.8,0.2,4-0.7
			c1.2-0.9,1.8-2.2,1.9-3.6c1.4,0,2.7-0.5,3.7-1.7c0.9-1.1,1.2-2.6,1-3.9c1.3-0.3,2.5-1.2,3.1-2.5c0.6-1.3,0.6-2.8,0-4
			c1.2-0.6,2.1-1.8,2.4-3.2c0.3-1.4-0.2-2.9-1-3.9C60.8,31.8,61.4,30.5,61.3,29z"/>
	</g>
	<g>
		<path fill="#E4E4E4" d="M61.1,25.4c-1.3-1.3,1.1,1.2-1-0.9l-1.2,0.5c0.5-0.9,0.8-1.9,0.7-3c-2.7-2.8-5.4-5.6-8.6-8.3L30.2,29.9
			l16-0.1l-12.1,4.6L20.6,59c0,0,2,1.7,3.6,3.3c10.2,10.2,26.7,10.2,36.9,0C71.3,52.1,71.3,35.6,61.1,25.4z"/>
	</g>
	<g>
		<path fill="#E4E4E4" d="M60.8,28.5c-0.1-1.5-0.9-2.7-2-3.5c0.7-1.1,1-2.6,0.5-4c-0.5-1.4-1.5-2.4-2.8-2.9c0.4-1.3,0.3-2.8-0.5-4
			c-0.8-1.2-2.1-2-3.4-2.1c0.1-1.4-0.4-2.8-1.4-3.8c-1.1-1-2.5-1.4-3.8-1.2c-0.2-1.3-1-2.6-2.3-3.3c-1.3-0.7-2.8-0.7-4-0.2
			C40.5,2.3,39.4,1.3,38,1c-1.4-0.4-2.9,0-3.9,0.8c-0.1-0.1-0.2-0.3-0.3-0.4c-0.8-0.8-2-1.4-3.3-1.4c-1.5,0-2.8,0.7-3.6,1.8
			c-0.1-0.1-0.3-0.2-0.4-0.3c-1-0.6-2.3-0.8-3.5-0.5c-1.4,0.4-2.5,1.4-3.1,2.6c-1.3-0.5-2.7-0.5-4,0.2c-1.3,0.7-2.1,1.9-2.3,3.3
			C12,6.9,10.6,7.2,9.6,8.3C8.5,9.3,8,10.7,8.1,12c-1.4,0.2-2.6,0.9-3.4,2.1c-0.8,1.2-0.9,2.7-0.5,4C3,18.6,1.9,19.6,1.4,21
			C1,22.4,1.2,23.9,2,25c-1.1,0.8-1.9,2-2,3.5c-0.1,1.5,0.5,2.8,1.5,3.7c-0.9,1-1.3,2.4-1,3.9c0.3,1.4,1.2,2.6,2.4,3.2
			c-0.6,1.2-0.7,2.7,0,4C3.5,44.8,4.7,45.6,6,46c-0.3,1.3,0,2.8,1,3.9c0.9,1.1,2.3,1.7,3.7,1.7c0.1,1.4,0.7,2.7,1.9,3.6
			c1.2,0.9,2.6,1.1,4,0.7c0.4,1.3,1.4,2.4,2.7,3c1.4,0.5,2.8,0.4,4-0.3c0.7,1.2,1.9,2,3.4,2.2c1.5,0.2,2.8-0.3,3.8-1.3
			c1,0.9,2.4,1.5,3.8,1.3c1.5-0.2,2.7-1,3.4-2.2c1.2,0.7,2.6,0.8,4,0.3c1.4-0.5,2.3-1.7,2.7-3c1.3,0.4,2.8,0.2,4-0.7
			c1.2-0.9,1.8-2.2,1.9-3.6c1.4,0,2.7-0.5,3.7-1.7c0.9-1.1,1.2-2.6,1-3.9c1.3-0.3,2.5-1.2,3.1-2.5c0.6-1.3,0.6-2.8,0-4
			c1.2-0.6,2.1-1.8,2.4-3.2c0.3-1.4-0.2-2.9-1-3.9C60.3,31.4,60.9,30,60.8,28.5z"/>
	</g>
	<g>
		<path fill="#99A6AB" d="M60,28.6c-0.1-1.4-0.8-2.6-1.9-3.4c0.7-1.1,1-2.5,0.5-3.9c-0.4-1.4-1.5-2.4-2.7-2.8
			c0.4-1.3,0.3-2.7-0.4-3.9c-0.8-1.2-2-1.9-3.3-2.1c0.1-1.3-0.4-2.7-1.4-3.7c-1-1-2.4-1.4-3.7-1.2c-0.2-1.3-1-2.5-2.3-3.2
			c-1.3-0.7-2.7-0.7-3.9-0.2c-0.6-1.2-1.6-2.2-3-2.5c-1.4-0.4-2.8,0-3.8,0.8c-0.1-0.1-0.2-0.3-0.3-0.4c-0.8-0.8-2-1.3-3.2-1.3
			c-1.4,0-2.7,0.7-3.5,1.7c-0.1-0.1-0.3-0.2-0.4-0.3c-1-0.6-2.2-0.8-3.4-0.5c-1.4,0.4-2.4,1.3-3,2.5c-1.2-0.5-2.7-0.5-3.9,0.2
			c-1.3,0.7-2,1.9-2.3,3.2c-1.3-0.2-2.7,0.2-3.7,1.2c-1,1-1.5,2.3-1.4,3.7c-1.3,0.2-2.6,0.9-3.3,2.1c-0.8,1.2-0.9,2.6-0.4,3.9
			c-1.2,0.5-2.3,1.5-2.7,2.8c-0.4,1.4-0.2,2.8,0.5,3.9c-1.1,0.8-1.8,2-1.9,3.4c-0.1,1.4,0.5,2.7,1.5,3.6c-0.9,1-1.3,2.4-1,3.8
			c0.3,1.4,1.2,2.5,2.3,3.1c-0.6,1.2-0.7,2.6,0,3.9c0.6,1.3,1.8,2.2,3,2.5c-0.3,1.3,0,2.7,0.9,3.8c0.9,1.1,2.2,1.6,3.6,1.6
			c0.1,1.3,0.7,2.6,1.9,3.5c1.2,0.8,2.6,1,3.9,0.7c0.4,1.3,1.3,2.4,2.7,2.9c1.3,0.5,2.8,0.4,3.9-0.3c0.7,1.1,1.9,2,3.3,2.1
			c1.4,0.2,2.8-0.3,3.7-1.3c1,0.9,2.3,1.4,3.7,1.3c1.4-0.2,2.6-1,3.3-2.1c1.2,0.7,2.6,0.8,3.9,0.3c1.3-0.5,2.3-1.6,2.6-2.9
			c1.3,0.3,2.7,0.1,3.9-0.7c1.2-0.8,1.8-2.1,1.8-3.5c1.3,0,2.7-0.5,3.6-1.6c0.9-1.1,1.2-2.5,0.9-3.8c1.3-0.3,2.4-1.2,3-2.5
			c0.6-1.3,0.5-2.7,0-3.9c1.2-0.6,2.1-1.7,2.3-3.1c0.3-1.4-0.2-2.8-1-3.8C59.5,31.3,60.1,30,60,28.6z"/>
	</g>
	<g>
		<path fill="#DADADB" d="M58,43.4c0.6-1.3,0.6-2.8,0-4c1.2-0.6,2.1-1.8,2.4-3.2c0.3-1.4-0.2-2.9-1-3.9c1-0.9,1.6-2.3,1.5-3.7
			c-0.1-1.5-0.9-2.7-2-3.5c0.4-0.6,0.6-1.2,0.7-1.9c-0.8-1-1.6-2-2.5-2.9c-2.7-2.7-4.6-4.2-6.7-6.3l-26,9.9l-13.9,23
			c3.8,3.8,7.2,8.5,9.3,10.7c0.6,0.6,1.2,1.1,1.8,1.6c0.6-0.1,1.1-0.3,1.6-0.6c0.7,1.2,1.9,2,3.4,2.2c1.5,0.2,2.8-0.3,3.8-1.3
			c1,0.9,2.4,1.5,3.8,1.3c1.5-0.2,2.7-1,3.4-2.2c1.2,0.7,2.6,0.8,4,0.3c1.4-0.5,2.3-1.7,2.7-3c1.3,0.4,2.8,0.2,4-0.7
			c1.2-0.9,1.8-2.2,1.9-3.6c1.4,0,2.7-0.5,3.7-1.7c0.9-1.1,1.2-2.6,1-3.9C56.2,45.6,57.3,44.8,58,43.4z"/>
	</g>
	<g>
		<path fill="#E4E4E4" d="M77.6,32.3l2.2-0.8l0.1,0.4l11.6-4.1l-0.9-2.7L79,29.2l0.1,0.4l-2.2,0.8c-1.9,0.7-2.6-1.3-2.6-1.3
			c-0.1-0.2-0.1-0.3-0.2-0.5l0,0c0-0.1-0.1-0.2-0.1-0.3c-0.5-1.4-0.9-2.5-1.1-3.2c0-0.1-0.1-0.2-0.1-0.3c-0.3-1-0.7-1.2-0.8-1.2
			c-0.6-0.4-1.4-0.4-2.5,0.6c-0.1,0.1-4.6,3.8-4.6,3.8s-0.5-0.7-0.8-1.1L43.4,43h26.3c0-0.5,0-0.9-0.1-1.3c3.4,0,5.9,0.1,6,0.1
			c2.3,0.2,2.6-1.4,2.3-2.2c0-0.1-0.7-2.1-1.6-4.6C76.4,35,75.7,33,77.6,32.3z"/>
	</g>
	<g>
		<path fill="#FFFFFF" d="M51.4,13.7C46.6,7.5,39.1,3.6,30.7,3.6C16.1,3.6,4.4,15.4,4.4,29.9c0,14.5,11.8,26.3,26.3,26.3
			c14.5,0,26.3-11.8,26.3-26.3H30.7L51.4,13.7z"/>
	</g>
	<g>
		<path fill="#E4E4E4" d="M12.1,48.5c10.3,10.3,26.9,10.3,37.2,0c10.3-10.3,10.3-26.9,0-37.2L30.7,29.9
			C30.7,29.9,21.3,39.2,12.1,48.5z"/>
	</g>
	<g>
		<g>
			<g>
				<path fill="#E4E4E4" d="M63.8,8.6c-0.3,0.2-9.1,7.4-16,12.7c-2.8,2.2-1.7,4.9,1.4,4.8c7.4-0.2,20.3,0,20.7,0
					c2.3,0.2,2.6-1.4,2.3-2.2c0-0.1-0.7-2.1-1.6-4.6c0,0-0.7-2,1.2-2.7l11.8-4.1l-0.7-1.9l-11.8,4.1c-1.9,0.7-2.6-1.3-2.6-1.3
					C67.7,11,67,9,67,9C66.7,8.1,65.5,7.1,63.8,8.6z"/>
			</g>
			<g>
				<path fill="#99A6AB" d="M70.3,25.8c-0.7,0-2.3,0-4.8-0.2c-5.6-0.3-13-7.8-17.6-4.2c-2.8,2.2-1.7,4.9,1.4,4.8
					c7.4-0.2,20.3,0,20.7,0c2.3,0.2,2.6-1.4,2.3-2.2c0-0.1-0.7-2.1-1.6-4.6c0,0-0.7-2,1.2-2.7l3-1l-0.5-1.5l-3,1.1
					c-1.1,0.4-1.8,0-2.2-0.4c-0.3-0.4-0.7-0.6-0.5-0.1c0.2,0.5,3.3,9.4,3.3,9.5C72.2,25.2,71.1,25.8,70.3,25.8z"/>
			</g>
			<g>
				<path fill="#99A6AB" d="M67.1,9.3c-0.3-1.1-0.8-1.2-0.8-1.2l0.4,1.4c0.7,2,1.4,3.9,1.5,4.4l0.1-0.8
					C68.2,12.6,67.4,10.3,67.1,9.3z"/>
			</g>
			<g>
				<path fill="#99A6AB" d="M47.8,21.4c-2.8,2.2-1.7,4.9,1.4,4.8c5.8-0.1,15,0,18.9,0c0,0-3.9-11-4.5-13.1c-0.7-2-2.9-1.9-4-1
					C56.3,14.7,51.7,18.4,47.8,21.4z"/>
			</g>
			<g>

					<rect x="78.1" y="6.9" transform="matrix(-0.3286 -0.9445 0.9445 -0.3286 93.3035 92.4116)" fill="#E4E4E4" width="2.9" height="12.3"/>
			</g>
			<g>
				<path fill="#97A4A9" d="M84.9,9.7l0.9,2.7l-11.6,4.1L74,16l-0.5-0.6l0-0.8c0,0,0.4,0.9,1.3,0.6c0.4-0.1,5.3-1.8,8.2-2.8
					C84.7,11.7,84.9,9.7,84.9,9.7z"/>
			</g>
		</g>
		<g>
			<path fill="#FFFFFF" d="M58.4,11.3c3.5,4.5,5.6,10.1,5.6,16.2H37.6L58.4,11.3z"/>
		</g>
	</g>
	<g>
		<path fill="#E4E4E4" d="M56.9,29.9h-4.5l-13.7,6.6c0,0,14.5,0,17.4,0C56.7,34.4,56.9,32.2,56.9,29.9z"/>
	</g>
	<g>
		<path fill="#E4E4E4" d="M61.8,27.8l-0.1-0.2c-0.2-0.3-0.3-0.6-0.4-1c0-0.4,0.1-0.8,0.2-1.1c0.1-0.3,0.2-0.5,0.2-0.7
			c0-0.2-0.2-0.4-0.4-0.6c-0.2-0.3-0.4-0.6-0.5-1c-0.1-0.4,0-0.8,0.1-1.1c0.1-0.3,0.1-0.5,0.1-0.7c-0.1-0.2-0.2-0.4-0.4-0.6
			c-0.2-0.2-0.5-0.5-0.7-0.9c-0.1-0.4-0.1-0.7-0.1-1.1c0-0.3,0-0.5-0.1-0.7c-0.1-0.2-0.3-0.3-0.5-0.5c-0.3-0.2-0.6-0.4-0.8-0.8
			c-0.2-0.3-0.2-0.7-0.3-1.1c0-0.3-0.1-0.5-0.2-0.7c-0.1-0.1-0.3-0.3-0.6-0.4c-0.3-0.2-0.6-0.3-0.9-0.6c-0.2-0.3-0.3-0.6-0.4-0.9
			l1-0.3c0.1,0.2,0.1,0.4,0.2,0.5c0.1,0.1,0.3,0.3,0.6,0.4c0.3,0.2,0.7,0.4,1,0.7c0.2,0.4,0.3,0.8,0.3,1.1c0,0.3,0.1,0.5,0.1,0.7
			c0.1,0.2,0.3,0.3,0.5,0.5c0.3,0.2,0.6,0.5,0.8,0.9c0.2,0.4,0.2,0.8,0.2,1.2c0,0.3,0,0.5,0,0.7c0.1,0.2,0.2,0.3,0.4,0.5
			c0.3,0.3,0.6,0.6,0.7,1c0.1,0.4,0,0.8,0,1.2c-0.1,0.3-0.1,0.5-0.1,0.7c0,0.2,0.2,0.4,0.3,0.6c0.2,0.3,0.5,0.6,0.5,1.1
			c0.1,0.4-0.1,0.8-0.2,1.2c-0.1,0.3-0.2,0.5-0.2,0.7c0,0.2,0.1,0.4,0.3,0.6l0.1,0.2L61.8,27.8z"/>
	</g>
	<g>
		<path fill="#E4E4E4" d="M33.2,54.7c-0.4,0-0.7-0.2-1-0.3c-0.2-0.1-0.5-0.2-0.7-0.2c-0.2,0-0.4,0.1-0.7,0.2
			c-0.3,0.2-0.7,0.3-1.2,0.3c-0.4,0-0.8-0.3-1.1-0.5c-0.2-0.1-0.4-0.3-0.6-0.3c-0.2,0-0.4,0-0.7,0.1c-0.4,0.1-0.8,0.2-1.2,0.1
			c-0.4-0.1-0.7-0.4-1-0.6c-0.2-0.2-0.4-0.3-0.6-0.4c-0.2-0.1-0.4,0-0.7,0c-0.4,0-0.8,0.1-1.2-0.1c-0.4-0.2-0.7-0.5-0.9-0.8
			c-0.2-0.2-0.3-0.4-0.5-0.5c-0.2-0.1-0.4-0.1-0.7-0.1c-0.4,0-0.8,0-1.2-0.2c-0.4-0.2-0.6-0.6-0.8-0.9c-0.1-0.2-0.3-0.4-0.4-0.5
			c-0.1-0.1-0.4-0.1-0.7-0.2c-0.4-0.1-0.8-0.1-1.1-0.4c-0.3-0.3-0.5-0.7-0.7-1c-0.1-0.2-0.2-0.5-0.3-0.6c-0.1-0.1-0.4-0.2-0.6-0.3
			c-0.4-0.1-0.8-0.3-1-0.6c-0.3-0.3-0.4-0.7-0.5-1.1c-0.1-0.3-0.1-0.5-0.2-0.6c-0.1-0.1-0.3-0.3-0.6-0.4c-0.3-0.2-0.7-0.4-1-0.7
			c-0.2-0.4-0.3-0.8-0.3-1.1c0-0.3-0.1-0.5-0.1-0.7c-0.1-0.2-0.3-0.3-0.5-0.5c-0.3-0.2-0.6-0.5-0.8-0.9c-0.2-0.4-0.2-0.8-0.2-1.2
			c0-0.3,0-0.5,0-0.7c-0.1-0.2-0.2-0.3-0.4-0.5c-0.3-0.3-0.6-0.6-0.7-1c-0.1-0.4,0-0.8,0-1.2c0.1-0.3,0.1-0.5,0.1-0.7
			c0-0.2-0.2-0.4-0.3-0.6c-0.2-0.3-0.5-0.6-0.5-1.1c-0.1-0.4,0.1-0.8,0.2-1.2c0.1-0.3,0.2-0.5,0.2-0.7c0-0.2-0.1-0.4-0.3-0.6
			c-0.2-0.3-0.4-0.7-0.4-1.1c0-0.4,0.2-0.8,0.4-1.1c0.1-0.2,0.2-0.5,0.3-0.6c0-0.2-0.1-0.4-0.2-0.7c-0.1-0.4-0.3-0.8-0.2-1.2
			C7.5,26.4,7.8,26,8,25.7c0.2-0.2,0.3-0.4,0.3-0.6c0-0.2,0-0.4-0.1-0.7c-0.1-0.4-0.2-0.8,0-1.2c0.1-0.4,0.4-0.7,0.7-1
			c0.2-0.2,0.4-0.4,0.4-0.5c0.1-0.2,0.1-0.4,0-0.7c0-0.4,0-0.8,0.2-1.2c0.2-0.4,0.5-0.6,0.8-0.9c0.2-0.2,0.4-0.3,0.5-0.5
			c0.1-0.2,0.1-0.4,0.1-0.7c0-0.4,0.1-0.8,0.3-1.1c0.2-0.4,0.6-0.6,1-0.7c0.2-0.1,0.5-0.2,0.6-0.4c0.1-0.1,0.2-0.4,0.2-0.6
			c0.1-0.4,0.2-0.8,0.5-1.1c0.3-0.3,0.7-0.5,1-0.6c0.3-0.1,0.5-0.2,0.6-0.3c0.1-0.1,0.2-0.4,0.3-0.6c0.1-0.3,0.3-0.7,0.7-1
			c0.3-0.3,0.8-0.3,1.1-0.4c0.3,0,0.5-0.1,0.7-0.2c0.1-0.1,0.3-0.3,0.4-0.5c0.2-0.3,0.4-0.7,0.8-0.9c0.4-0.2,0.8-0.2,1.2-0.2
			c0.3,0,0.5,0,0.7-0.1c0.2-0.1,0.3-0.3,0.5-0.5c0.2-0.3,0.5-0.6,0.9-0.8c0.4-0.2,0.8-0.1,1.2-0.1c0.3,0,0.5,0.1,0.7,0
			c0.2-0.1,0.4-0.2,0.6-0.4c0.3-0.2,0.6-0.5,1-0.6c0.4-0.1,0.8,0,1.2,0.1C27.5,7,27.7,7,27.9,7c0.2,0,0.4-0.2,0.6-0.3
			c0.3-0.2,0.7-0.4,1.1-0.5c0.4,0,0.8,0.1,1.2,0.3c0.2,0.1,0.5,0.2,0.7,0.2c0.2,0,0.4-0.1,0.7-0.2c0.3-0.1,0.7-0.3,1.2-0.3
			c0.4,0,0.8,0.3,1.1,0.5C34.6,6.8,34.8,7,35,7c0.2,0,0.4,0,0.7-0.1c0.4-0.1,0.8-0.2,1.2-0.1c0.4,0.1,0.7,0.4,1,0.6
			c0.2,0.2,0.4,0.3,0.6,0.4c0.2,0.1,0.4,0,0.7,0c0.4,0,0.8-0.1,1.2,0.1C40.7,8,41,8.3,41.3,8.6c0.2,0.2,0.3,0.4,0.5,0.5
			c0.2,0.1,0.4,0.1,0.7,0.1c0.4,0,0.8,0,1.2,0.2c0.4,0.2,0.6,0.6,0.8,0.9c0.1,0.2,0.3,0.4,0.4,0.5c0.1,0.1,0.4,0.1,0.7,0.2
			c0.4,0.1,0.8,0.1,1.1,0.4c0.3,0.3,0.5,0.7,0.7,1c0.1,0.2,0.2,0.5,0.3,0.6c0.1,0.1,0.4,0.2,0.6,0.3c0.4,0.1,0.8,0.3,1,0.6
			c0.3,0.3,0.4,0.7,0.5,1.1l0,0.1l-1,0.3l0-0.1c-0.1-0.3-0.1-0.5-0.3-0.7c-0.1-0.1-0.4-0.2-0.6-0.3c-0.3-0.1-0.7-0.2-1-0.5
			c-0.3-0.3-0.4-0.6-0.6-0.9c-0.1-0.3-0.2-0.5-0.4-0.6c-0.1-0.1-0.4-0.2-0.7-0.2c-0.3-0.1-0.7-0.1-1-0.4c-0.3-0.2-0.5-0.5-0.7-0.8
			c-0.2-0.2-0.3-0.5-0.4-0.6c-0.2-0.1-0.4-0.1-0.7-0.1c-0.3,0-0.7,0-1.1-0.2c-0.3-0.2-0.6-0.5-0.8-0.7C40.3,9,40.1,8.8,40,8.8
			c-0.2-0.1-0.4,0-0.7,0c-0.3,0-0.7,0.1-1.1,0c-0.4-0.1-0.7-0.4-0.9-0.6C37,8,36.8,7.8,36.6,7.7c-0.2,0-0.4,0-0.7,0.1
			C35.6,7.9,35.2,8,34.8,8c-0.4-0.1-0.7-0.3-1-0.4c-0.2-0.2-0.5-0.3-0.7-0.3c-0.2,0-0.4,0.1-0.7,0.2c-0.3,0.1-0.7,0.3-1.1,0.3
			c-0.4,0-0.7-0.2-1.1-0.3c-0.2-0.1-0.5-0.2-0.7-0.2c-0.2,0-0.4,0.2-0.7,0.3c-0.3,0.2-0.6,0.4-1,0.4c-0.4,0.1-0.8,0-1.1-0.1
			c-0.3-0.1-0.5-0.1-0.7-0.1c-0.2,0-0.4,0.2-0.6,0.4c-0.3,0.2-0.6,0.5-0.9,0.6c-0.4,0.1-0.8,0.1-1.1,0c-0.3,0-0.5-0.1-0.7,0
			c-0.2,0.1-0.3,0.3-0.5,0.5C22.2,9.5,22,9.8,21.6,10c-0.3,0.2-0.7,0.2-1.1,0.2c-0.3,0-0.6,0-0.7,0.1c-0.2,0.1-0.3,0.3-0.4,0.6
			c-0.2,0.3-0.4,0.6-0.7,0.8c-0.3,0.2-0.7,0.3-1,0.4c-0.3,0.1-0.5,0.1-0.7,0.2c-0.1,0.1-0.2,0.4-0.4,0.6c-0.1,0.3-0.3,0.7-0.6,0.9
			c-0.3,0.3-0.7,0.4-1,0.5c-0.3,0.1-0.5,0.2-0.6,0.3c-0.1,0.1-0.2,0.4-0.3,0.7c-0.1,0.3-0.2,0.7-0.4,1c-0.2,0.3-0.6,0.5-0.9,0.6
			c-0.3,0.1-0.5,0.3-0.6,0.4c-0.1,0.1-0.1,0.4-0.2,0.7c0,0.3-0.1,0.7-0.3,1.1c-0.2,0.3-0.5,0.6-0.8,0.8c-0.2,0.2-0.4,0.3-0.5,0.5
			c-0.1,0.2-0.1,0.4-0.1,0.7c0,0.3,0,0.7-0.1,1.1c-0.1,0.4-0.4,0.6-0.7,0.9c-0.2,0.2-0.4,0.4-0.4,0.6c-0.1,0.2,0,0.4,0.1,0.7
			c0.1,0.3,0.1,0.7,0.1,1.1c-0.1,0.4-0.3,0.7-0.5,1c-0.2,0.2-0.3,0.4-0.4,0.6c0,0.2,0.1,0.4,0.2,0.7c0.1,0.3,0.2,0.7,0.2,1.1
			c0,0.4-0.2,0.7-0.4,1c-0.1,0.3-0.3,0.5-0.3,0.7c0,0.2,0.1,0.4,0.3,0.7c0.2,0.3,0.3,0.6,0.4,1c0,0.4-0.1,0.8-0.2,1.1
			c-0.1,0.3-0.2,0.5-0.2,0.7c0,0.2,0.2,0.4,0.4,0.6c0.2,0.3,0.4,0.6,0.5,1c0.1,0.4,0,0.8-0.1,1.1c-0.1,0.3-0.1,0.5-0.1,0.7
			c0.1,0.2,0.2,0.4,0.4,0.6c0.2,0.2,0.5,0.5,0.7,0.9c0.1,0.4,0.1,0.7,0.1,1.1c0,0.3,0,0.5,0.1,0.7c0.1,0.2,0.3,0.3,0.5,0.5
			c0.3,0.2,0.6,0.4,0.8,0.8c0.2,0.3,0.2,0.7,0.3,1.1c0,0.3,0.1,0.5,0.2,0.7c0.1,0.1,0.3,0.3,0.6,0.4c0.3,0.2,0.6,0.3,0.9,0.6
			c0.2,0.3,0.3,0.7,0.4,1c0.1,0.3,0.1,0.5,0.3,0.7c0.1,0.1,0.4,0.2,0.6,0.3c0.3,0.1,0.7,0.2,1,0.5c0.3,0.3,0.4,0.6,0.6,0.9
			c0.1,0.3,0.2,0.5,0.4,0.6c0.1,0.1,0.4,0.2,0.7,0.2c0.3,0.1,0.7,0.1,1,0.4c0.3,0.2,0.5,0.5,0.7,0.8c0.2,0.2,0.3,0.5,0.4,0.6
			c0.2,0.1,0.4,0.1,0.7,0.1c0.3,0,0.7,0,1.1,0.2c0.3,0.2,0.6,0.5,0.8,0.7c0.2,0.2,0.4,0.4,0.5,0.5c0.2,0.1,0.4,0,0.7,0
			c0.3,0,0.7-0.1,1.1,0c0.4,0.1,0.7,0.4,0.9,0.6c0.2,0.2,0.4,0.4,0.6,0.4c0.2,0,0.4,0,0.7-0.1c0.3-0.1,0.7-0.2,1.1-0.1
			c0.4,0.1,0.7,0.3,1,0.4c0.2,0.2,0.5,0.3,0.7,0.3c0.2,0,0.4-0.1,0.7-0.2c0.3-0.1,0.7-0.3,1.1-0.3c0.4,0,0.7,0.2,1.1,0.3
			c0.2,0.1,0.5,0.2,0.7,0.2c0.2,0,0.4-0.2,0.7-0.3c0.3-0.2,0.6-0.4,1-0.4c0.4-0.1,0.8,0,1.1,0.1c0.3,0.1,0.5,0.1,0.7,0.1
			c0.2,0,0.4-0.2,0.6-0.4c0.3-0.2,0.6-0.5,0.9-0.6c0.4-0.1,0.8-0.1,1.1,0c0.3,0,0.5,0.1,0.7,0c0.2-0.1,0.3-0.3,0.5-0.5
			c0.2-0.3,0.5-0.6,0.8-0.7c0.3-0.2,0.7-0.2,1.1-0.2c0.3,0,0.5,0,0.7-0.1c0.2-0.1,0.3-0.3,0.4-0.6c0.2-0.3,0.4-0.6,0.7-0.8
			c0.3-0.2,0.7-0.3,1-0.4c0.3-0.1,0.5-0.1,0.7-0.2c0.1-0.1,0.2-0.4,0.4-0.6c0.1-0.3,0.3-0.7,0.6-0.9c0.3-0.3,0.6-0.4,1-0.5
			c0.3-0.1,0.5-0.2,0.6-0.3c0.1-0.1,0.2-0.4,0.3-0.7c0.1-0.3,0.2-0.7,0.4-1c0.2-0.3,0.6-0.5,0.9-0.6c0.3-0.1,0.5-0.3,0.6-0.4
			c0.1-0.1,0.1-0.4,0.2-0.7c0-0.3,0.1-0.7,0.3-1.1c0.2-0.3,0.5-0.6,0.8-0.8c0.2-0.2,0.4-0.3,0.5-0.5c0.1-0.2,0.1-0.4,0.1-0.7
			c0-0.3,0-0.7,0.1-1.1c0.1-0.4,0.4-0.6,0.7-0.9c0.2-0.2,0.4-0.4,0.4-0.6c0.1-0.2,0-0.4-0.1-0.7c-0.1-0.3-0.1-0.7-0.1-1.1
			c0.1-0.4,0.3-0.7,0.5-1c0.2-0.2,0.3-0.4,0.4-0.6c0-0.2-0.1-0.4-0.2-0.7c-0.1-0.3-0.2-0.7-0.2-1.1c0-0.4,0.2-0.7,0.4-1
			c0.1-0.3,0.3-0.5,0.3-0.7c0-0.1-0.1-0.3-0.2-0.5l0.9-0.4c0.1,0.3,0.3,0.6,0.3,0.9c0,0.4-0.2,0.8-0.4,1.1c-0.1,0.2-0.2,0.5-0.3,0.6
			c0,0.2,0.1,0.4,0.2,0.7c0.1,0.4,0.3,0.8,0.2,1.2c-0.1,0.4-0.3,0.8-0.5,1.1c-0.2,0.2-0.3,0.4-0.3,0.6c0,0.2,0,0.4,0.1,0.7
			c0.1,0.4,0.2,0.8,0,1.2c-0.1,0.4-0.4,0.7-0.7,1c-0.2,0.2-0.4,0.4-0.4,0.5c-0.1,0.2-0.1,0.4,0,0.7c0,0.4,0,0.8-0.2,1.2
			c-0.2,0.4-0.5,0.6-0.8,0.9c-0.2,0.2-0.4,0.3-0.5,0.5c-0.1,0.2-0.1,0.4-0.1,0.7c0,0.4-0.1,0.8-0.3,1.1c-0.2,0.4-0.6,0.6-1,0.7
			c-0.2,0.1-0.5,0.2-0.6,0.4c-0.1,0.1-0.2,0.4-0.2,0.6c-0.1,0.4-0.2,0.8-0.5,1.1c-0.3,0.3-0.7,0.5-1,0.6c-0.3,0.1-0.5,0.2-0.6,0.3
			c-0.1,0.1-0.2,0.4-0.3,0.6c-0.1,0.3-0.3,0.7-0.7,1c-0.3,0.3-0.8,0.3-1.1,0.4c-0.3,0-0.5,0.1-0.7,0.2c-0.1,0.1-0.3,0.3-0.4,0.5
			c-0.2,0.3-0.4,0.7-0.8,0.9c-0.4,0.2-0.8,0.2-1.2,0.2c-0.3,0-0.5,0-0.7,0.1c-0.2,0.1-0.3,0.3-0.5,0.5c-0.2,0.3-0.5,0.6-0.9,0.8
			c-0.4,0.2-0.8,0.1-1.2,0.1c-0.3,0-0.5-0.1-0.7,0c-0.2,0.1-0.4,0.2-0.6,0.4c-0.3,0.2-0.6,0.5-1,0.6c-0.4,0.1-0.8,0-1.2-0.1
			c-0.3-0.1-0.5-0.1-0.7-0.1c-0.2,0-0.4,0.2-0.6,0.3c-0.3,0.2-0.7,0.4-1.1,0.5C33.2,54.7,33.2,54.7,33.2,54.7z"/>
	</g>
	<g>
		<path fill="#4F616C" d="M62.4,27.5h-1c0-0.2-0.1-0.4-0.3-0.7c-0.2-0.3-0.3-0.6-0.4-1c0-0.4,0.1-0.8,0.2-1.1
			c0.1-0.3,0.2-0.5,0.2-0.7c0-0.2-0.2-0.4-0.4-0.6c-0.2-0.3-0.4-0.6-0.5-1c-0.1-0.4,0-0.8,0.1-1.1c0.1-0.3,0.1-0.5,0.1-0.7
			c-0.1-0.2-0.2-0.4-0.4-0.6c-0.2-0.2-0.5-0.5-0.7-0.9c-0.1-0.4-0.1-0.7-0.1-1.1c0-0.3,0-0.5-0.1-0.7c-0.1-0.2-0.3-0.3-0.5-0.5
			c-0.3-0.2-0.6-0.4-0.8-0.8c-0.2-0.3-0.2-0.7-0.3-1.1c0-0.3-0.1-0.5-0.2-0.7c-0.1-0.1-0.3-0.3-0.6-0.4c-0.3-0.2-0.6-0.3-0.9-0.6
			l0.8-0.6c0.1,0.1,0.3,0.3,0.6,0.4c0.3,0.2,0.7,0.4,1,0.7c0.2,0.4,0.3,0.8,0.3,1.1c0,0.3,0.1,0.5,0.1,0.7c0.1,0.2,0.3,0.3,0.5,0.5
			c0.3,0.2,0.6,0.5,0.8,0.9c0.2,0.4,0.2,0.8,0.2,1.2c0,0.3,0,0.5,0,0.7c0.1,0.2,0.2,0.3,0.4,0.5c0.3,0.3,0.6,0.6,0.7,1
			c0.1,0.4,0,0.8,0,1.2c-0.1,0.3-0.1,0.5-0.1,0.7c0,0.2,0.2,0.4,0.3,0.6c0.2,0.3,0.5,0.6,0.5,1.1c0.1,0.4-0.1,0.8-0.2,1.2
			c-0.1,0.3-0.2,0.5-0.2,0.7c0,0.2,0.1,0.4,0.3,0.6C62.2,26.7,62.4,27.1,62.4,27.5z"/>
	</g>
	<g>
		<path fill="#193642" d="M29.3,54.2c0,0-0.1,0-0.1,0c-0.4,0-0.8-0.3-1.1-0.5c-0.2-0.1-0.4-0.3-0.6-0.3c-0.2,0-0.4,0-0.7,0.1
			c-0.4,0.1-0.8,0.2-1.2,0.1c-0.4-0.1-0.7-0.4-1-0.6c-0.2-0.2-0.4-0.3-0.6-0.4c-0.2-0.1-0.4,0-0.7,0c-0.4,0-0.8,0.1-1.2-0.1
			c-0.4-0.2-0.7-0.5-0.9-0.8c-0.2-0.2-0.3-0.4-0.5-0.5c-0.2-0.1-0.4-0.1-0.7-0.1c-0.4,0-0.8,0-1.2-0.2c-0.4-0.2-0.6-0.6-0.8-0.9
			c-0.1-0.2-0.3-0.4-0.4-0.5c-0.1-0.1-0.4-0.1-0.7-0.2c-0.4-0.1-0.8-0.1-1.1-0.4c-0.3-0.3-0.5-0.7-0.7-1c-0.1-0.2-0.2-0.5-0.3-0.6
			c-0.1-0.1-0.4-0.2-0.6-0.3c-0.4-0.1-0.8-0.3-1-0.6c-0.3-0.3-0.4-0.7-0.5-1.1c-0.1-0.3-0.1-0.5-0.2-0.6c-0.1-0.1-0.3-0.3-0.6-0.4
			c-0.3-0.2-0.7-0.4-1-0.7c-0.2-0.4-0.3-0.8-0.3-1.1c0-0.3-0.1-0.5-0.1-0.7c-0.1-0.2-0.3-0.3-0.5-0.5c-0.3-0.2-0.6-0.5-0.8-0.9
			c-0.2-0.4-0.2-0.8-0.2-1.2c0-0.3,0-0.5,0-0.7c-0.1-0.2-0.2-0.3-0.4-0.5c-0.3-0.3-0.6-0.6-0.7-1c-0.1-0.4,0-0.8,0-1.2
			c0.1-0.3,0.1-0.5,0.1-0.7c0-0.2-0.2-0.4-0.3-0.6C7.3,34.4,7,34.1,7,33.6c-0.1-0.4,0.1-0.8,0.2-1.2c0.1-0.3,0.2-0.5,0.2-0.7
			c0-0.2-0.1-0.4-0.3-0.6c-0.2-0.3-0.4-0.7-0.4-1.1c0-0.4,0.2-0.8,0.4-1.1c0.1-0.2,0.2-0.5,0.3-0.6c0-0.2-0.1-0.4-0.2-0.7
			C7,27.2,6.9,26.8,7,26.4C7,26,7.3,25.6,7.5,25.3c0.2-0.2,0.3-0.4,0.3-0.6c0-0.2,0-0.4-0.1-0.7c-0.1-0.4-0.2-0.8,0-1.2
			c0.1-0.4,0.4-0.7,0.7-1c0.2-0.2,0.4-0.4,0.4-0.5c0.1-0.2,0.1-0.4,0-0.7c0-0.4,0-0.8,0.2-1.2c0.2-0.4,0.5-0.6,0.8-0.9
			c0.2-0.2,0.4-0.3,0.5-0.5c0.1-0.2,0.1-0.4,0.1-0.7c0-0.4,0.1-0.8,0.3-1.1c0.2-0.4,0.6-0.6,1-0.7c0.2-0.1,0.5-0.2,0.6-0.4
			c0.1-0.1,0.2-0.4,0.2-0.6c0.1-0.4,0.2-0.8,0.5-1.1c0.3-0.3,0.7-0.5,1-0.6c0.3-0.1,0.5-0.2,0.6-0.3c0.1-0.1,0.2-0.4,0.3-0.6
			c0.1-0.3,0.3-0.7,0.7-1c0.3-0.3,0.8-0.3,1.1-0.4c0.3,0,0.5-0.1,0.7-0.2c0.1-0.1,0.3-0.3,0.4-0.5c0.2-0.3,0.4-0.7,0.8-0.9
			c0.4-0.2,0.8-0.2,1.2-0.2c0.3,0,0.5,0,0.7-0.1c0.2-0.1,0.3-0.3,0.5-0.5c0.2-0.3,0.5-0.6,0.9-0.8c0.4-0.2,0.8-0.1,1.2-0.1
			c0.3,0,0.5,0.1,0.7,0c0.2-0.1,0.4-0.2,0.6-0.4c0.3-0.2,0.6-0.5,1-0.6c0.4-0.1,0.8,0,1.2,0.1c0.3,0.1,0.5,0.1,0.7,0.1
			c0.2,0,0.4-0.2,0.6-0.3c0.3-0.2,0.7-0.4,1.1-0.5c0.4,0,0.8,0.1,1.2,0.3c0.2,0.1,0.5,0.2,0.7,0.2c0.2,0,0.4-0.1,0.7-0.2
			c0.3-0.2,0.7-0.3,1.2-0.3c0.4,0,0.8,0.3,1.1,0.5c0.2,0.1,0.4,0.3,0.6,0.3c0.2,0,0.4,0,0.7-0.1c0.4-0.1,0.8-0.2,1.2-0.1
			c0.4,0.1,0.7,0.4,1,0.6c0.2,0.2,0.4,0.3,0.6,0.4c0.2,0.1,0.4,0,0.7,0c0.4,0,0.8-0.1,1.2,0.1c0.4,0.2,0.7,0.5,0.9,0.8
			c0.2,0.2,0.3,0.4,0.5,0.5c0.2,0.1,0.4,0.1,0.7,0.1c0.4,0,0.8,0,1.2,0.2c0.4,0.2,0.6,0.6,0.8,0.9c0.1,0.2,0.3,0.4,0.4,0.5
			c0.1,0.1,0.4,0.1,0.7,0.2c0.4,0.1,0.8,0.1,1.1,0.4c0.3,0.3,0.5,0.7,0.7,1c0.1,0.2,0.2,0.5,0.3,0.6c0.1,0.1,0.4,0.2,0.6,0.3
			c0.4,0.1,0.8,0.3,1,0.6c0.3,0.3,0.4,0.7,0.5,1.1c0.1,0.3,0.1,0.5,0.2,0.6l-0.8,0.6c-0.2-0.3-0.3-0.7-0.4-1
			c-0.1-0.3-0.1-0.5-0.3-0.7c-0.1-0.1-0.4-0.2-0.6-0.3c-0.3-0.1-0.7-0.2-1-0.5c-0.3-0.3-0.4-0.6-0.6-0.9c-0.1-0.2-0.2-0.5-0.4-0.6
			c-0.1-0.1-0.4-0.2-0.7-0.2c-0.3-0.1-0.7-0.1-1-0.4c-0.3-0.2-0.5-0.5-0.7-0.8c-0.2-0.2-0.3-0.5-0.4-0.6c-0.2-0.1-0.4-0.1-0.7-0.1
			c-0.3,0-0.7,0-1.1-0.2c-0.3-0.2-0.6-0.5-0.8-0.7c-0.2-0.2-0.4-0.4-0.5-0.5c-0.2-0.1-0.4,0-0.7,0c-0.3,0-0.7,0.1-1.1,0
			c-0.4-0.1-0.7-0.4-0.9-0.6c-0.2-0.2-0.4-0.4-0.6-0.4c-0.2,0-0.4,0-0.7,0.1c-0.3,0.1-0.7,0.2-1.1,0.1c-0.4-0.1-0.7-0.3-1-0.4
			c-0.2-0.2-0.5-0.3-0.7-0.3c-0.2,0-0.4,0.1-0.7,0.2c-0.3,0.1-0.7,0.3-1.1,0.3c-0.4,0-0.7-0.2-1.1-0.3c-0.2-0.1-0.5-0.2-0.7-0.2
			c-0.2,0-0.4,0.2-0.7,0.3c-0.3,0.2-0.6,0.4-1,0.4c-0.4,0.1-0.8,0-1.1-0.1c-0.3-0.1-0.5-0.1-0.7-0.1c-0.2,0-0.4,0.2-0.6,0.4
			c-0.3,0.2-0.6,0.5-0.9,0.6c-0.4,0.1-0.8,0.1-1.1,0c-0.3,0-0.5-0.1-0.7,0c-0.2,0.1-0.3,0.3-0.5,0.5c-0.2,0.3-0.5,0.6-0.8,0.7
			c-0.3,0.2-0.7,0.2-1.1,0.2c-0.3,0-0.5,0-0.7,0.1c-0.2,0.1-0.3,0.3-0.4,0.6c-0.2,0.3-0.4,0.6-0.7,0.8c-0.3,0.2-0.7,0.3-1,0.4
			c-0.3,0.1-0.5,0.1-0.7,0.2c-0.1,0.1-0.2,0.4-0.4,0.6c-0.1,0.3-0.3,0.7-0.6,0.9c-0.3,0.3-0.7,0.4-1,0.5c-0.3,0.1-0.5,0.2-0.6,0.3
			c-0.1,0.1-0.2,0.4-0.3,0.7c-0.1,0.3-0.2,0.7-0.4,1c-0.2,0.3-0.6,0.5-0.9,0.6c-0.3,0.1-0.5,0.3-0.6,0.4c-0.1,0.1-0.1,0.4-0.2,0.7
			c0,0.3-0.1,0.7-0.3,1.1c-0.2,0.3-0.5,0.6-0.8,0.8c-0.2,0.2-0.4,0.3-0.5,0.5c-0.1,0.2-0.1,0.4-0.1,0.7c0,0.3,0,0.7-0.1,1.1
			c-0.1,0.4-0.4,0.6-0.7,0.9C9,22.8,8.8,23,8.7,23.2c-0.1,0.2,0,0.4,0.1,0.7c0.1,0.3,0.1,0.7,0.1,1.1c-0.1,0.4-0.3,0.7-0.5,1
			c-0.2,0.2-0.3,0.4-0.4,0.6c0,0.2,0.1,0.4,0.2,0.7c0.1,0.3,0.2,0.7,0.2,1.1c0,0.4-0.2,0.7-0.4,1c-0.1,0.3-0.3,0.5-0.3,0.7
			s0.1,0.4,0.3,0.7c0.2,0.3,0.3,0.6,0.4,1c0,0.4-0.1,0.8-0.2,1.1c-0.1,0.3-0.2,0.5-0.2,0.7c0,0.2,0.2,0.4,0.4,0.6
			c0.2,0.3,0.4,0.6,0.5,1c0.1,0.4,0,0.8-0.1,1.1c-0.1,0.3-0.1,0.5-0.1,0.7c0.1,0.2,0.2,0.4,0.4,0.6c0.2,0.2,0.5,0.5,0.7,0.9
			c0.1,0.4,0.1,0.7,0.1,1.1c0,0.3,0,0.5,0.1,0.7c0.1,0.2,0.3,0.3,0.5,0.5c0.3,0.2,0.6,0.4,0.8,0.8c0.2,0.3,0.2,0.7,0.3,1.1
			c0,0.3,0.1,0.5,0.2,0.7c0.1,0.1,0.3,0.3,0.6,0.4c0.3,0.2,0.6,0.3,0.9,0.6c0.2,0.3,0.3,0.7,0.4,1c0.1,0.3,0.1,0.5,0.3,0.7
			c0.1,0.1,0.4,0.2,0.6,0.3c0.3,0.1,0.7,0.2,1,0.5c0.3,0.3,0.4,0.6,0.6,0.9c0.1,0.3,0.2,0.5,0.4,0.6c0.1,0.1,0.4,0.2,0.7,0.2
			c0.3,0.1,0.7,0.1,1,0.4c0.3,0.2,0.5,0.5,0.7,0.8c0.2,0.2,0.3,0.5,0.4,0.6c0.2,0.1,0.4,0.1,0.7,0.1c0.3,0,0.7,0,1.1,0.2
			c0.3,0.2,0.6,0.5,0.8,0.7c0.2,0.2,0.4,0.4,0.5,0.5c0.2,0.1,0.4,0,0.7,0c0.3,0,0.7-0.1,1.1,0c0.4,0.1,0.7,0.4,0.9,0.6
			c0.2,0.2,0.4,0.4,0.6,0.4c0.2,0,0.4,0,0.7-0.1c0.3-0.1,0.7-0.2,1.1-0.1c0.4,0.1,0.7,0.3,1,0.4c0.2,0.2,0.5,0.3,0.7,0.3
			c0.2,0,0.4-0.1,0.7-0.2c0.3-0.1,0.7-0.3,1.1-0.3c0.4,0,0.7,0.2,1.1,0.3c0.2,0.1,0.5,0.2,0.7,0.2c0.2,0,0.4-0.2,0.6-0.3
			c0.3-0.2,0.6-0.4,1-0.4c0.4-0.1,0.8,0,1.1,0.1c0.3,0.1,0.5,0.1,0.7,0.1c0.2,0,0.4-0.2,0.6-0.4c0.3-0.2,0.6-0.5,0.9-0.6
			c0.4-0.1,0.8-0.1,1.1,0c0.3,0,0.5,0.1,0.7,0c0.2-0.1,0.3-0.3,0.5-0.5c0.2-0.3,0.5-0.6,0.8-0.7c0.3-0.2,0.7-0.2,1.1-0.2
			c0.3,0,0.6,0,0.7-0.1c0.2-0.1,0.3-0.3,0.4-0.6c0.2-0.3,0.4-0.6,0.7-0.8c0.3-0.2,0.7-0.3,1-0.4c0.3-0.1,0.5-0.1,0.7-0.2
			c0.1-0.1,0.2-0.4,0.4-0.6c0.1-0.3,0.3-0.7,0.6-0.9c0.3-0.3,0.7-0.4,1-0.5c0.3-0.1,0.5-0.2,0.6-0.3c0.1-0.1,0.2-0.4,0.3-0.7
			c0.1-0.3,0.2-0.7,0.4-1c0.2-0.3,0.6-0.5,0.9-0.6c0.3-0.1,0.5-0.3,0.6-0.4c0.1-0.1,0.1-0.4,0.2-0.7c0-0.3,0.1-0.7,0.3-1.1
			c0.2-0.3,0.5-0.6,0.8-0.8c0.2-0.2,0.4-0.3,0.5-0.5C52,40,52,39.7,52,39.4c0-0.3,0-0.7,0.1-1.1c0.1-0.4,0.4-0.6,0.7-0.9
			c0.2-0.2,0.4-0.4,0.4-0.6c0.1-0.2,0-0.4-0.1-0.7c-0.1-0.3-0.1-0.7-0.1-1.1c0.1-0.4,0.3-0.7,0.5-1c0.2-0.2,0.3-0.4,0.4-0.6
			c0-0.2-0.1-0.4-0.2-0.7c-0.1-0.3-0.2-0.7-0.2-1.1c0-0.4,0.2-0.7,0.4-1c0.1-0.3,0.3-0.5,0.3-0.7h1c0,0.4-0.2,0.8-0.4,1.1
			c-0.1,0.2-0.2,0.5-0.3,0.6c0,0.2,0.1,0.4,0.2,0.7c0.1,0.4,0.3,0.8,0.2,1.2c-0.1,0.4-0.3,0.8-0.5,1.1c-0.2,0.2-0.3,0.4-0.3,0.6
			c0,0.2,0,0.4,0.1,0.7c0.1,0.4,0.2,0.8,0,1.2c-0.1,0.4-0.4,0.7-0.7,1c-0.2,0.2-0.4,0.4-0.4,0.5c-0.1,0.2-0.1,0.4,0,0.7
			c0,0.4,0,0.8-0.2,1.2c-0.2,0.4-0.5,0.6-0.8,0.9c-0.2,0.2-0.4,0.3-0.5,0.5c-0.1,0.2-0.1,0.4-0.1,0.7c0,0.4-0.1,0.8-0.3,1.1
			c-0.2,0.4-0.6,0.6-1,0.7c-0.2,0.1-0.5,0.2-0.6,0.4c-0.1,0.1-0.2,0.4-0.2,0.6c-0.1,0.4-0.2,0.8-0.5,1.1c-0.3,0.3-0.7,0.5-1,0.6
			c-0.3,0.1-0.5,0.2-0.6,0.3c-0.1,0.1-0.2,0.4-0.3,0.6c-0.1,0.3-0.3,0.7-0.7,1c-0.3,0.3-0.8,0.3-1.1,0.4c-0.3,0-0.5,0.1-0.7,0.2
			c-0.1,0.1-0.3,0.3-0.4,0.5c-0.2,0.3-0.4,0.7-0.8,0.9c-0.4,0.2-0.8,0.2-1.2,0.2c-0.3,0-0.5,0-0.7,0.1c-0.2,0.1-0.3,0.3-0.5,0.5
			c-0.2,0.3-0.5,0.6-0.9,0.8c-0.4,0.2-0.8,0.1-1.2,0.1c-0.3,0-0.5-0.1-0.7,0c-0.2,0.1-0.4,0.2-0.6,0.4c-0.3,0.2-0.6,0.5-1,0.6
			c-0.4,0.1-0.8,0-1.2-0.1c-0.3-0.1-0.5-0.1-0.7-0.1c-0.2,0-0.4,0.2-0.6,0.3c-0.3,0.2-0.7,0.4-1.1,0.5c-0.4,0-0.8-0.1-1.2-0.3
			c-0.2-0.1-0.5-0.2-0.7-0.2c-0.2,0-0.4,0.1-0.7,0.2C30,54.1,29.6,54.2,29.3,54.2z"/>
	</g>
	<g>
		<path fill="#193642" d="M62.4,27.5h-1c0-0.2-0.1-0.4-0.3-0.7c-0.2-0.3-0.3-0.6-0.4-1c0-0.4,0.1-0.8,0.2-1.1
			c0.1-0.3,0.2-0.5,0.2-0.7c0-0.2-0.2-0.4-0.4-0.6c-0.2-0.3-0.4-0.6-0.5-1c-0.1-0.4,0-0.8,0.1-1.1c0.1-0.3,0.1-0.5,0.1-0.7
			c-0.1-0.2-0.2-0.4-0.4-0.6c-0.2-0.2-0.5-0.5-0.7-0.9c-0.1-0.4-0.1-0.7-0.1-1.1c0-0.3,0-0.5-0.1-0.7c-0.1-0.2-0.3-0.3-0.5-0.5
			c-0.3-0.2-0.6-0.4-0.8-0.8c-0.2-0.3-0.2-0.7-0.3-1.1c0-0.3-0.1-0.5-0.2-0.7c-0.1-0.1-0.3-0.3-0.6-0.4c-0.3-0.2-0.6-0.3-0.9-0.6
			l0.8-0.6c0.1,0.1,0.3,0.3,0.6,0.4c0.3,0.2,0.7,0.4,1,0.7c0.2,0.4,0.3,0.8,0.3,1.1c0,0.3,0.1,0.5,0.1,0.7c0.1,0.2,0.3,0.3,0.5,0.5
			c0.3,0.2,0.6,0.5,0.8,0.9c0.2,0.4,0.2,0.8,0.2,1.2c0,0.3,0,0.5,0,0.7c0.1,0.2,0.2,0.3,0.4,0.5c0.3,0.3,0.6,0.6,0.7,1
			c0.1,0.4,0,0.8,0,1.2c-0.1,0.3-0.1,0.5-0.1,0.7c0,0.2,0.2,0.4,0.3,0.6c0.2,0.3,0.5,0.6,0.5,1.1c0.1,0.4-0.1,0.8-0.2,1.2
			c-0.1,0.3-0.2,0.5-0.2,0.7c0,0.2,0.1,0.4,0.3,0.6C62.2,26.7,62.4,27.1,62.4,27.5z"/>
	</g>
	<g>
		<g>
			<path fill="#E4E4E4" d="M14.6,34c-0.1,0-0.1,0-0.2-0.1c-0.2-0.6-0.8-0.8-1.4-0.6s-0.8,0.8-0.6,1.4c0,0.1,0,0.1-0.1,0.2
				c-0.6,0.2-0.8,0.8-0.6,1.4c0.2,0.6,0.8,0.8,1.4,0.6c0.1,0,0.1,0,0.2,0.1c0.2,0.6,0.8,0.8,1.4,0.6c0.6-0.2,0.8-0.8,0.6-1.4
				c0-0.1,0-0.1,0.1-0.2c0.6-0.2,0.8-0.8,0.6-1.4C15.8,34.1,15.2,33.8,14.6,34z M14.1,36.2c-0.4,0.1-0.9-0.1-1-0.5
				c-0.1-0.4,0.1-0.9,0.5-1c0.4-0.1,0.9,0.1,1,0.5C14.7,35.6,14.5,36,14.1,36.2z"/>
		</g>
		<g>
			<path fill="#04202D" d="M14.3,33.9c-0.1,0-0.1,0-0.2-0.1c-0.2-0.6-0.8-0.8-1.4-0.6c-0.6,0.2-0.8,0.8-0.6,1.4c0,0.1,0,0.1-0.1,0.2
				c-0.6,0.2-0.8,0.8-0.6,1.4c0.2,0.6,0.8,0.8,1.4,0.6c0.1,0,0.1,0,0.2,0.1c0.2,0.6,0.8,0.8,1.4,0.6c0.6-0.2,0.8-0.8,0.6-1.4
				c0-0.1,0-0.1,0.1-0.2c0.6-0.2,0.8-0.8,0.6-1.4C15.5,34,14.9,33.7,14.3,33.9z M13.8,36c-0.4,0.1-0.9-0.1-1-0.5
				c-0.1-0.4,0.1-0.9,0.5-1c0.4-0.1,0.9,0.1,1,0.5C14.5,35.4,14.3,35.9,13.8,36z"/>
		</g>
	</g>
	<g>
		<g>
			<path fill="#E4E4E4" d="M57.1,19.8c-0.1,0-0.1,0-0.2-0.1c-0.2-0.6-0.8-0.8-1.4-0.6c-0.6,0.2-0.8,0.8-0.6,1.4c0,0.1,0,0.1-0.1,0.2
				c-0.6,0.2-0.8,0.8-0.6,1.4c0.2,0.6,0.8,0.8,1.4,0.6c0.1,0,0.1,0,0.2,0.1c0.2,0.6,0.8,0.8,1.4,0.6c0.6-0.2,0.8-0.8,0.6-1.4
				c0-0.1,0-0.1,0.1-0.2c0.6-0.2,0.8-0.8,0.6-1.4C58.3,19.8,57.7,19.6,57.1,19.8z M56.7,21.9c-0.4,0.1-0.9-0.1-1-0.5
				c-0.1-0.4,0.1-0.9,0.5-1c0.4-0.1,0.9,0.1,1,0.5C57.3,21.3,57.1,21.8,56.7,21.9z"/>
		</g>
		<g>
			<path fill="#04202D" d="M56.9,19.6c-0.1,0-0.1,0-0.2-0.1c-0.2-0.6-0.8-0.8-1.4-0.6c-0.6,0.2-0.8,0.8-0.6,1.4c0,0.1,0,0.1-0.1,0.2
				c-0.6,0.2-0.8,0.8-0.6,1.4c0.2,0.6,0.8,0.8,1.4,0.6c0.1,0,0.1,0,0.2,0.1c0.2,0.6,0.8,0.8,1.4,0.6c0.6-0.2,0.8-0.8,0.6-1.4
				c0-0.1,0-0.1,0.1-0.2c0.6-0.2,0.8-0.8,0.6-1.4C58,19.7,57.4,19.4,56.9,19.6z M56.4,21.8c-0.4,0.1-0.9-0.1-1-0.5
				c-0.1-0.4,0.1-0.9,0.5-1c0.4-0.1,0.9,0.1,1,0.5C57,21.2,56.8,21.6,56.4,21.8z"/>
		</g>
	</g>
	<g>
		<g>
			<path fill="#E4E4E4" d="M22.5,44.5c-0.1,0-0.1,0-0.2-0.1c-0.2-0.6-0.8-0.8-1.4-0.6c-0.6,0.2-0.8,0.8-0.6,1.4c0,0.1,0,0.1-0.1,0.2
				c-0.6,0.2-0.8,0.8-0.6,1.4c0.2,0.6,0.8,0.8,1.4,0.6c0.1,0,0.1,0,0.2,0.1c0.2,0.6,0.8,0.8,1.4,0.6c0.6-0.2,0.8-0.8,0.6-1.4
				c0-0.1,0-0.1,0.1-0.2c0.6-0.2,0.8-0.8,0.6-1.4C23.6,44.6,23,44.3,22.5,44.5z M22,46.7c-0.4,0.1-0.9-0.1-1-0.5
				c-0.1-0.4,0.1-0.9,0.5-1c0.4-0.1,0.9,0.1,1,0.5C22.6,46.1,22.4,46.5,22,46.7z"/>
		</g>
		<g>
			<path fill="#04202D" d="M22.2,44.4c-0.1,0-0.1,0-0.2-0.1c-0.2-0.6-0.8-0.8-1.4-0.6c-0.6,0.2-0.8,0.8-0.6,1.4c0,0.1,0,0.1-0.1,0.2
				c-0.6,0.2-0.8,0.8-0.6,1.4c0.2,0.6,0.8,0.8,1.4,0.6c0.1,0,0.1,0,0.2,0.1c0.2,0.6,0.8,0.8,1.4,0.6c0.6-0.2,0.8-0.8,0.6-1.4
				c0-0.1,0-0.1,0.1-0.2c0.6-0.2,0.8-0.8,0.6-1.4C23.4,44.5,22.7,44.2,22.2,44.4z M21.7,46.5c-0.4,0.1-0.9-0.1-1-0.5
				c-0.1-0.4,0.1-0.9,0.5-1c0.4-0.1,0.9,0.1,1,0.5C22.3,45.9,22.1,46.4,21.7,46.5z"/>
		</g>
	</g>
	<g>
		<g>
			<path fill="#E4E4E4" d="M49.9,34.7c-0.1,0-0.1,0-0.2-0.1c-0.2-0.6-0.8-0.8-1.4-0.6c-0.6,0.2-0.8,0.8-0.6,1.4c0,0.1,0,0.1-0.1,0.2
				c-0.6,0.2-0.8,0.8-0.6,1.4c0.2,0.6,0.8,0.8,1.4,0.6c0.1,0,0.1,0,0.2,0.1c0.2,0.6,0.8,0.8,1.4,0.6c0.6-0.2,0.8-0.8,0.6-1.4
				c0-0.1,0-0.1,0.1-0.2c0.6-0.2,0.8-0.8,0.6-1.4C51,34.8,50.4,34.5,49.9,34.7z M49.4,36.8c-0.4,0.1-0.9-0.1-1-0.5
				c-0.1-0.4,0.1-0.9,0.5-1c0.4-0.1,0.9,0.1,1,0.5C50,36.2,49.8,36.7,49.4,36.8z"/>
		</g>
		<g>
			<path fill="#04202D" d="M49.6,34.6c-0.1,0-0.1,0-0.2-0.1c-0.2-0.6-0.8-0.8-1.4-0.6c-0.6,0.2-0.8,0.8-0.6,1.4c0,0.1,0,0.1-0.1,0.2
				c-0.6,0.2-0.8,0.8-0.6,1.4c0.2,0.6,0.8,0.8,1.4,0.6c0.1,0,0.1,0,0.2,0.1c0.2,0.6,0.8,0.8,1.4,0.6c0.6-0.2,0.8-0.8,0.6-1.4
				c0-0.1,0-0.1,0.1-0.2c0.6-0.2,0.8-0.8,0.6-1.4C50.7,34.6,50.1,34.4,49.6,34.6z M49.1,36.7c-0.4,0.1-0.9-0.1-1-0.5
				c-0.1-0.4,0.1-0.9,0.5-1c0.4-0.1,0.9,0.1,1,0.5C49.7,36.1,49.5,36.6,49.1,36.7z"/>
		</g>
	</g>
	<g>
		<g>
			<path fill="#E4E4E4" d="M14.8,20.4c-0.1,0-0.1,0-0.2-0.1c-0.2-0.6-0.8-0.8-1.4-0.6c-0.6,0.2-0.8,0.8-0.6,1.4c0,0.1,0,0.1-0.1,0.2
				c-0.6,0.2-0.8,0.8-0.6,1.4c0.2,0.6,0.8,0.8,1.4,0.6c0.1,0,0.1,0,0.2,0.1c0.2,0.6,0.8,0.8,1.4,0.6s0.8-0.8,0.6-1.4
				c0-0.1,0-0.1,0.1-0.2c0.6-0.2,0.8-0.8,0.6-1.4C15.9,20.5,15.3,20.2,14.8,20.4z M14.3,22.6c-0.4,0.1-0.9-0.1-1-0.5
				c-0.1-0.4,0.1-0.9,0.5-1c0.4-0.1,0.9,0.1,1,0.5C14.9,22,14.7,22.4,14.3,22.6z"/>
		</g>
		<g>
			<path fill="#04202D" d="M14.5,20.3c-0.1,0-0.1,0-0.2-0.1c-0.2-0.6-0.8-0.8-1.4-0.6c-0.6,0.2-0.8,0.8-0.6,1.4c0,0.1,0,0.1-0.1,0.2
				c-0.6,0.2-0.8,0.8-0.6,1.4c0.2,0.6,0.8,0.8,1.4,0.6c0.1,0,0.1,0,0.2,0.1c0.2,0.6,0.8,0.8,1.4,0.6c0.6-0.2,0.8-0.8,0.6-1.4
				c0-0.1,0-0.1,0.1-0.2c0.6-0.2,0.8-0.8,0.6-1.4C15.7,20.4,15,20.1,14.5,20.3z M14,22.5c-0.4,0.1-0.9-0.1-1-0.5
				c-0.1-0.4,0.1-0.9,0.5-1c0.4-0.1,0.9,0.1,1,0.5C14.6,21.9,14.4,22.3,14,22.5z"/>
		</g>
	</g>
	<g>
		<g>
			<path fill="#E4E4E4" d="M41,11c-0.1,0-0.1,0-0.2-0.1c-0.2-0.6-0.8-0.8-1.4-0.6c-0.6,0.2-0.8,0.8-0.6,1.4c0,0.1,0,0.1-0.1,0.2
				c-0.6,0.2-0.8,0.8-0.6,1.4s0.8,0.8,1.4,0.6c0.1,0,0.1,0,0.2,0.1c0.2,0.6,0.8,0.8,1.4,0.6c0.6-0.2,0.8-0.8,0.6-1.4
				c0-0.1,0-0.1,0.1-0.2c0.6-0.2,0.8-0.8,0.6-1.4C42.1,11.1,41.5,10.8,41,11z M40.5,13.2c-0.4,0.1-0.9-0.1-1-0.5
				c-0.1-0.4,0.1-0.9,0.5-1c0.4-0.1,0.9,0.1,1,0.5C41.1,12.6,40.9,13,40.5,13.2z"/>
		</g>
		<g>
			<path fill="#04202D" d="M40.7,10.9c-0.1,0-0.1,0-0.2-0.1c-0.2-0.6-0.8-0.8-1.4-0.6c-0.6,0.2-0.8,0.8-0.6,1.4c0,0.1,0,0.1-0.1,0.2
				c-0.6,0.2-0.8,0.8-0.6,1.4c0.2,0.6,0.8,0.8,1.4,0.6c0.1,0,0.1,0,0.2,0.1c0.2,0.6,0.8,0.8,1.4,0.6c0.6-0.2,0.8-0.8,0.6-1.4
				c0-0.1,0-0.1,0.1-0.2c0.6-0.2,0.8-0.8,0.6-1.4C41.9,11,41.3,10.7,40.7,10.9z M40.2,13c-0.4,0.1-0.9-0.1-1-0.5
				c-0.1-0.4,0.1-0.9,0.5-1c0.4-0.1,0.9,0.1,1,0.5C40.8,12.5,40.6,12.9,40.2,13z"/>
		</g>
	</g>
	<g>
		<g>
			<path fill="#E4E4E4" d="M38.2,46.3c-0.1,0-0.1,0-0.2-0.1c-0.2-0.6-0.8-0.8-1.4-0.6s-0.8,0.8-0.6,1.4c0,0.1,0,0.1-0.1,0.2
				c-0.6,0.2-0.8,0.8-0.6,1.4c0.2,0.6,0.8,0.8,1.4,0.6c0.1,0,0.1,0,0.2,0.1c0.2,0.6,0.8,0.8,1.4,0.6c0.6-0.2,0.8-0.8,0.6-1.4
				c0-0.1,0-0.1,0.1-0.2c0.6-0.2,0.8-0.8,0.6-1.4C39.4,46.4,38.8,46.1,38.2,46.3z M37.7,48.4c-0.4,0.1-0.9-0.1-1-0.5
				c-0.1-0.4,0.1-0.9,0.5-1c0.4-0.1,0.9,0.1,1,0.5C38.3,47.8,38.1,48.3,37.7,48.4z"/>
		</g>
		<g>
			<path fill="#04202D" d="M37.9,46.2c-0.1,0-0.1,0-0.2-0.1c-0.2-0.6-0.8-0.8-1.4-0.6c-0.6,0.2-0.8,0.8-0.6,1.4c0,0.1,0,0.1-0.1,0.2
				c-0.6,0.2-0.8,0.8-0.6,1.4c0.2,0.6,0.8,0.8,1.4,0.6c0.1,0,0.1,0,0.2,0.1c0.2,0.6,0.8,0.8,1.4,0.6c0.6-0.2,0.8-0.8,0.6-1.4
				c0-0.1,0-0.1,0.1-0.2c0.6-0.2,0.8-0.8,0.6-1.4C39.1,46.3,38.5,46,37.9,46.2z M37.4,48.3c-0.4,0.1-0.9-0.1-1-0.5
				c-0.1-0.4,0.1-0.9,0.5-1c0.4-0.1,0.9,0.1,1,0.5C38.1,47.7,37.8,48.2,37.4,48.3z"/>
		</g>
	</g>
	<g>
		<g>
			<path fill="#E4E4E4" d="M25.2,10.1c-0.1,0-0.1,0-0.2-0.1c-0.2-0.6-0.8-0.8-1.4-0.6c-0.6,0.2-0.8,0.8-0.6,1.4c0,0.1,0,0.1-0.1,0.2
				c-0.6,0.2-0.8,0.8-0.6,1.4c0.2,0.6,0.8,0.8,1.4,0.6c0.1,0,0.1,0,0.2,0.1c0.2,0.6,0.8,0.8,1.4,0.6c0.6-0.2,0.8-0.8,0.6-1.4
				c0-0.1,0-0.1,0.1-0.2c0.6-0.2,0.8-0.8,0.6-1.4C26.4,10.2,25.8,9.9,25.2,10.1z M24.7,12.2c-0.4,0.1-0.9-0.1-1-0.5
				c-0.1-0.4,0.1-0.9,0.5-1c0.4-0.1,0.9,0.1,1,0.5C25.3,11.7,25.1,12.1,24.7,12.2z"/>
		</g>
		<g>
			<path fill="#04202D" d="M24.9,10c-0.1,0-0.1,0-0.2-0.1c-0.2-0.6-0.8-0.8-1.4-0.6c-0.6,0.2-0.8,0.8-0.6,1.4c0,0.1,0,0.1-0.1,0.2
				c-0.6,0.2-0.8,0.8-0.6,1.4c0.2,0.6,0.8,0.8,1.4,0.6c0.1,0,0.1,0,0.2,0.1c0.2,0.6,0.8,0.8,1.4,0.6c0.6-0.2,0.8-0.8,0.6-1.4
				c0-0.1,0-0.1,0.1-0.2c0.6-0.2,0.8-0.8,0.6-1.4C26.1,10.1,25.5,9.8,24.9,10z M24.4,12.1c-0.4,0.1-0.9-0.1-1-0.5
				c-0.1-0.4,0.1-0.9,0.5-1c0.4-0.1,0.9,0.1,1,0.5C25.1,11.5,24.9,12,24.4,12.1z"/>
		</g>
	</g>
</g>
</svg>
