<?xml version="1.0" encoding="utf-8"?>
<!-- Generator: Adobe Illustrator 18.0.0, SVG Export Plug-In . SVG Version: 6.00 Build 0)  -->
<!DOCTYPE svg PUBLIC "-//W3C//DTD SVG 1.1//EN" "http://www.w3.org/Graphics/SVG/1.1/DTD/svg11.dtd">
<svg version="1.1" id="Layer_2" xmlns="http://www.w3.org/2000/svg" xmlns:xlink="http://www.w3.org/1999/xlink" x="0px" y="0px"
	 viewBox="0 0 125.9 77.6" enable-background="new 0 0 125.9 77.6" xml:space="preserve">
<g>
	<polygon fill="#E4E4E4" points="118.4,4.5 118.4,71.1 8.4,71.1 8.4,77.6 124.9,77.6 124.9,51.1 125.9,50.8 124.9,4.4 	"/>
</g>
<g>
	<rect x="0" y="1.1" fill="#FFFFFF" width="121.7" height="73.3"/>
</g>
<g>
	<polygon fill="#E4E4E4" points="121.7,51.5 60,50.7 29.3,50.9 0,55.7 0,22.7 121.7,14.7 	"/>
</g>
<g>
	<polygon fill="#FFFFFF" points="121.7,46.7 0,51.7 0,1.1 121.7,1.1 	"/>
</g>
<g>
	<rect x="42.7" y="1" fill="#E4E4E4" width="2" height="73.4"/>
</g>
<g>
	<path fill="#E4E4E4" d="M21.9,73.5L20,72.8c0.1-0.4,3.8-9.6,13.4-17.2c2.7-2.1,1.4-6.4,1.4-6.4l1.9-0.6c0.1,0.2,1.7,5.6-2.1,8.6
		C25.5,64.4,21.9,73.4,21.9,73.5z"/>
</g>
<g>
	<path fill="#193642" d="M42.6,75.4c-0.6,0-1-0.4-1-1V1c0-0.6,0.4-1,1-1c0.6,0,1,0.4,1,1v73.4C43.6,75,43.2,75.4,42.6,75.4z"/>
</g>
<g>
	<path fill="#50656F" d="M43.1,74.9c-0.3,0-0.5-0.2-0.5-0.5V1.1c0-0.3,0.2-0.5,0.5-0.5c0.3,0,0.5,0.2,0.5,0.5v73.3
		C43.6,74.7,43.4,74.9,43.1,74.9z"/>
</g>
<g>
	<rect x="34" y="28.9" transform="matrix(0.7071 0.7071 -0.7071 0.7071 48.3123 -9.0161)" fill="#193642" width="2" height="49.8"/>
</g>
<g>

		<rect x="37.2" y="23.8" transform="matrix(0.7071 0.7071 -0.7071 0.7071 47.7387 -11.438)" fill="#50656F" width="1" height="56.2"/>
</g>
<g>
	<path fill="#E4E4E4" d="M26.7,48.3c0.1,0.5,0.1,0.8,0.1,0.8S26.8,48.7,26.7,48.3z"/>
</g>
<g>
	<path fill="#E4E4E4" d="M65.1,37.6c0-1.2,0.5-1.5,0.5-4c0-2-1.6-3.6-2.4-4.6c-3.6-2.2-30,23.2-30,23.2c0.4,0.1-0.5,1.5-0.1,1.5
		c2.2,0.1,1.8,2.6,2.8,4.5c1.3,2.5,2.8,5.2,5.6,5.7c0.3-0.4,0.8-0.5,1-0.5c0.1,0,0.9,0.1,1,0.6c2.1-0.1,4-0.9,5.5-2.1
		c1-0.7,1.3-0.9,2-1.2c2.3-0.9,6.5,0.5,9.1-1.3c3.6-2.6,1.8-5.5,4.4-9.2c1.7-2.4,2.2-4.8,2.2-7.4c0-0.7-0.2-1.4-0.4-1.9
		C66.1,39.8,65.1,38.8,65.1,37.6z"/>
</g>
<g>
	<path fill="#E4E4E4" d="M63.4,36.4c0-1,0.7-1.5,0.8-4c0.2-3-2.5-5.5-5.5-5.5c-1.1,0-3-0.4-4.2-2.1c-2-3.1-5.3-5.3-9.3-5.3
		c-4.1,0-7.7,2.3-9.5,5.7c-0.8,1.2-2.3,3.2-4,3.9c-2.5,1-5.6,1.1-6.1,6.6c-0.3,2.5,2.8,6,1.5,8.4c-2.9,5.4,1.1,9.9,5.4,10.3
		c2,0.1,2.3,1.9,3.3,3.7c1.4,2.7,4.3,4.6,7.6,4.6c2.1,0,4-0.7,5.5-2c0.9-0.6,1.2-0.8,1.9-1.1c2.1-0.8,6,0.5,8.4-1.2
		c3.3-2.4,1.7-5.1,4-8.6c1.5-2.2,2-4.5,2-6.9c0-0.7-0.2-1.5-0.5-2.3C64.5,39.5,63.4,38.5,63.4,36.4z"/>
</g>
<g>
	<path fill="#FFFFFF" d="M27.6,35.8c-0.1,0-0.1,0-0.2,0c-0.5-0.1-0.9-0.6-0.8-1.2c0.2-1.5,1-2.8,2.2-3.7c0.4-0.3,1.1-0.3,1.4,0.2
		c0.3,0.4,0.3,1.1-0.2,1.4c-0.8,0.6-1.3,1.4-1.4,2.4C28.5,35.4,28.1,35.8,27.6,35.8z"/>
</g>
<g>
	<path fill="#FFFFFF" d="M37.5,24.7c-0.1,0-0.2,0-0.3-0.1c-0.2-0.2-0.3-0.5-0.1-0.7c1.8-2.3,4.5-3.6,7.5-3.6c0.2,0,0.5,0.2,0.5,0.5
		c0,0.3-0.2,0.5-0.5,0.5c-2.6,0-5.1,1.2-6.7,3.3C37.8,24.7,37.7,24.7,37.5,24.7z"/>
</g>
<g>
	<path fill="#FFFFFF" d="M56.7,56c-0.3,0-0.6-0.2-0.8-0.4c-0.3-0.5-0.2-1.1,0.3-1.4c0.6-0.4,1.3-0.9,1.8-1.5c0.4-0.4,1-0.4,1.4,0
		c0.4,0.4,0.4,1,0,1.4c-0.7,0.6-1.4,1.2-2.1,1.7C57.1,55.9,56.9,56,56.7,56z"/>
</g>
<g>
	<path fill="#FFFFFF" d="M27.4,48.6c-0.3,0-0.5-0.2-0.5-0.5c0-1.3,0.4-2.5,1.2-3.5c0.2-0.2,0.5-0.3,0.7-0.1c0.2,0.2,0.3,0.5,0.1,0.7
		c-0.7,0.8-1,1.9-1,2.9C27.9,48.4,27.7,48.6,27.4,48.6C27.4,48.6,27.4,48.6,27.4,48.6z"/>
</g>
<g>
	<path fill="#E4E4E4" d="M121.7,74.4H56c0,0,5-9.3,13.7-18c0.9-0.9,8.2-8.3,8.2-8.3l-5.6,0.2c0,0,5.9-7.9,18.6-20.6
		s30.8-26.7,30.8-26.7V74.4z"/>
</g>
<g>
	<path fill="#E4E4E4" d="M55.6,36.3c0-0.1-0.1-0.3-0.3-0.3c-3.2-0.8-6.2-2.3-8.8-4.3c-0.1-0.1-0.3-0.1-0.4,0c-2.6,2-5.6,3.5-8.8,4.3
		c-0.1,0-0.2,0.1-0.3,0.3C37,36.9,37,37.5,37,38.1c0,0,0,0.1,0,0.1c0,0,0,0.1,0,0.1c0,0,0,0.1,0,0.1c0,0.8,0.1,1.7,0.2,2.5
		c0,0,0,0.1,0,0.1c0,0.1,0,0.1,0.1,0.2c1,4.8,4.3,8.8,9,10.5c0,0,0.1,0,0.1,0c0,0,0.1,0,0.1,0c5.6-2,9.3-7.3,9.3-13.2
		C55.8,37.8,55.8,37,55.6,36.3z M46.4,51c-1-0.4-1.9-0.9-2.8-1.4h2.8c0.2,0,0.4-0.2,0.4-0.4c0-0.2-0.2-0.4-0.4-0.4h-3.5
		c-0.1,0-0.1,0-0.2,0.1c-0.8-0.6-1.5-1.4-2.2-2.2h5.8c0.2,0,0.4-0.2,0.4-0.3c0-0.2-0.2-0.4-0.4-0.4h-6.3c0,0,0,0-0.1,0
		c-0.4-0.6-0.8-1.2-1.1-1.9h7.4c0.2,0,0.4-0.2,0.4-0.4c0-0.2-0.2-0.4-0.4-0.4h-7.8c-0.3-0.7-0.5-1.4-0.7-2.1h8.4
		c0.2,0,0.4-0.2,0.4-0.4c0-0.2-0.2-0.3-0.4-0.3h-8.6c-0.1-0.7-0.2-1.4-0.2-2.1h8.7c0.2,0,0.4-0.2,0.4-0.4c0-0.2-0.2-0.4-0.4-0.4
		h-8.7c0-0.4,0.1-0.9,0.1-1.3c0.7-0.2,1.4-0.4,2.1-0.7C40,36,40,36,40.1,36h6.3c0.2,0,0.4-0.2,0.4-0.4c0-0.2-0.2-0.3-0.4-0.3h-4.9
		c1.7-0.8,3.4-1.7,4.9-2.9c2.6,2,5.5,3.4,8.6,4.2c0.1,0.6,0.1,1.3,0.1,1.9C55.1,44.1,51.6,49.1,46.4,51z"/>
</g>
<g>
	<path fill="#E4E4E4" d="M26.2,48.2c0.3,3.3,3.2,5.8,6.3,6C32.5,51.8,28.4,51.9,26.2,48.2z"/>
</g>
<g>
	<path fill="#E4E4E4" d="M46.3,55.1c-7.8,0-13.7-5.7-13.7-13.3v-0.1c0-7.5,6.1-13.4,13.8-13.4c7.8,0,13.7,5.7,13.7,13.3v0.1
		C60.1,49.2,54.1,55.1,46.3,55.1z M46.4,28.8c-7.5,0-13.3,5.7-13.3,12.9v0.1c0,7.3,5.7,12.8,13.2,12.8c7.5,0,13.3-5.7,13.3-12.9
		v-0.1C59.6,34.3,54,28.8,46.4,28.8z"/>
</g>
<g>
	<path fill="#FFFFFF" d="M36.6,51.3c-2.6-2.5-4-5.9-4-9.5v-0.1c0-7.5,6.1-13.4,13.8-13.4c3.8,0,7.2,1.4,9.8,3.8l-0.3,0.4
		c-2.4-2.4-5.8-3.7-9.4-3.7c-7.5,0-13.3,5.7-13.3,12.9v0.1c0,3.5,1.4,6.8,3.8,9.2L36.6,51.3z"/>
</g>
<g>
	<path fill="#E4E4E4" d="M46.3,56.1c-8.4,0-14.7-6.2-14.7-14.3c0-8.2,6.5-14.5,14.8-14.5c8.4,0,14.8,6.2,14.8,14.3
		C61.2,49.7,54.7,56.1,46.3,56.1z M46.4,28.3c-7.8,0-13.8,5.9-13.8,13.4c0,7.7,5.9,13.4,13.7,13.4c7.8,0,13.8-5.9,13.8-13.4
		C60.2,34,54.3,28.3,46.4,28.3z"/>
</g>
<g>
	<path fill="#E4E4E4" d="M46.4,57.1c-4.4,0-8.4-1.6-11.3-4.4c-0.1-0.1-0.1-0.3,0-0.4c0.1-0.1,0.3-0.1,0.4,0c2.8,2.8,6.7,4.3,11,4.3
		c8.7,0,15.5-6.6,15.5-15v-0.1c0-4.1-1.6-7.9-4.4-10.7c-0.1-0.1-0.1-0.3,0-0.4c0.1-0.1,0.3-0.1,0.4,0c3,2.9,4.6,6.8,4.6,11v0.1
		C62.4,50.2,55.3,57.1,46.4,57.1z"/>
</g>
<g>
	<path fill="#FFFFFF" d="M43.4,26.8c-0.1,0-0.2-0.1-0.2-0.2c0-0.1,0.1-0.3,0.2-0.3c0.5-0.1,1-0.2,1.5-0.2c0.1,0,0.3,0.1,0.3,0.2
		c0,0.1-0.1,0.3-0.2,0.3C44.4,26.6,43.9,26.7,43.4,26.8C43.4,26.8,43.4,26.8,43.4,26.8z"/>
</g>
<g>
	<path fill="#FFFFFF" d="M31.9,35.8C31.8,35.8,31.8,35.8,31.9,35.8c-0.2-0.1-0.3-0.2-0.2-0.3c1.6-3.9,4.8-6.9,8.8-8.4
		c0.1,0,0.3,0,0.3,0.1c0,0.1,0,0.3-0.1,0.3c-3.9,1.5-6.9,4.4-8.5,8.1C32.1,35.8,32,35.8,31.9,35.8z"/>
</g>
<g>
	<path fill="#FFFFFF" d="M30.8,43.3c-0.1,0-0.2-0.1-0.2-0.2c0-0.5-0.1-0.9-0.1-1.4v-0.1c0-2.1,0.4-4.1,1.2-6
		c0.1-0.1,0.2-0.2,0.3-0.1c0.1,0.1,0.2,0.2,0.1,0.3c-0.8,1.8-1.2,3.8-1.2,5.8v0.1c0,0.5,0,0.9,0.1,1.4C31,43.1,30.9,43.2,30.8,43.3
		C30.8,43.3,30.8,43.3,30.8,43.3z"/>
</g>
<g>
	<path fill="#FFFFFF" d="M31.5,46.7c-0.1,0-0.2-0.1-0.2-0.2c-0.3-0.8-0.5-1.6-0.6-2.4c0-0.1,0.1-0.3,0.2-0.3c0.1,0,0.3,0.1,0.3,0.2
		c0.1,0.8,0.3,1.6,0.6,2.4C31.7,46.5,31.7,46.6,31.5,46.7C31.5,46.7,31.5,46.7,31.5,46.7z"/>
</g>
<g>
	<path fill="#FFFFFF" d="M46.3,56.1c-2.4,0-4.7-0.5-6.8-1.5l0.4-0.9c1.9,0.9,4.1,1.4,6.3,1.4c7.8,0,13.8-5.9,13.8-13.4
		c0-2.3-0.5-4.4-1.5-6.3l0.9-0.5c1.1,2,1.6,4.4,1.6,6.7C61.2,49.7,54.7,56.1,46.3,56.1z"/>
</g>
<g>
	<g>
		<path fill="#FFFFFF" d="M38.4,44.9c-0.6-1.3-1.8-4.7-1.4-8.6c0-0.1,0.1-0.2,0.1-0.3l0.2,0.2c0,0-0.1,0.1-0.1,0.1
			c-0.4,3.9,0.7,7.3,1.3,8.5L38.4,44.9z"/>
	</g>
	<g>
		<path fill="#FFFFFF" d="M46.5,51.7l-0.1-0.2c5.6-2,9.3-7.2,9.3-13c0-0.6-0.1-1.1-0.2-1.7c0-0.2-0.1-0.3-0.1-0.5l0.2,0
			c0,0.2,0.1,0.3,0.1,0.5c0.1,0.5,0.2,1.1,0.2,1.7C55.9,44.4,52.1,49.7,46.5,51.7z"/>
	</g>
	<g>
		<path fill="none" stroke="#FFFFFF" stroke-width="0.25" stroke-miterlimit="10" d="M38.5,44.9"/>
	</g>
	<g>
		<path fill="none" stroke="#FFFFFF" stroke-width="0.25" stroke-miterlimit="10" d="M55,36.6"/>
	</g>
	<g>
		<path fill="#FFFFFF" d="M41.7,35.4l-0.1-0.2c1.7-0.8,3.1-1.7,4.6-2.9l0.2,0.2C44.8,33.6,43.4,34.6,41.7,35.4z"/>
	</g>
	<g>
		<path fill="#FFFFFF" d="M37.8,36.7l-0.1-0.2c0.2,0,0.3-0.1,0.5-0.1c0.5-0.1,1.1-0.3,1.6-0.5l0,0l0.5,0h5.8c0.1,0,0.2-0.1,0.2-0.2
			h0.2c0,0.3-0.2,0.5-0.5,0.5l-6.3,0c-0.5,0.2-1.1,0.3-1.6,0.5C38.2,36.6,38,36.7,37.8,36.7z"/>
	</g>
	<g>
		<path fill="#FFFFFF" d="M46.3,38.7h-8.6v-0.2h8.6c0.1,0,0.2-0.1,0.2-0.2h0.2C46.7,38.5,46.5,38.7,46.3,38.7z"/>
	</g>
	<g>
		<path fill="#FFFFFF" d="M46.3,41.5H38v-0.2h8.3c0.1,0,0.2-0.1,0.2-0.2h0.2C46.7,41.3,46.5,41.5,46.3,41.5z"/>
	</g>
	<g>
		<path fill="#FFFFFF" d="M46.3,44.3h-7.3v-0.2h7.3c0.1,0,0.2-0.1,0.2-0.2h0.2C46.8,44.1,46.6,44.3,46.3,44.3z"/>
	</g>
	<g>
		<path fill="#FFFFFF" d="M46.3,46.9h-5.7v-0.2h5.7c0.1,0,0.2-0.1,0.2-0.2h0.2C46.7,46.7,46.5,46.9,46.3,46.9z"/>
	</g>
	<g>
		<path fill="#FFFFFF" d="M46.4,49.7h-2.8v-0.2h2.8c0.1,0,0.2-0.1,0.2-0.2h0.2C46.9,49.5,46.7,49.7,46.4,49.7z"/>
	</g>
</g>
<g>
	<g>
		<path fill="#98999A" d="M37.3,36.2L37.1,36c0.1-0.1,0.1-0.1,0.2-0.1c3.4-0.9,6.4-2.3,8.8-4.2l0.2,0.2c-2.5,1.9-5.5,3.4-8.9,4.2
			C37.4,36.1,37.3,36.1,37.3,36.2z"/>
	</g>
	<g>
		<g>
			<rect x="41.7" y="35.3" fill="#98999A" width="4.7" height="0.2"/>
		</g>
		<g>
			<rect x="37.7" y="37.9" fill="#98999A" width="8.7" height="0.2"/>
		</g>
		<g>
			<rect x="37.8" y="40.7" fill="#98999A" width="8.6" height="0.2"/>
		</g>
		<g>
			<rect x="38.6" y="43.4" fill="#98999A" width="7.8" height="0.2"/>
		</g>
		<g>
			<rect x="40.1" y="46" fill="#98999A" width="6.3" height="0.2"/>
		</g>
		<g>
			<rect x="42.7" y="48.7" fill="#98999A" width="3.7" height="0.2"/>
		</g>
		<g>
			<path fill="#98999A" d="M46.5,51.2L46.4,51c5.1-1.9,8.6-6.9,8.6-12.5c0-0.6,0-1.3-0.1-1.9l0.2,0c0.1,0.6,0.1,1.3,0.1,1.9
				C55.2,44.2,51.7,49.3,46.5,51.2z"/>
		</g>
	</g>
</g>
<g>
	<path fill="#E4E4E4" d="M63.4,36.5c0-1,0.7-1.6,0.8-4.1c0.1-1.3-0.4-2.6-1.2-3.5c0.7,2.1,0.2,3.9-0.1,5c-0.8,3.1-0.3,4.8,0.4,6.4
		c0.6,1.4,0,3.6-0.2,4.6c-0.6,2.9-1.7,7.6-4.4,10.2c-2.3,2.2-6.1,2.4-8.3,2.4c-4.6,0-7.5,4.2-10.8,0.3c-3.7-4.4-5.7-3.1-5.7-3.1
		c0.9,0.7,1.2,2,1.9,3.2c1.4,2.7,4.3,4.6,7.6,4.6c2.1,0,4-0.7,5.5-2c0.9-0.6,1.2-0.8,1.9-1.1c2.1-0.8,6,0.5,8.4-1.2
		c3.3-2.4,1.7-5.1,4-8.6c1.5-2.2,2-4.5,2-6.9c0-0.9-0.2-1.6-0.5-2.4C64.5,39.4,63.4,38.5,63.4,36.5z"/>
</g>
</svg>
