<svg version="1.1" xmlns="http://www.w3.org/2000/svg" viewBox="0 0 102.9 100.1">

  <g>

  	<g>

  		<path fill="#FFFFFF" d="M63.7,100.1c-0.8,0-1.5-0.7-1.5-1.5V45.7c0-0.8,0.7-1.5,1.5-1.5c0.8,0,1.5,0.7,1.5,1.5v52.8C65.2,99.4,64.5,100.1,63.7,100.1z"/>

  	</g>

  </g>

  <g>

  	<path fill="#E4E4E4" d="M63.7,45.1c-0.3,0-0.6,0.3-0.6,0.6v52.6c0,0.3,0.3,0.6,0.6,0.6c0.3,0,0.6-0.3,0.6-0.6V45.7C64.2,45.4,64,45.1,63.7,45.1z"/>

  </g>

  <g>

  	<path fill="#99A6AB" d="M63.7,45.1c-0.3,0-0.6,0.3-0.6,0.6v52.6c0,0.3,0.3,0.6,0.6,0.6C63.7,98.4,63.7,45.5,63.7,45.1z"/>

  </g>

  <g>

  	<path fill="#FFFFFF" d="M63.6,16.2c-4.7,0-8.4,3.8-8.4,8.4c0,4.7,3.8,8.4,8.4,8.4c4.7,0,8.4-3.8,8.4-8.4C72,20,68.3,16.2,63.6,16.2

  		z"/>

  </g>

  <g>

  	<path fill="#99A6AB" d="M57.2,26.3c0-4.4,3.6-8,8-8c1.8,0,3.5,0.6,4.8,1.6c-1.5-1.9-3.8-3.2-6.4-3.2c-4.4,0-8,3.6-8,8c0,2.6,1.3,4.9,3.2,6.4C57.8,29.7,57.2,28.1,57.2,26.3z"/>

  </g>

  <g>

  	<path fill="#E4E4E4" d="M102.9,68.1l-1.8-1.8v0l-40.2,0.9l0,0l-1.5,1.5v0.1h-4.7v0h-0.1c0-0.8,0-1.6,0-2.4h3.8v0v-8.1v0h0l0,0h0l0,0h0v-0.2h-0.2l-1.7-1.7l-1.8-1.9h0V35.5v-0.1v-0.1h-0.1c-0.8-0.8-8-8-8.3-8.3c-0.1-0.1-0.2-0.2-0.2-0.3c0-0.1-0.1-0.1-0.1-0.2c0-0.1,0-0.1-0.1-0.2c0-0.1,0-0.2-0.1-0.3c0,0,0-0.1,0-0.1c0-0.1,0-0.2,0-0.2c0-0.1,0-0.1,0-0.2c0-0.4,0-8.2,0-10.6h0c0,0,0-0.2,0-0.5c0-0.1,0-0.2,0-0.2c0-0.3-0.2-0.6-0.5-0.7c-0.2-0.1-0.4-0.2-0.6-0.2c-1.2,0-3,0-3.9,0c-0.3,0-0.6,0.1-0.8,0.3c-0.2,0.2-0.4,0.4-0.4,0.7c0,0,0,0,0,0.1c-0.1,0.3,0,0.5,0,0.5h0c0,3.1,0,9.8,0,10.6c0,0,0,0,0,0c0,1-0.3,1.3-0.7,1.7c-0.3,0.3-7.2,7.2-8.1,8.1h-0.1v0.1c0,0,0,0,0,0h0v0.1v19.1h0l-3.5,3.5h-0.2v0.2h0l0,0h0.2v8.1h3.7v3.7v3.5h0c0,1.4,1.1,2.6,2.6,2.6c0.5,0,2.4,0,4.9,0l0,1c-0.3,0-0.6,0-0.9,0.1c-0.1,0-0.1,0-0.2,0c-0.3,0-0.6,0.1-0.8,0.2c0,0,0,0-0.1,0c-3.1,0.9-5.4,3.8-5.4,7.2v4.2h0.2c-0.1,0-0.2,0-0.2,0s0,0.4,0.4,0.4c0.4,0,2.4,0,2.8,0s0.4-0.4,0.4-0.4v-4.2c0-1.7,1.1-3.1,2.7-3.7c0.2-0.1,0.4-0.1,0.6-0.1c0.2,0,0.4-0.1,0.6-0.1c0.1,1.3,1.2,2.3,2.5,2.3c0.9,0,1.6,0,2.3,0c0,0,0.1,0,0.3,0c0,0,0,0,0,0c0.3,0,0.5,0,0.9,0c0.4,0,0.7-0.1,1.1-0.2c0.6-0.2,1.1-0.6,1.3-1.2c0.1-0.3,0.2-0.6,0.2-0.9c2.1,0,3.8,1.8,3.8,3.9v4.2v0h0c0,0.1,0,0.4,0.5,0.4c0.5,0,2.4,0,2.8,0c0.4,0,0.4-0.4,0.4-0.4v-4.2c0-4.1-3.3-7.5-7.4-7.5c0-0.5,0-0.9,0-1c2.5,0,4.4,0,4.9,0c0.8,0,1.3-0.2,1.8-0.6c0,0,0,0,0,0c0.5-0.4,0.7-1,0.8-1.7c0-0.1,0-0.2,0-0.2c0,0,0,0,0,0c0,0,0,0,0,0c0,0,0,0,0,0c0,0,0,0,0,0h0.1v0h4.7l1.5,1.5l0,0l40.2,0.9v0l1.8-1.8V68.1z M49.6,58.3L49.6,58.3l-2.1,0L49.6,58.3z"/>

  </g>

  <g>

  	<g>

  		<path fill="#E4E4E4" d="M12.8,6.3c-3.6,0-6.6,2.9-6.6,6.6c0,0,0,5.5,0,6.6c0,2,0.9,3.9,2.4,5.1c0,3,0,8.2,0,8.7c0,1.5,2.3,3.3,2.7,3.6c0.5,0.3,1.1,1.5,1.1,2.1c0,0.6,0,31.6,0,31.6h1.9h1.8V38.2c0,0,1.7-3.6,1.7-5c0-0.2,0-1.2,0-2.5c0-2.3,0-5.5,0-7.1c0.9-1.1,1.5-2.6,1.5-4.2c0-1,0-6.4,0-6.4c0-0.1,0-0.2,0-0.2C19.4,9.2,16.4,6.3,12.8,6.3z"/>

  	</g>

  	<g>

  		<path fill="#E4E4E4" d="M17.2,75.9l-0.9-5v0l-0.1-0.5h-3.8l-1,5.4h0.1c0,0,0,0.1,0,0.1c0,0.3,0.2,0.5,0.5,0.5h2.2h2.2h0.1C16.9,76.5,17.2,76.2,17.2,75.9C17.2,75.9,17.2,75.9,17.2,75.9C17.2,75.9,17.2,75.9,17.2,75.9z"/>

  	</g>

  </g>

  <g>

  	<path fill="#FFFFFF" d="M11.6,26.9c0,2.6-2.1,4.6-4.6,4.6s-4.6-2.1-4.6-4.6c0-0.7,0-10.7,0-10.7h9.3C11.6,16.2,11.6,26.2,11.6,26.9z"/>

  </g>

  <g>

  	<path fill="#E4E4E4" d="M11.6,26.9c0,2.6-2.1,4.6-4.6,4.6c0-2.4-0.4-15.4-0.4-15.4h5C11.6,16.2,11.6,26.2,11.6,26.9z"/>

  </g>

  <g>

  	<circle fill="#193642" cx="6.6" cy="6.6" r="6.6"/>

  </g>

  <g>

  	<path fill="#FFFFFF" d="M47.3,56.9H23.7v9.5h0c0,1.4,1.1,2.6,2.6,2.6c1.4,0,17.1,0,18.5,0c1.4,0,2.6-1.1,2.6-2.6

  		C47.3,66,47.3,56.9,47.3,56.9z"/>

  </g>

  <g>

  	<rect x="47.4" y="61.5" fill="#E4E4E4" width="8.7" height="4.8"/>

  </g>

  <g>

  	<path fill="#FFFFFF" d="M38.6,18.3c0-0.5,0-10.7,0-11.2S38,6.2,37.4,6.2c-1.3,0-3.4,0-3.8,0c-0.7,0-1.2,0.4-1.2,0.9

  		c0,2.7,0,10.4,0,11.2c0,0,0,0,0,0L38.6,18.3C38.6,18.3,38.6,18.3,38.6,18.3z"/>

  </g>

  <g>

  	<polygon fill="#E4E4E4" points="47.4,47.3 23.6,47.3 19.8,51.1 40.2,51.1 51.2,51.1 	"/>

  </g>

  <g>

  	<rect x="23.5" y="28.2" fill="#FFFFFF" width="24" height="19.2"/>

  </g>

  <g>

  	<rect x="20" y="51.1" fill="#FFFFFF" width="31.2" height="8.1"/>

  </g>

  <g>

  	<path fill="#4F656F" d="M38.6,7.7h-6.3c0,0-0.1-1.6,1.2-1.6c0.9,0,2.7,0,3.9,0C38.7,6.2,38.6,7.7,38.6,7.7z"/>

  </g>

  <g>

  	<path fill="#E4E4E4" d="M39.1,19.7c-0.4-0.4-0.5-0.9-0.5-1.4h-6.2c0,1-0.3,1.3-0.7,1.7c-0.3,0.3-8.2,8.2-8.2,8.2h23.9v0

  		C47.5,28.2,39.4,20.1,39.1,19.7z"/>

  </g>

  <g>

  	<g>

  		<path fill="#FFFFFF" d="M27.3,81.7h-3.6v-4.2c0-4.1,3.4-7.5,7.5-7.5v3.6c-2.1,0-3.9,1.7-3.9,3.9V81.7z"/>

  	</g>

  </g>

  <g>

  	<g>

  		<path fill="#E4E4E4" d="M27.3,81.7c0,0-0.1,0.4-0.4,0.4s-2.4,0-2.8,0c-0.4,0-0.4-0.4-0.4-0.4s1.7,0,1.7-1.6c0-0.9,0-2.7,0-2.7

  			c0-4.1,3.1-5.2,4.8-5.7c1-0.3,1.1-1.8,1.1-1.8v3.6c-2.1,0-3.9,1.7-3.9,3.9V81.7z"/>

  	</g>

  </g>

  <g>

  	<g>

  		<path fill="#E4E4E4" d="M43.6,81.7c0,0,0,0.4,0.5,0.4c0.5,0,2.4,0,2.8,0c0.4,0,0.4-0.4,0.4-0.4v-4.2c0-4.1-3.4-7.5-7.5-7.5v3.6

  			c2.1,0,3.9,1.7,3.9,3.9V81.7z"/>

  	</g>

  </g>

  <g>

  	<g>

  		<path fill="#E4E4E4" d="M43.6,81.7l2-1.1v-3.1c0-5.7-5.8-5.8-5.8-5.8v2c2.1,0,3.9,1.7,3.9,3.9V81.7z"/>

  	</g>

  </g>

  <g>

  	<polygon fill="#193642" points="95.7,60.9 93.8,59.1 92.1,60.8 89.7,64.4 93.8,68.6 95.7,66.7 	"/>

  </g>

  <g>

  	<polygon fill="#193642" points="52.1,66.2 53.6,67.7 55,66.4 57,63.4 53.6,59.9 52.1,61.4 	"/>

  </g>

  <g>

  	<polygon fill="#4F616C" points="93.8,68.6 53.6,67.7 53.6,59.9 93.8,59.1 	"/>

  </g>

  <g>

  	<rect x="53.8" y="63.7" fill="#193642" width="39.9" height="2.5"/>

  </g>

  <g>

  	<path fill="#FFFFFF" d="M39.8,68.9h-8.7l0,4.4c0,1.4,1.1,2.6,2.6,2.6c1.4,0,2.1,0,3.5,0c1.4,0,2.6-1.1,2.6-2.6L39.8,68.9z"/>

  </g>

  <g>

  	<path fill="#96A7AB" d="M66.6,22.4c-0.2-0.2-0.4-0.1-0.6,0L64.5,24c-0.2-0.1-0.4-0.2-0.6-0.2c-0.6,0-1.1,0.5-1.1,1.1

  		c0,0.2,0.1,0.5,0.2,0.6l-3,3.2c0,0,0,0.1,0,0.1c0,0,0.1,0,0.1,0l3.2-3c0.2,0.1,0.3,0.2,0.5,0.2c0.6,0,1.1-0.5,1.1-1.1

  		c0-0.2,0-0.3-0.1-0.5l1.7-1.5c0,0,0,0,0,0C66.8,22.8,66.8,22.5,66.6,22.4z"/>

  </g>

  <g>

  	<path fill="#193642" d="M66.3,22.7l-6.4,5.9c0,0-0.1,0-0.1,0c0,0,0-0.1,0-0.1l5.9-6.4c0.2-0.2,0.4-0.2,0.6,0

  		C66.5,22.2,66.5,22.5,66.3,22.7C66.3,22.7,66.3,22.7,66.3,22.7z"/>

  </g>

  <g>

  	<path fill="#193642" d="M63.6,23.5c-0.6,0-1.1,0.5-1.1,1.1c0,0.6,0.5,1.1,1.1,1.1c0.6,0,1.1-0.5,1.1-1.1

  		C64.7,24,64.2,23.5,63.6,23.5z M63.6,25.5c-0.4,0-0.8-0.4-0.8-0.8c0-0.4,0.4-0.8,0.8-0.8c0.4,0,0.8,0.4,0.8,0.8

  		C64.4,25.1,64.1,25.5,63.6,25.5z"/>

  </g>

  <g>

  	<circle fill="#F7F7F7" cx="63.6" cy="24.7" r="0.8"/>

  </g>

  <g>

  	<path fill="#E4E4E4" d="M63.6,15.6c-5,0-9.1,4.1-9.1,9.1c0,5,4.1,9.1,9.1,9.1c5,0,9.1-4.1,9.1-9.1C72.7,19.6,68.6,15.6,63.6,15.6z

  		 M63.6,32.2c-4.2,0-7.6-3.4-7.6-7.6c0-4.2,3.4-7.6,7.6-7.6c4.2,0,7.6,3.4,7.6,7.6C71.2,28.9,67.8,32.2,63.6,32.2z"/>

  </g>

  <g>

  	<path fill="#99A6AB" d="M2.9,28.4v-2.1l2-3.9h3.8c0,0,0.2-0.1,0.5,0.4c0.2,0.3,1.8,3.2,1.8,3.2v2.5H2.9z"/>

  </g>

  <g>

  	<polygon fill="#E4E4E4" points="5,31.9 2.9,28.4 4.9,24.6 9.1,24.8 11.1,28.4 9.1,31.9 	"/>

  </g>

  <g>

  	<circle fill="#FFFFFF" cx="7.1" cy="28.4" r="2.9"/>

  </g>

  <g>

  	<path fill="#E4E4E4" d="M9.9,28.4c0-1.6-1.3-2.9-2.9-2.9c0,0.5,0,4.6,0,5.7C8.7,31.3,9.9,30,9.9,28.4z"/>

  </g>

  <g>

  	<path fill="#E4E4E4" d="M8.8,22.3c0.2,0,0.3,0.1,0.3,0.3v1.9c0,0.2-0.1,0.3-0.3,0.3H5.1c-0.2,0-0.3-0.1-0.3-0.3v-1.9

  		c0-0.2,0.1-0.3,0.3-0.3H8.8z"/>

  </g>

  <g>

  	<path fill="#FFFFFF" d="M3,25.7c-0.1,0.2-0.2,0.4-0.2,0.6v2c0,0.2,0,0.2,0.1,0l1.7-3c0.1-0.2,0.2-0.4,0.2-0.6l0-2

  		c0-0.2-0.1-0.2-0.2,0L3,25.7z"/>

  </g>

  <g>

  	<circle fill="#E4E4E4" cx="7.1" cy="29.1" r="2.9"/>

  </g>

  <g>

  	<path fill="#E4E4E4" d="M46.5,66.4c0,1.3-0.8,2.6-2.6,2.6c-1.4,0-2.5,0-4.4,0c-2,0-2.5-6.1-9-6.1c-7.2,0-6.9,0-6.9,0v-3.7h22.8

  		C46.5,59.2,46.5,66,46.5,66.4z"/>

  </g>

  <g>

  	<rect x="47.3" y="61.5" fill="#E4E4E4" width="4.7" height="1.3"/>

  </g>

  <g>

  	<rect x="47.3" y="64.9" fill="#E4E4E4" width="4.8" height="1.3"/>

  </g>

  <g>

  	<path fill="#E4E4E4" d="M39.4,73.3c0,0.9-0.5,2.7-3,2.7c-0.2,0-0.4,0-0.4,0s0.3-0.7,0.3-1.4c0-2.1-2.1-2.8-3-2.8

  		c-1.4,0-2.2,0.9-2.2,0.9v-3.7h8.2L39.4,73.3z"/>

  </g>

  <g>

  	<path fill="#FFFFFF" d="M9,64.2V29.6c0-1-0.8-1.9-1.9-1.9s-1.9,0.8-1.9,1.9v34.6H9z"/>

  </g>

  <g>

  	<path fill="#E4E4E4" d="M38.6,18.3c0-0.5,0-10.6,0-10.6s-0.1-1.5-1.2-1.5c-0.6,0-1.8,0-1.8,0s0,11.1,0,12.1S35.3,19.6,35,20

  		c-0.3,0.3,4.1,8.2,4.1,8.2v19.2l3.3,3.7l0,8.1h-0.9c0,0,0,6.8,0,7.1c0,1.6-2.1,2.6-2.1,2.6c0,0-1.6,0-1.6,0s0,2.5,0,3.8

  		c0,1.8-1.3,3.2-1.3,3.2c1,0,2.7-0.4,2.9-2.3c0.2,0,0.5,0,0.5,0V70l-0.2,0v-1.1c0,0,3.4,0,4.3,0c2.6,0,2.5-2.6,2.5-2.6v-7.1h4.2

  		v-8.1L47,47.3V28.2l0.4,0c0,0-8.1-8.1-8.4-8.4C38.7,19.4,38.6,18.8,38.6,18.3z"/>

  </g>

  <g opacity="0.61">

  	<path fill="#FFFFFF" d="M33.6,6.2c-0.7,0-1.2,0.4-1.2,0.9c0,0.1,0,0.2,0,0.3h3.2V6.2C34.8,6.2,33.9,6.2,33.6,6.2z"/>

  </g>

  <g>

  	<g>

  		<path fill="#E4E4E4" d="M9.4,70.2H4.8c-0.3,0-0.5-0.2-0.5-0.5c0-0.3,0.2-0.5,0.5-0.5h4.5c0.3,0,0.5,0.2,0.5,0.5

  			C9.9,70,9.7,70.2,9.4,70.2z"/>

  	</g>

  </g>

  <g>

  	<polygon fill="#FFFFFF" points="9,64.2 5.2,64.2 4.2,69.6 9.9,69.6 	"/>

  </g>

  <g>

  	<path fill="#E4E4E4" d="M8.5,64.7c0-0.2-0.1-0.3-0.3-0.3H7.1v5h1.7C8.9,69.4,9,69.2,9,69L8.5,64.7z"/>

  </g>

  <g>

  	<path fill="#E4E4E4" d="M5.3,64.7c0-0.2,0.1-0.3,0.3-0.3h0.2l-0.4,5H4.9c-0.2,0-0.3-0.1-0.3-0.3L5.3,64.7z"/>

  </g>

  <g>

  	<path fill="#E4E4E4" d="M9,64.2V29.6c0-1-0.8-1.9-1.9-1.9c0,1.5,0,36.4,0,36.4H9z"/>

  </g>

  <g>

  	<path fill="#E4E4E4" d="M9,31.5v-1.8c0-1-0.8-1.9-1.9-1.9s-1.9,0.8-1.9,1.9c0,0,0.4,0.6,1.9,0.6C8.6,30.2,9,31.5,9,31.5z"/>

  </g>

  <g>

  	<path fill="#E4E4E4" d="M2.4,18.2c0,0,1.5,3.1,4.4,3.1c1.9,0,4.6,1.5,4.9,3.1c0-1.7,0-8.3,0-8.3H2.4V18.2z"/>

  </g>

  <g>

  	<path fill="#193642" d="M13.1,13.1c0,3.6-2.9,6.6-6.6,6.6S0,16.7,0,13.1c0-1.1,0-6.6,0-6.6s4,0,6.6,0c2.6,0,6.6,0.2,6.6,0.2

  		S13.1,12.1,13.1,13.1z"/>

  </g>

  <g>

  	<path fill="#04202D" d="M13.1,13.1c0,3.6-2.9,6.6-6.6,6.6c0-2.4,0-13.1,0-13.1h6.6C13.1,6.6,13.1,12.1,13.1,13.1z"/>

  </g>

  <g>

  	<circle fill="#193642" cx="6.6" cy="6.6" r="6.6"/>

  </g>

  <g>

  	<circle fill="#FFFFFF" cx="6.6" cy="6.6" r="4.8"/>

  </g>

  <g>

  	<path fill="#04202D" d="M1.2,7.1c-0.3,0-0.6-0.3-0.6-0.6c0-3.3,2.7-6,6-6c0.3,0,0.6,0.3,0.6,0.6S6.9,1.7,6.6,1.7

  		c-2.7,0-4.8,2.2-4.8,4.8C1.7,6.9,1.5,7.1,1.2,7.1z"/>

  </g>

  <g>

  	<path fill="#4F656F" d="M6.6,12.6C6.3,12.6,6,12.3,6,12c0-0.3,0.3-0.6,0.6-0.6c2.7,0,4.8-2.2,4.8-4.8C11.4,6.3,11.7,6,12,6

  		c0.3,0,0.6,0.3,0.6,0.6C12.6,9.9,9.9,12.6,6.6,12.6z"/>

  </g>

  <g>

  	<path fill="#E4E4E4" d="M9,64.7c0-0.2-0.1-0.3-0.3-0.3H7.1v5.9h2.2c0.2,0,0.7-0.1,0.7-0.6L9,64.7z"/>

  </g>

  <g>

  	<path fill="#4F656F" d="M2.4,11.8C2.4,11.8,2.4,11.8,2.4,11.8C1.4,11,0.7,10,0.3,8.9c0-0.1,0-0.1,0.1-0.2c0.1,0,0.1,0,0.2,0.1

  		c0.4,1.1,1.1,2,2,2.8C2.5,11.6,2.5,11.7,2.4,11.8C2.5,11.8,2.4,11.8,2.4,11.8z"/>

  </g>

  <g>

  	<path fill="#E4E4E4" d="M10,3.1c1.9,1.9,1.9,4.9,0,6.8c-1.9,1.9-4.9,1.9-6.8,0C5.1,8,8.4,4.8,10,3.1z"/>

  </g>

  <g>

  	<g>

  		<path fill="#FFFFFF" d="M43.6,81.7c0,0,1.1,0,1.4,0c0.5,0,0.6-0.6,0.6-0.6v-3.7c0-0.9-0.1-1.6-0.4-2.3l-1.6,2.3V81.7z"/>

  	</g>

  </g>

  <g>

  	<g>

  		<path fill="#E4E4E4" d="M31.2,73.6V70c-1.4,0-2.8,0.4-3.9,1.1l2.7,2.7C30.4,73.7,30.8,73.6,31.2,73.6z"/>

  	</g>

  </g>

  <g>

  	<path fill="#99A6AB" d="M38,75.7"/>

  </g>

  <g>

  	<path fill="#E4E4E4" d="M23.7,66.4L23.7,66.4c0,1.4,1.2,2.6,2.6,2.6c1.4,0,16.3,0,17.7,0c1.4,0,2.6-1.1,2.6-2.6

  		C45.5,66.4,23.7,66.4,23.7,66.4z"/>

  </g>

  <g>

  	<rect x="19.8" y="50.9" fill="#FFFFFF" width="31.3" height="0.2"/>

  </g>

  <g>

  	<rect x="23.5" y="28.1" fill="#FFFFFF" width="24" height="0.2"/>

  </g>

  <g>

  	<path fill="#E4E4E4" d="M52,66.2h-4.7v-4.7h1.4c0,0,0.3,1.7,1,2.4c0.7,0.7,2.4,1,2.4,1V66.2z"/>

  </g>

  <g>

  	<path fill="#9A9B9C" d="M63.6,33.7c-0.1,0-0.2-0.1-0.2-0.2c0-0.1,0.1-0.2,0.2-0.2c3.6,0,6.9-2.3,8.1-5.7c0-0.1,0.2-0.2,0.3-0.2

  		c0.1,0,0.2,0.2,0.2,0.3C70.9,31.3,67.5,33.7,63.6,33.7z"/>

  </g>

  <g>

  	<path fill="#FFFFFF" d="M55.7,27.6c-0.1,0-0.2-0.1-0.2-0.2c-0.3-0.9-0.5-1.8-0.5-2.8c0-4.8,3.9-8.6,8.6-8.6c0.1,0,0.2,0.1,0.2,0.2

  		c0,0.1-0.1,0.2-0.2,0.2c-4.5,0-8.1,3.6-8.1,8.1c0,0.9,0.1,1.8,0.4,2.6C56,27.4,55.9,27.6,55.7,27.6C55.7,27.6,55.7,27.6,55.7,27.6z

  		"/>

  </g>

  <g>

  	<path fill="#FFFFFF" d="M63.6,33.3c-1.2,0-2.4-0.3-3.5-0.8c-0.1-0.1-0.2-0.2-0.1-0.3c0.1-0.1,0.2-0.2,0.3-0.1

  		c1.1,0.5,2.2,0.7,3.3,0.7c0,0,0,0,0,0c4.5,0,8.1-3.6,8.1-8.1c0-0.1,0.1-0.2,0.2-0.2c0.1,0,0.2,0.1,0.2,0.2

  		C72.3,29.4,68.4,33.3,63.6,33.3C63.6,33.3,63.6,33.3,63.6,33.3z"/>

  </g>

  <g>

  	<path fill="#9A9B9C" d="M58.3,30.3c-0.1,0-0.1,0-0.2-0.1c-3-3-3-8,0-11.1c1.5-1.5,3.4-2.3,5.5-2.3c2.1,0,4.1,0.8,5.5,2.3

  		c0.1,0.1,0.1,0.3,0,0.4c-0.1,0.1-0.3,0.1-0.4,0c-1.4-1.4-3.2-2.1-5.2-2.1c-2,0-3.8,0.8-5.2,2.1c-2.9,2.9-2.9,7.5,0,10.4

  		c0.1,0.1,0.1,0.3,0,0.4C58.4,30.3,58.3,30.3,58.3,30.3z"/>

  </g>

  <g>

  	<g>



  			<rect x="62.6" y="18.6" transform="matrix(7.400971e-02 0.9973 -0.9973 7.400971e-02 77.1234 -45.7568)" fill="#04202D" width="1.1" height="0.1"/>

  	</g>

  	<g>



  			<rect x="61.5" y="18.8" transform="matrix(0.2502 0.9682 -0.9682 0.2502 64.7775 -45.998)" fill="#04202D" width="1.1" height="0.1"/>

  	</g>

  	<g>



  			<rect x="60.4" y="19.1" transform="matrix(0.4196 0.9077 -0.9077 0.4196 52.8441 -44.2516)" fill="#04202D" width="1.1" height="0.2"/>

  	</g>

  	<g>



  			<rect x="59.5" y="19.7" transform="matrix(0.5749 0.8182 -0.8182 0.5749 41.6851 -40.7339)" fill="#04202D" width="1.1" height="0.1"/>

  	</g>

  	<g>



  			<rect x="58.6" y="20.4" transform="matrix(0.7118 0.7024 -0.7024 0.7118 31.4314 -35.6651)" fill="#04202D" width="1.1" height="0.1"/>

  	</g>

  	<g>



  			<rect x="57.9" y="21.3" transform="matrix(0.8252 0.5648 -0.5648 0.8252 22.2638 -29.2854)" fill="#04202D" width="1.1" height="0.1"/>

  	</g>

  	<g>



  			<rect x="57.3" y="22.3" transform="matrix(0.913 0.4079 -0.4079 0.913 14.1371 -21.6762)" fill="#04202D" width="1.1" height="0.1"/>

  	</g>

  	<g>



  			<rect x="56.9" y="23.3" transform="matrix(0.9711 0.2386 -0.2386 0.9711 7.2378 -13.0489)" fill="#04202D" width="1.1" height="0.2"/>

  	</g>

  	<g>



  			<rect x="56.8" y="24.4" transform="matrix(0.9981 6.125001e-02 -6.125001e-02 0.9981 1.6074 -3.4661)" fill="#04202D" width="1.1" height="0.1"/>

  	</g>

  	<g>



  			<rect x="57.3" y="25" transform="matrix(0.1174 0.9931 -0.9931 0.1174 76.0611 -34.3626)" fill="#04202D" width="0.1" height="1.1"/>

  	</g>

  	<g>



  			<rect x="57.5" y="26.1" transform="matrix(0.2886 0.9574 -0.9574 0.2886 66.5441 -36.131)" fill="#04202D" width="0.1" height="1.1"/>

  	</g>

  	<g>



  			<rect x="57.9" y="27.2" transform="matrix(0.4616 0.8871 -0.8871 0.4616 55.8552 -36.507)" fill="#04202D" width="0.1" height="1.1"/>

  	</g>

  	<g>



  			<rect x="58.5" y="28.1" transform="matrix(0.6107 0.7919 -0.7919 0.6107 45.5536 -35.224)" fill="#04202D" width="0.2" height="1.1"/>

  	</g>

  	<g>



  			<rect x="67.9" y="28.9" transform="matrix(0.7711 0.6368 -0.6368 0.7711 34.1049 -36.9397)" fill="#04202D" width="1.1" height="0.2"/>

  	</g>

  	<g>



  			<rect x="68.5" y="28" transform="matrix(0.8725 0.4886 -0.4886 0.8725 22.5031 -30.1721)" fill="#04202D" width="1.1" height="0.1"/>

  	</g>

  	<g>



  			<rect x="69" y="27" transform="matrix(0.9456 0.3254 -0.3254 0.9456 12.5729 -21.1564)" fill="#04202D" width="1.1" height="0.1"/>

  	</g>

  	<g>



  			<rect x="69.2" y="25.9" transform="matrix(0.9885 0.1509 -0.1509 0.9885 4.7109 -10.239)" fill="#04202D" width="1.1" height="0.1"/>

  	</g>

  	<g>

  		<rect x="69.3" y="24.7" fill="#04202D" width="1.1" height="0.1"/>

  	</g>

  	<g>



  			<rect x="69.7" y="23.1" transform="matrix(0.2037 0.979 -0.979 0.2037 78.7322 -49.4542)" fill="#04202D" width="0.2" height="1.1"/>

  	</g>

  	<g>



  			<rect x="69.4" y="22" transform="matrix(0.3807 0.9247 -0.9247 0.3807 63.9052 -50.2249)" fill="#04202D" width="0.1" height="1.1"/>

  	</g>

  	<g>



  			<rect x="68.9" y="21" transform="matrix(0.5357 0.8444 -0.8444 0.5357 50.2406 -48.1879)" fill="#04202D" width="0.1" height="1.1"/>

  	</g>

  	<g>



  			<rect x="68.2" y="20.1" transform="matrix(0.6797 0.7335 -0.7335 0.6797 37.0397 -43.4381)" fill="#04202D" width="0.1" height="1.1"/>

  	</g>

  	<g>

  		<rect x="67.4" y="19.4" transform="matrix(0.8 0.6 -0.6 0.8 25.4434 -36.4704)" fill="#04202D" width="0.1" height="1.1"/>

  	</g>

  	<g>



  			<rect x="66.4" y="18.8" transform="matrix(0.8937 0.4487 -0.4487 0.8937 15.7412 -27.7732)" fill="#04202D" width="0.2" height="1.1"/>

  	</g>

  	<g>

  		<rect x="65.4" y="18.3" transform="matrix(0.96 0.2801 -0.2801 0.96 7.9152 -17.5705)" fill="#04202D" width="0.1" height="1.1"/>

  	</g>

  	<g>



  			<rect x="64.3" y="18.1" transform="matrix(0.9941 0.1083 -0.1083 0.9941 2.4012 -6.8565)" fill="#04202D" width="0.1" height="1.1"/>

  	</g>

  	<g>

  		<path d="M58.9,24.7c-0.2,0-0.4-0.2-0.4-0.4c0-0.2,0.1-0.4,0.4-0.4s0.4,0.2,0.4,0.4C59.2,24.5,59.1,24.7,58.9,24.7z M58.9,23.8

  			c-0.2,0-0.3,0.2-0.3,0.4c0,0.2,0.1,0.4,0.3,0.4c0.2,0,0.3-0.2,0.3-0.4C59.2,24,59.1,23.8,58.9,23.8z"/>

  		<path d="M59.4,24.7v-0.1h0.1L59.4,24.7L59.4,24.7z"/>

  		<path d="M59.7,23.8h0.5v0.1L59.7,23.8l0,0.4c0.1,0,0.1,0,0.2,0c0.2,0,0.3,0.1,0.3,0.3c0,0.2-0.1,0.3-0.3,0.3

  			c-0.1,0-0.2-0.1-0.3-0.1l0,0c0.1,0.1,0.2,0.1,0.3,0.1c0.1,0,0.2-0.1,0.2-0.2c0-0.1-0.1-0.2-0.2-0.2c-0.1,0-0.1,0-0.2,0.1l0,0

  			L59.7,23.8z"/>

  	</g>

  	<g>

  		<path d="M60.9,20.2L60.9,20.2l0,0.9h-0.1L60.9,20.2l-0.2,0.1l0-0.1L60.9,20.2z"/>

  		<path d="M61.2,21.1v-0.1h0.1L61.2,21.1L61.2,21.1z"/>

  		<path d="M61.7,21.1c-0.2,0-0.4-0.2-0.4-0.4c0-0.2,0.1-0.4,0.4-0.4c0.2,0,0.4,0.2,0.4,0.4C62.1,20.9,62,21.1,61.7,21.1z M61.7,20.2

  			c-0.2,0-0.3,0.2-0.3,0.4c0,0.2,0.1,0.4,0.3,0.4c0.2,0,0.3-0.2,0.3-0.4C62,20.4,61.9,20.2,61.7,20.2z"/>

  	</g>

  	<g>

  		<path d="M63,22.4c-0.1,0-0.2-0.1-0.3-0.1v0.1h-0.1v-0.9h0.1v0.4c0.1-0.1,0.1-0.2,0.3-0.2c0.2,0,0.3,0.1,0.3,0.3v0

  			C63.3,22.3,63.2,22.4,63,22.4z M63.3,22c0-0.2-0.1-0.3-0.2-0.3c-0.1,0-0.3,0.1-0.3,0.3v0c0,0.2,0.1,0.3,0.3,0.3

  			C63.2,22.3,63.3,22.2,63.3,22L63.3,22z"/>

  		<path d="M64,22.4v-0.1c0,0.1-0.1,0.1-0.2,0.1c-0.1,0-0.2-0.1-0.2-0.2v0c0-0.1,0.1-0.2,0.3-0.2c0.1,0,0.1,0,0.2,0v0

  			c0-0.1-0.1-0.2-0.2-0.2c-0.1,0-0.1,0-0.2,0l0-0.1c0.1,0,0.1-0.1,0.2-0.1c0.2,0,0.3,0.1,0.3,0.2L64,22.4L64,22.4z M64,22.1

  			c-0.1,0-0.1,0-0.2,0c-0.1,0-0.2,0.1-0.2,0.1v0c0,0.1,0.1,0.1,0.2,0.1C63.9,22.3,64,22.2,64,22.1L64,22.1z"/>

  		<path d="M64.6,21.8c-0.1,0-0.3,0.1-0.3,0.3v0.3h-0.1v-0.6h0.1v0.2C64.4,21.8,64.5,21.7,64.6,21.8L64.6,21.8L64.6,21.8z"/>

  	</g>

  	<g>

  		<path d="M65.4,20.2L65.4,20.2l0,0.9h-0.1L65.4,20.2l-0.2,0.1l0-0.1L65.4,20.2z"/>

  		<path d="M65.6,21.1v-0.1h0.1L65.6,21.1L65.6,21.1z"/>

  		<path d="M66,20.2h0.5v0.1L66,20.2l0,0.4c0.1,0,0.1,0,0.2,0c0.2,0,0.3,0.1,0.3,0.3c0,0.2-0.1,0.3-0.3,0.3c-0.1,0-0.2-0.1-0.3-0.1

  			l0,0C66,21,66.1,21,66.2,21c0.1,0,0.2-0.1,0.2-0.2c0-0.1-0.1-0.2-0.2-0.2c-0.1,0-0.1,0-0.2,0.1l0,0L66,20.2z"/>

  	</g>

  	<g>

  		<path d="M67.5,24L67.5,24c0-0.1,0.1-0.2,0.3-0.2c0.1,0,0.3,0.1,0.3,0.2c0,0.1-0.1,0.2-0.2,0.3l-0.3,0.2h0.5v0.1h-0.6v0l0.3-0.3

  			c0.1-0.1,0.2-0.2,0.2-0.3c0-0.1-0.1-0.2-0.2-0.2C67.7,23.8,67.6,23.9,67.5,24z"/>

  		<path d="M68.2,24.7v-0.1h0.1L68.2,24.7L68.2,24.7z"/>

  		<path d="M68.8,24.7c-0.2,0-0.4-0.2-0.4-0.4c0-0.2,0.1-0.4,0.4-0.4s0.4,0.2,0.4,0.4C69.2,24.5,69,24.7,68.8,24.7z M68.8,23.8

  			c-0.2,0-0.3,0.2-0.3,0.4c0,0.2,0.1,0.4,0.3,0.4c0.2,0,0.3-0.2,0.3-0.4C69.1,24,69,23.8,68.8,23.8z"/>

  	</g>

  	<g>

  		<path d="M66.1,28.3L66.1,28.3c0-0.1,0.1-0.2,0.3-0.2c0.1,0,0.3,0.1,0.3,0.2c0,0.1-0.1,0.2-0.2,0.3l-0.3,0.2h0.5v0.1h-0.6v0

  			l0.3-0.3c0.1-0.1,0.2-0.2,0.2-0.3c0-0.1-0.1-0.2-0.2-0.2C66.3,28.1,66.2,28.2,66.1,28.3z"/>

  		<path d="M66.8,28.9v-0.1h0.1L66.8,28.9L66.8,28.9z"/>

  		<path d="M67.2,28.1h0.5v0.1L67.2,28.1l0,0.4c0.1,0,0.1,0,0.2,0c0.2,0,0.3,0.1,0.3,0.3c0,0.2-0.1,0.3-0.3,0.3

  			c-0.1,0-0.2-0.1-0.3-0.1l0,0c0.1,0.1,0.2,0.1,0.3,0.1c0.1,0,0.2-0.1,0.2-0.2c0-0.1-0.1-0.2-0.2-0.2c-0.1,0-0.1,0-0.2,0.1l0,0

  			L67.2,28.1z"/>

  	</g>

  	<g>

  		<path d="M59.7,28.9c-0.2,0-0.4-0.2-0.4-0.4c0-0.2,0.1-0.4,0.4-0.4s0.4,0.2,0.4,0.4C60,28.7,59.9,28.9,59.7,28.9z M59.7,28.1

  			c-0.2,0-0.3,0.2-0.3,0.4c0,0.2,0.1,0.4,0.3,0.4c0.2,0,0.3-0.2,0.3-0.4C60,28.3,59.9,28.1,59.7,28.1z"/>

  	</g>

  	<g>

  		<circle fill="#193642" cx="63.8" cy="28.6" r="1.4"/>

  	</g>

  </g>

  <g>

  	<g>

  		<path fill="#99A6AB" d="M69.7,49.2h0.3l0.3,0.5l0.3-0.5H71v1.2h-0.3v-0.7l-0.3,0.5h0l-0.3-0.5v0.7h-0.3V49.2z"/>

  	</g>

  	<g>

  		<path fill="#99A6AB" d="M72,49.2h0.3l0.5,1.2h-0.4l-0.1-0.2h-0.5l-0.1,0.2h-0.3L72,49.2z M72.2,49.9l-0.1-0.3L72,49.9H72.2z"/>

  	</g>

  	<g>

  		<path fill="#99A6AB" d="M73.5,49.8l-0.4-0.6h0.4l0.2,0.3l0.2-0.3h0.4l-0.4,0.6l0.4,0.6h-0.4L73.7,50l-0.2,0.4h-0.4L73.5,49.8z"/>

  	</g>

  </g>

  <g>

  	<g>

  		<path fill="#99A6AB" d="M69.7,93.2h0.3l0.3,0.5l0.3-0.5H71v1.2h-0.3v-0.7l-0.3,0.5h0l-0.3-0.5v0.7h-0.3V93.2z"/>

  	</g>

  	<g>

  		<path fill="#99A6AB" d="M71.6,93.2h0.3v1.2h-0.3V93.2z"/>

  	</g>

  	<g>

  		<path fill="#99A6AB" d="M72.4,93.2h0.3l0.5,0.6v-0.6h0.3v1.2h-0.3l-0.5-0.7v0.7h-0.3V93.2z"/>

  	</g>

  </g>

  <g>

  	<g>

  		<path fill="#193642" d="M63.1,83.9v14.4c0,0.3,0.3,0.6,0.6,0.6c0.3,0,0.6-0.3,0.6-0.6V83.9H63.1z"/>

  	</g>

  </g>

  <g>

  	<polygon fill="#99A6AB" points="93.6,61.2 53.8,62.1 53.8,62.6 93.6,62.6"/>

  </g>

</svg>
