<?xml version="1.0" encoding="utf-8"?>
<!-- Generator: Adobe Illustrator 18.0.0, SVG Export Plug-In . SVG Version: 6.00 Build 0)  -->
<!DOCTYPE svg PUBLIC "-//W3C//DTD SVG 1.1//EN" "http://www.w3.org/Graphics/SVG/1.1/DTD/svg11.dtd">
<svg version="1.1" id="Layer_1" xmlns="http://www.w3.org/2000/svg" xmlns:xlink="http://www.w3.org/1999/xlink" x="0px" y="0px"
	 viewBox="267.8 366.2 75.3 57" enable-background="new 267.8 366.2 75.3 57" xml:space="preserve">
<g>
	<path fill="none" stroke="#FFFFFF" stroke-width="1.9887" stroke-linecap="round" stroke-miterlimit="10" d="M276.7,387.6"/>
</g>
<g>
	<path fill="#E4E4E4" d="M267.8,366.3v54.5l0,0c0,1,0.8,1.8,1.7,1.9c0.1,0,0.2,0,0.2,0h30.9h0.1c1.1,0,1.9-0.9,1.9-2v-54.5h-34.8
		V366.3z"/>
</g>
<g>
	<rect x="269.6" y="384.9" fill="#FFFFFF" width="31" height="2.6"/>
</g>
<g>
	<path fill="none" stroke="#FFFFFF" stroke-width="1.9887" stroke-linecap="round" stroke-miterlimit="10" d="M276.7,372.7"/>
</g>
<g opacity="0.73">
	<path fill="#FFFFFF" d="M278.4,421.7h-5.8c0,0-0.8-0.4-0.8-1.3c0-0.3,0-7.1,0-7.1h5.8c0,0,0,6.9,0,7.2
		C277.7,421.2,278.4,421.7,278.4,421.7z"/>
</g>
<g>
	<rect x="269.5" y="422.4" fill="#E4E4E4" width="73.6" height="0.8"/>
</g>
<g>
	<path fill="#E4E4E4" d="M285.1,413.2v8.4h12.4c1.7,0,3.1-1.4,3.1-3.1c0,0,0-1.8,0-5.3H285.1z"/>
</g>
<g opacity="0.9">
	<path fill="#193642" d="M269.6,387.5v23.2c0,1.1,0.9,1.9,1.9,1.9h27.1c1.1,0,1.9-0.9,1.9-1.9v-23.2H269.6z"/>
</g>
<g>
	<circle fill="#193642" cx="278.7" cy="387.3" r="0.7"/>
	<path fill="#FFFFFF" d="M278.7,388.2c-0.5,0-0.9-0.4-0.9-0.9s0.4-0.9,0.9-0.9s0.9,0.4,0.9,0.9C279.6,387.8,279.2,388.2,278.7,388.2
		z M278.7,386.7c-0.3,0-0.6,0.3-0.6,0.6s0.3,0.6,0.6,0.6s0.6-0.3,0.6-0.6S279.1,386.7,278.7,386.7z"/>
</g>
<g>
	<circle fill="#193642" cx="280" cy="387.3" r="0.5"/>
	<path fill="#FFFFFF" d="M280,387.9c-0.4,0-0.6-0.3-0.6-0.6s0.3-0.6,0.6-0.6s0.6,0.3,0.6,0.6S280.3,387.9,280,387.9z M280,386.9
		c-0.2,0-0.4,0.2-0.4,0.4c0,0.2,0.2,0.4,0.4,0.4c0.2,0,0.4-0.2,0.4-0.4S280.2,386.9,280,386.9z"/>
</g>
<g>
	<circle fill="#193642" cx="277.5" cy="387.3" r="0.5"/>
	<path fill="#FFFFFF" d="M277.5,387.9c-0.4,0-0.6-0.3-0.6-0.6s0.3-0.6,0.6-0.6c0.4,0,0.6,0.3,0.6,0.6S277.8,387.9,277.5,387.9z
		 M277.5,386.9c-0.2,0-0.4,0.2-0.4,0.4c0,0.2,0.2,0.4,0.4,0.4c0.2,0,0.4-0.2,0.4-0.4S277.7,386.9,277.5,386.9z"/>
</g>
<g>
	<circle fill="#193642" cx="299.5" cy="387.3" r="0.7"/>
	<path fill="#FFFFFF" d="M299.5,388.2c-0.5,0-0.9-0.4-0.9-0.9s0.4-0.9,0.9-0.9s0.9,0.4,0.9,0.9C300.3,387.8,299.9,388.2,299.5,388.2
		z M299.5,386.7c-0.3,0-0.6,0.3-0.6,0.6s0.3,0.6,0.6,0.6s0.6-0.3,0.6-0.6S299.8,386.7,299.5,386.7z"/>
</g>
<g>
	<circle fill="#193642" cx="294.9" cy="387.3" r="0.5"/>
	<path fill="#FFFFFF" d="M294.9,387.9c-0.4,0-0.6-0.3-0.6-0.6s0.3-0.6,0.6-0.6c0.4,0,0.6,0.3,0.6,0.6S295.2,387.9,294.9,387.9z
		 M294.9,386.9c-0.2,0-0.4,0.2-0.4,0.4c0,0.2,0.2,0.4,0.4,0.4c0.2,0,0.4-0.2,0.4-0.4S295.1,386.9,294.9,386.9z"/>
</g>
<g>
	<circle fill="#193642" cx="295.8" cy="387.3" r="0.5"/>
	<path fill="#FFFFFF" d="M295.8,387.9c-0.4,0-0.6-0.3-0.6-0.6s0.3-0.6,0.6-0.6c0.4,0,0.6,0.3,0.6,0.6S296.2,387.9,295.8,387.9z
		 M295.8,386.9c-0.2,0-0.4,0.2-0.4,0.4c0,0.2,0.2,0.4,0.4,0.4c0.2,0,0.4-0.2,0.4-0.4C296.2,387.1,296,386.9,295.8,386.9z"/>
</g>
<g>
	<circle fill="#193642" cx="274.2" cy="387.3" r="0.5"/>
	<path fill="#FFFFFF" d="M274.2,387.9c-0.4,0-0.6-0.3-0.6-0.6s0.3-0.6,0.6-0.6c0.4,0,0.6,0.3,0.6,0.6S274.6,387.9,274.2,387.9z
		 M274.2,386.9c-0.2,0-0.4,0.2-0.4,0.4c0,0.2,0.2,0.4,0.4,0.4c0.2,0,0.4-0.2,0.4-0.4S274.4,386.9,274.2,386.9z"/>
</g>
<g opacity="0.73">
	<rect x="271.8" y="368.3" fill="#FFFFFF" width="5.8" height="43.5"/>
</g>
<g>
	<circle fill="#193642" cx="279.7" cy="388.2" r="0.5"/>
	<path fill="#FFFFFF" d="M279.7,388.8c-0.3,0-0.6-0.3-0.6-0.6c0-0.3,0.3-0.6,0.6-0.6c0.3,0,0.6,0.3,0.6,0.6
		C280.3,388.6,280,388.8,279.7,388.8z M279.7,387.9c-0.2,0-0.3,0.1-0.3,0.3c0,0.2,0.1,0.3,0.3,0.3c0.2,0,0.3-0.1,0.3-0.3
		C280,388.1,279.9,387.9,279.7,387.9z"/>
</g>
<g>
	<path fill="#E4E4E4" d="M300.6,368.3h-15.5v43.4h15.5C300.6,398.6,300.6,368.3,300.6,368.3z"/>
</g>
</svg>
