<?xml version="1.0" encoding="utf-8"?>
<!-- Generator: Adobe Illustrator 18.0.0, SVG Export Plug-In . SVG Version: 6.00 Build 0)  -->
<!DOCTYPE svg PUBLIC "-//W3C//DTD SVG 1.1//EN" "http://www.w3.org/Graphics/SVG/1.1/DTD/svg11.dtd">
<svg version="1.1" id="Layer_1" xmlns="http://www.w3.org/2000/svg" xmlns:xlink="http://www.w3.org/1999/xlink" x="0px" y="0px"
	 viewBox="249.1 335.1 112.8 119.5" enable-background="new 249.1 335.1 112.8 119.5" xml:space="preserve">
<g>
	<polygon fill="#9A9B9C" points="345.1,382.2 298.7,335.8 251.3,383.2 298.1,429.9 	"/>
	<polygon fill="#9A9B9C" points="317,358.5 274,401.5 270,397.5 313.1,354.5 	"/>
	<polygon fill="#9A9B9C" points="332.1,373.6 289.1,416.6 285.1,412.6 328.1,369.6 	"/>
	<polygon fill="#9A9B9C" points="301.9,343.3 258.8,386.4 254.8,382.4 297.9,339.3 	"/>
	<path fill="#FFFFFF" d="M345.4,382.5L345.4,382.5L345.4,382.5l-2.1-2.1l0,0l-13-13l0,0l-2.1-2.1l0,0l-13-13l0,0l-2.1-2.1l0,0
		l-13-13l0,0l-2.1-2.1l0,0l0,0l-2.1,2.1l0,0l-13,13l0,0l-2.1,2.1l0,0l-13,13l0,0l-2.1,2.1l0,0l-13,13l0,0l-2.1,2.1l0,0l2.1,2.1
		l13,13l2.1,2.1l0,0l13,13l2.1,2.1l13,13l2.1,2.1l2.1-2.1l0,0l13-13l0,0l2.1-2.1l0,0l13-13l0,0l2.1-2.1l0,0l13.1-13.1L345.4,382.5z
		 M326.1,367.4l-13,13l-13-13l13-13L326.1,367.4z M311.1,382.5l-13,13l-13-13l13-13L311.1,382.5z M298.1,339.3l13,13l-13,13l-13-13
		L298.1,339.3z M283,354.4l13,13l-13,13l-13-13L283,354.4z M254.9,382.5l13-13l13,13l-13,13L254.9,382.5z M270,397.6l13-13l13,13
		l-13,13L270,397.6z M298.1,425.6l-13-13l13-13l13,13L298.1,425.6z M313.2,410.5l-13-13l13-13l13,13L313.2,410.5z M315.3,382.5
		l13-13l13,13l-13,13L315.3,382.5z"/>
	<g>

			<rect x="267.2" y="390.7" transform="matrix(-0.7072 0.7071 -0.7071 -0.7072 748.2994 471.9003)" fill="#E4E4E4" width="18.4" height="0.5"/>

			<rect x="282.3" y="375.6" transform="matrix(-0.7072 0.7071 -0.7071 -0.7072 763.3873 435.4435)" fill="#E4E4E4" width="18.4" height="0.5"/>

			<rect x="297.4" y="360.5" transform="matrix(-0.7072 0.7071 -0.7071 -0.7072 778.4753 398.9868)" fill="#E4E4E4" width="18.4" height="0.5"/>
	</g>
	<g>

			<rect x="282.3" y="405.8" transform="matrix(-0.7072 0.7071 -0.7071 -0.7072 784.6845 487.0934)" fill="#E4E4E4" width="18.4" height="0.5"/>

			<rect x="297.4" y="390.7" transform="matrix(-0.7072 0.7071 -0.7071 -0.7072 799.7734 450.64)" fill="#E4E4E4" width="18.4" height="0.5"/>

			<rect x="312.5" y="375.6" transform="matrix(-0.7072 0.7071 -0.7071 -0.7072 814.8602 414.1799)" fill="#E4E4E4" width="18.4" height="0.5"/>
	</g>
	<g>
		<polygon fill="#E4E4E4" points="345.5,382.5 298.1,429.9 297.7,429.5 345.1,382.1 		"/>
	</g>
	<g>

			<rect x="252.1" y="375.6" transform="matrix(-0.7071 0.7071 -0.7071 -0.7071 711.7841 456.7881)" fill="#E4E4E4" width="18.4" height="0.5"/>

			<rect x="267.2" y="360.5" transform="matrix(-0.7071 0.7071 -0.7071 -0.7071 726.8705 420.3344)" fill="#E4E4E4" width="18.4" height="0.5"/>

			<rect x="282.3" y="345.4" transform="matrix(-0.7071 0.7071 -0.7071 -0.7071 741.9567 383.8808)" fill="#E4E4E4" width="18.4" height="0.5"/>
	</g>

		<rect x="265.3" y="388.9" transform="matrix(-0.7072 0.7071 -0.7071 -0.7072 743.6845 470.1718)" fill="#E4E4E4" width="18.3" height="0.3"/>

		<rect x="280.4" y="373.8" transform="matrix(-0.7072 0.7071 -0.7071 -0.7072 758.7733 433.7182)" fill="#E4E4E4" width="18.3" height="0.3"/>

		<rect x="295.5" y="358.7" transform="matrix(-0.7072 0.7071 -0.7071 -0.7072 773.8604 397.2583)" fill="#E4E4E4" width="18.3" height="0.3"/>

		<rect x="280.4" y="404" transform="matrix(-0.7072 0.7071 -0.7071 -0.7072 780.1415 485.197)" fill="#E4E4E4" width="18.3" height="0.3"/>

		<rect x="295.5" y="388.9" transform="matrix(-0.7072 0.7071 -0.7071 -0.7072 795.2301 448.7438)" fill="#E4E4E4" width="18.3" height="0.3"/>

		<rect x="310.6" y="373.8" transform="matrix(-0.7072 0.7071 -0.7071 -0.7072 810.3171 412.2835)" fill="#E4E4E4" width="18.3" height="0.3"/>

		<rect x="295.6" y="419.1" transform="matrix(-0.7072 0.7071 -0.7071 -0.7072 816.598 500.2225)" fill="#E4E4E4" width="18.3" height="0.3"/>

		<rect x="310.6" y="404" transform="matrix(-0.7072 0.7071 -0.7071 -0.7072 831.6162 463.9399)" fill="#E4E4E4" width="18.3" height="0.3"/>

		<rect x="325.7" y="388.9" transform="matrix(-0.7072 0.7071 -0.7071 -0.7072 846.7032 427.4796)" fill="#E4E4E4" width="18.3" height="0.3"/>
	<g>
		<g>
			<circle fill="#E4E4E4" cx="267.9" cy="384.1" r="8"/>
			<path fill="#E4E4E4" d="M273.6,378.4c3.1,3.1,3.1,8.2,0,11.3c-3.1,3.1-8.2,3.1-11.3,0C265.6,386.4,271.5,380.4,273.6,378.4z"/>
			<path opacity="0.7" fill="#FFFFFF" enable-background="new    " d="M273.5,389.7c1.6-1.6,1.8-2.9,1.8-2.9c-2.2,0.8-4,2.6-4.8,4.8
				C270.6,391.6,271.9,391.4,273.5,389.7z"/>
			<path fill="#E4E4E4" d="M262.2,379.1c-2.5,3-2.4,7.4,0.4,10.2c2.9,2.9,7.7,2.9,10.6,0c2.8-2.8,2.9-7.2,0.4-10.2
				c0,0-0.4,0.5-1.7,0.5c-0.7,0-5.5,0-7.7,0C262.3,379.6,262.2,379.1,262.2,379.1z"/>
			<polygon fill="#E4E4E4" points="265.9,386.1 270,382 277.8,389.8 273.7,393.9 			"/>
			<circle fill="#193642" cx="268" cy="384.1" r="2.9"/>
			<path fill="#E4E4E4" d="M270.2,386.1c-1.2,1.2-2.6,0.9-2.6,0.9l-1.2-1.2l3.4-3.4l1.2,1.2C271,383.6,271.1,385.1,270.2,386.1z"/>
			<g>
				<circle fill="#E4E4E4" cx="268" cy="384.1" r="2.4"/>
				<path fill="#E4E4E4" d="M266.4,385.8c0.7-0.7,2.7-2.7,3.4-3.4c0.9,0.9,0.9,2.4,0,3.4C268.8,386.7,267.3,386.7,266.4,385.8z"/>
			</g>
			<path fill="#FFFFFF" d="M266.8,380c0.8,0.8-0.3,0.9-1.1,1.6c-0.8,0.8-0.9,1.9-1.6,1.1c-0.8-0.8-0.3-1.5,0.4-2.3
				C265.3,379.7,266.1,379.3,266.8,380z"/>
			<path fill="#FFFFFF" d="M266.7,381.8c0.2,0.2-0.1,0.2-0.4,0.5c-0.2,0.2-0.3,0.5-0.5,0.4c-0.2-0.2,0-0.4,0.2-0.6
				C266.3,381.8,266.5,381.6,266.7,381.8z"/>
			<path fill="#E4E4E4" d="M267.6,378.4c2.6,0,3.9-1.5,3.9-1.5c-0.8-0.6-2.9-0.8-3.6-0.8c-4.4,0-8,3.6-8,8c0,0.6,0.2,2.7,1,3.8
				c0,0,1.5-1.6,1.5-4.3C262.6,380.9,264.8,378.6,267.6,378.4z"/>
		</g>
		<path opacity="0.7" fill="#FFFFFF" enable-background="new    " d="M262.2,389.8c1.6,1.6,2.9,1.8,2.9,1.8c-0.8-2.2-2.6-4-4.8-4.8
			C260.4,386.8,260.6,388.1,262.2,389.8z"/>
	</g>
	<g>
		<g>
			<circle fill="#E4E4E4" cx="282.9" cy="369" r="8"/>
			<path fill="#E4E4E4" d="M288.6,363.4c3.1,3.1,3.1,8.2,0,11.3c-3.1,3.1-8.2,3.1-11.3,0C280.6,371.3,286.6,365.4,288.6,363.4z"/>
			<path opacity="0.7" fill="#FFFFFF" enable-background="new    " d="M288.5,374.7c1.6-1.6,1.8-2.9,1.8-2.9c-2.2,0.8-4,2.6-4.8,4.8
				C285.6,376.5,286.9,376.3,288.5,374.7z"/>
			<path fill="#E4E4E4" d="M277.2,364.1c-2.5,3-2.4,7.4,0.4,10.2c2.9,2.9,7.7,2.9,10.6,0c2.8-2.8,2.9-7.2,0.4-10.2
				c0,0-0.4,0.5-1.7,0.5c-0.7,0-5.5,0-7.7,0C277.4,364.6,277.2,364.1,277.2,364.1z"/>
			<polygon fill="#E4E4E4" points="281,371 285.1,366.9 292.9,374.7 288.8,378.8 			"/>
			<circle fill="#193642" cx="283.1" cy="369" r="2.9"/>
			<path fill="#E4E4E4" d="M285.2,371c-1.2,1.2-2.6,0.9-2.6,0.9l-1.2-1.2l3.4-3.4l1.2,1.2C286,368.6,286.2,370,285.2,371z"/>
			<g>
				<circle fill="#E4E4E4" cx="283.1" cy="369" r="2.4"/>
				<path fill="#E4E4E4" d="M281.4,370.7c0.7-0.7,2.7-2.7,3.4-3.4c0.9,0.9,0.9,2.4,0,3.4C283.8,371.6,282.3,371.6,281.4,370.7z"/>
			</g>
			<path fill="#FFFFFF" d="M281.9,365c0.8,0.8-0.3,0.9-1.1,1.6c-0.8,0.8-0.9,1.9-1.6,1.1c-0.8-0.8-0.3-1.5,0.4-2.3
				C280.3,364.7,281.1,364.2,281.9,365z"/>
			<path fill="#FFFFFF" d="M281.7,366.7c0.2,0.2-0.1,0.2-0.4,0.5c-0.2,0.2-0.3,0.5-0.5,0.4c-0.2-0.2,0-0.4,0.2-0.6
				C281.4,366.7,281.6,366.6,281.7,366.7z"/>
			<path fill="#E4E4E4" d="M282.7,363.4c2.6,0,3.9-1.5,3.9-1.5c-0.8-0.6-2.9-0.8-3.6-0.8c-4.4,0-8,3.6-8,8c0,0.6,0.2,2.7,1,3.8
				c0,0,1.5-1.6,1.5-4.3C277.6,365.8,279.9,363.6,282.7,363.4z"/>
		</g>
		<path opacity="0.7" fill="#FFFFFF" enable-background="new    " d="M277.3,374.7c1.6,1.6,2.9,1.8,2.9,1.8c-0.8-2.2-2.6-4-4.8-4.8
			C275.4,371.8,275.6,373.1,277.3,374.7z"/>
	</g>
	<g>
		<g>
			<circle fill="#E4E4E4" cx="298" cy="354" r="8"/>
			<path fill="#E4E4E4" d="M303.6,348.3c3.1,3.1,3.1,8.2,0,11.3c-3.1,3.1-8.2,3.1-11.3,0C295.7,356.3,301.6,350.3,303.6,348.3z"/>
			<path opacity="0.7" fill="#FFFFFF" enable-background="new    " d="M303.6,359.6c1.6-1.6,1.8-2.9,1.8-2.9c-2.2,0.8-4,2.6-4.8,4.8
				C300.6,361.5,302,361.3,303.6,359.6z"/>
			<path fill="#E4E4E4" d="M292.3,349c-2.5,3-2.4,7.4,0.4,10.2c2.9,2.9,7.7,2.9,10.6,0c2.8-2.8,2.9-7.2,0.4-10.2
				c0,0-0.4,0.5-1.7,0.5c-0.7,0-5.5,0-7.7,0C292.4,349.5,292.3,349,292.3,349z"/>
			<polygon fill="#E4E4E4" points="296,356 300.1,351.9 307.9,359.7 303.8,363.8 			"/>
			<circle fill="#193642" cx="298.1" cy="354" r="2.9"/>
			<path fill="#E4E4E4" d="M300.3,356c-1.2,1.2-2.6,0.9-2.6,0.9l-1.2-1.2l3.4-3.4l1.2,1.2C301,353.5,301.2,355,300.3,356z"/>
			<g>
				<circle fill="#E4E4E4" cx="298.1" cy="354" r="2.4"/>
				<path fill="#E4E4E4" d="M296.5,355.7c0.7-0.7,2.7-2.7,3.4-3.4c0.9,0.9,0.9,2.4,0,3.4C298.9,356.6,297.4,356.6,296.5,355.7z"/>
			</g>
			<path fill="#FFFFFF" d="M296.9,349.9c0.8,0.8-0.3,0.9-1.1,1.6c-0.8,0.8-0.9,1.9-1.6,1.1c-0.8-0.8-0.3-1.5,0.4-2.3
				C295.4,349.6,296.1,349.2,296.9,349.9z"/>
			<path fill="#FFFFFF" d="M296.8,351.7c0.2,0.2-0.1,0.2-0.4,0.5c-0.2,0.2-0.3,0.5-0.5,0.4c-0.2-0.2,0-0.4,0.2-0.6
				C296.4,351.7,296.6,351.5,296.8,351.7z"/>
			<path fill="#E4E4E4" d="M297.7,348.3c2.6,0,3.9-1.5,3.9-1.5c-0.8-0.6-2.9-0.8-3.6-0.8c-4.4,0-8,3.6-8,8c0,0.6,0.2,2.7,1,3.8
				c0,0,1.5-1.6,1.5-4.3C292.7,350.8,294.9,348.5,297.7,348.3z"/>
		</g>
		<path opacity="0.7" fill="#FFFFFF" enable-background="new    " d="M292.3,359.7c1.6,1.6,2.9,1.8,2.9,1.8c-0.8-2.2-2.6-4-4.8-4.8
			C290.5,356.7,290.7,358,292.3,359.7z"/>
	</g>
	<g>
		<g>
			<circle fill="#E4E4E4" cx="283" cy="399.2" r="8"/>
			<path fill="#E4E4E4" d="M288.6,393.5c3.1,3.1,3.1,8.2,0,11.3c-3.1,3.1-8.2,3.1-11.3,0C280.7,401.5,286.6,395.5,288.6,393.5z"/>
			<path opacity="0.7" fill="#FFFFFF" enable-background="new    " d="M288.6,404.8c1.6-1.6,1.8-2.9,1.8-2.9c-2.2,0.8-4,2.6-4.8,4.8
				C285.6,406.7,287,406.5,288.6,404.8z"/>
			<path fill="#E4E4E4" d="M277.3,394.2c-2.5,3-2.4,7.4,0.4,10.2c2.9,2.9,7.7,2.9,10.6,0c2.8-2.8,2.9-7.2,0.4-10.2
				c0,0-0.4,0.5-1.7,0.5c-0.7,0-5.5,0-7.7,0C277.4,394.7,277.3,394.2,277.3,394.2z"/>
			<polygon fill="#E4E4E4" points="281,401.2 285.1,397.1 292.9,404.9 288.8,408.9 			"/>
			<circle fill="#193642" cx="283.1" cy="399.2" r="2.9"/>
			<path fill="#E4E4E4" d="M285.3,401.2c-1.2,1.2-2.6,0.9-2.6,0.9l-1.2-1.2l3.4-3.4l1.2,1.2C286,398.7,286.2,400.2,285.3,401.2z"/>
			<g>
				<circle fill="#E4E4E4" cx="283.1" cy="399.2" r="2.4"/>
				<path fill="#E4E4E4" d="M281.5,400.8c0.7-0.7,2.7-2.7,3.4-3.4c0.9,0.9,0.9,2.4,0,3.4C283.9,401.8,282.4,401.8,281.5,400.8z"/>
			</g>
			<path fill="#FFFFFF" d="M281.9,395.1c0.8,0.8-0.3,0.9-1.1,1.6c-0.8,0.8-0.9,1.9-1.6,1.1c-0.8-0.8-0.3-1.5,0.4-2.3
				C280.4,394.8,281.1,394.3,281.9,395.1z"/>
			<path fill="#FFFFFF" d="M281.8,396.9c0.2,0.2-0.1,0.2-0.4,0.5c-0.2,0.2-0.3,0.5-0.5,0.4c-0.2-0.2,0-0.4,0.2-0.6
				C281.4,396.9,281.6,396.7,281.8,396.9z"/>
			<path fill="#E4E4E4" d="M282.7,393.5c2.6,0,3.9-1.5,3.9-1.5c-0.8-0.6-2.9-0.8-3.6-0.8c-4.4,0-8,3.6-8,8c0,0.6,0.2,2.7,1,3.8
				c0,0,1.5-1.6,1.5-4.3C277.7,395.9,279.9,393.7,282.7,393.5z"/>
		</g>
		<path opacity="0.7" fill="#FFFFFF" enable-background="new    " d="M277.3,404.8c1.6,1.6,2.9,1.8,2.9,1.8c-0.8-2.2-2.6-4-4.8-4.8
			C275.5,401.9,275.7,403.2,277.3,404.8z"/>
	</g>
	<g>
		<g>
			<circle fill="#E4E4E4" cx="298" cy="384.1" r="8"/>
			<path fill="#E4E4E4" d="M303.7,378.5c3.1,3.1,3.1,8.2,0,11.3c-3.1,3.1-8.2,3.1-11.3,0C295.7,386.4,301.7,380.5,303.7,378.5z"/>
			<path opacity="0.7" fill="#FFFFFF" enable-background="new    " d="M303.6,389.8c1.6-1.6,1.8-2.9,1.8-2.9c-2.2,0.8-4,2.6-4.8,4.8
				C300.7,391.6,302,391.4,303.6,389.8z"/>
			<path fill="#E4E4E4" d="M292.3,379.2c-2.5,3-2.4,7.4,0.4,10.2c2.9,2.9,7.7,2.9,10.6,0c2.8-2.8,2.9-7.2,0.4-10.2
				c0,0-0.4,0.5-1.7,0.5c-0.7,0-5.5,0-7.7,0C292.5,379.7,292.3,379.2,292.3,379.2z"/>
			<polygon fill="#E4E4E4" points="296.1,386.1 300.2,382 308,389.8 303.9,393.9 			"/>
			<circle fill="#193642" cx="298.2" cy="384.1" r="2.9"/>
			<path fill="#E4E4E4" d="M300.3,386.1c-1.2,1.2-2.6,0.9-2.6,0.9l-1.2-1.2l3.4-3.4l1.2,1.2C301.1,383.7,301.3,385.1,300.3,386.1z"
				/>
			<g>
				<circle fill="#E4E4E4" cx="298.2" cy="384.1" r="2.4"/>
				<path fill="#E4E4E4" d="M296.5,385.8c0.7-0.7,2.7-2.7,3.4-3.4c0.9,0.9,0.9,2.4,0,3.4C298.9,386.7,297.4,386.7,296.5,385.8z"/>
			</g>
			<path fill="#FFFFFF" d="M296.9,380.1c0.8,0.8-0.3,0.9-1.1,1.6c-0.8,0.8-0.9,1.9-1.6,1.1c-0.8-0.8-0.3-1.5,0.4-2.3
				C295.4,379.8,296.2,379.3,296.9,380.1z"/>
			<path fill="#FFFFFF" d="M296.8,381.8c0.2,0.2-0.1,0.2-0.4,0.5c-0.2,0.2-0.3,0.5-0.5,0.4c-0.2-0.2,0-0.4,0.2-0.6
				C296.5,381.8,296.7,381.7,296.8,381.8z"/>
			<path fill="#E4E4E4" d="M297.8,378.5c2.6,0,3.9-1.5,3.9-1.5c-0.8-0.6-2.9-0.8-3.6-0.8c-4.4,0-8,3.6-8,8c0,0.6,0.2,2.7,1,3.8
				c0,0,1.5-1.6,1.5-4.3C292.7,380.9,295,378.7,297.8,378.5z"/>
		</g>
		<path opacity="0.7" fill="#FFFFFF" enable-background="new    " d="M292.4,389.8c1.6,1.6,2.9,1.8,2.9,1.8c-0.8-2.2-2.6-4-4.8-4.8
			C290.5,386.9,290.7,388.2,292.4,389.8z"/>
	</g>
	<g>
		<g>
			<circle fill="#E4E4E4" cx="298.1" cy="414.3" r="8"/>
			<path fill="#E4E4E4" d="M303.7,408.6c3.1,3.1,3.1,8.2,0,11.3c-3.1,3.1-8.2,3.1-11.3,0C295.8,416.6,301.7,410.6,303.7,408.6z"/>
			<path opacity="0.7" fill="#FFFFFF" enable-background="new    " d="M303.7,419.9c1.6-1.6,1.8-2.9,1.8-2.9c-2.2,0.8-4,2.6-4.8,4.8
				C300.7,421.8,302,421.6,303.7,419.9z"/>
			<path fill="#E4E4E4" d="M292.3,409.3c-2.5,3-2.4,7.4,0.4,10.2c2.9,2.9,7.7,2.9,10.6,0c2.8-2.8,2.9-7.2,0.4-10.2
				c0,0-0.4,0.5-1.7,0.5c-0.7,0-5.5,0-7.7,0C292.5,409.8,292.3,409.3,292.3,409.3z"/>
			<polygon fill="#E4E4E4" points="296.1,416.3 300.2,412.1 308,419.9 303.9,424 			"/>
			<circle fill="#193642" cx="298.2" cy="414.3" r="2.9"/>
			<path fill="#E4E4E4" d="M300.4,416.2c-1.2,1.2-2.6,0.9-2.6,0.9l-1.2-1.2l3.4-3.4l1.2,1.2C301.1,413.8,301.3,415.3,300.4,416.2z"
				/>
			<g>
				<circle fill="#E4E4E4" cx="298.2" cy="414.3" r="2.4"/>
				<path fill="#E4E4E4" d="M296.5,415.9c0.7-0.7,2.7-2.7,3.4-3.4c0.9,0.9,0.9,2.4,0,3.4S297.5,416.9,296.5,415.9z"/>
			</g>
			<path fill="#FFFFFF" d="M297,410.2c0.8,0.8-0.3,0.9-1.1,1.6c-0.8,0.8-0.9,1.9-1.6,1.1c-0.8-0.8-0.3-1.5,0.4-2.3
				C295.5,409.9,296.2,409.4,297,410.2z"/>
			<path fill="#FFFFFF" d="M296.9,412c0.2,0.2-0.1,0.2-0.4,0.5c-0.2,0.2-0.3,0.5-0.5,0.4c-0.2-0.2,0-0.4,0.2-0.6
				C296.5,412,296.7,411.8,296.9,412z"/>
			<path fill="#E4E4E4" d="M297.8,408.6c2.6,0,3.9-1.5,3.9-1.5c-0.8-0.6-2.9-0.8-3.6-0.8c-4.4,0-8,3.6-8,8c0,0.6,0.2,2.7,1,3.8
				c0,0,1.5-1.6,1.5-4.3C292.8,411,295,408.8,297.8,408.6z"/>
		</g>
		<path opacity="0.7" fill="#FFFFFF" enable-background="new    " d="M292.4,419.9c1.6,1.6,2.9,1.8,2.9,1.8c-0.8-2.2-2.6-4-4.8-4.8
			C290.6,417,290.8,418.3,292.4,419.9z"/>
	</g>
	<g>
		<g>
			<circle fill="#E4E4E4" cx="313.1" cy="399.2" r="8"/>
			<path fill="#E4E4E4" d="M318.8,393.6c3.1,3.1,3.1,8.2,0,11.3c-3.1,3.1-8.2,3.1-11.3,0C310.8,401.5,316.8,395.6,318.8,393.6z"/>
			<path opacity="0.7" fill="#FFFFFF" enable-background="new    " d="M318.7,404.9c1.6-1.6,1.8-2.9,1.8-2.9c-2.2,0.8-4,2.6-4.8,4.8
				C315.8,406.7,317.1,406.5,318.7,404.9z"/>
			<path fill="#E4E4E4" d="M307.4,394.2c-2.5,3-2.4,7.4,0.4,10.2c2.9,2.9,7.7,2.9,10.6,0c2.8-2.8,2.9-7.2,0.4-10.2
				c0,0-0.4,0.5-1.7,0.5c-0.7,0-5.5,0-7.7,0C307.5,394.8,307.4,394.2,307.4,394.2z"/>
			<polygon fill="#E4E4E4" points="311.2,401.2 315.3,397.1 323.1,404.9 319,409 			"/>
			<circle fill="#193642" cx="313.3" cy="399.2" r="2.9"/>
			<path fill="#E4E4E4" d="M315.4,401.2c-1.2,1.2-2.6,0.9-2.6,0.9l-1.2-1.2l3.4-3.4l1.2,1.2C316.2,398.8,316.4,400.2,315.4,401.2z"
				/>
			<g>
				<circle fill="#E4E4E4" cx="313.3" cy="399.2" r="2.4"/>
				<path fill="#E4E4E4" d="M311.6,400.9c0.7-0.7,2.7-2.7,3.4-3.4c0.9,0.9,0.9,2.4,0,3.4C314,401.8,312.5,401.8,311.6,400.9z"/>
			</g>
			<path fill="#FFFFFF" d="M312,395.2c0.8,0.8-0.3,0.9-1.1,1.6c-0.8,0.8-0.9,1.9-1.6,1.1c-0.8-0.8-0.3-1.5,0.4-2.3
				C310.5,394.8,311.3,394.4,312,395.2z"/>
			<path fill="#FFFFFF" d="M311.9,396.9c0.2,0.2-0.1,0.2-0.4,0.5c-0.2,0.2-0.3,0.5-0.5,0.4c-0.2-0.2,0-0.4,0.2-0.6
				C311.5,396.9,311.8,396.8,311.9,396.9z"/>
			<path fill="#E4E4E4" d="M312.8,393.6c2.6,0,3.9-1.5,3.9-1.5c-0.8-0.6-2.9-0.8-3.6-0.8c-4.4,0-8,3.6-8,8c0,0.6,0.2,2.7,1,3.8
				c0,0,1.5-1.6,1.5-4.3C307.8,396,310.1,393.8,312.8,393.6z"/>
		</g>
		<path opacity="0.7" fill="#FFFFFF" enable-background="new    " d="M307.5,404.9c1.6,1.6,2.9,1.8,2.9,1.8c-0.8-2.2-2.6-4-4.8-4.8
			C305.6,401.9,305.8,403.3,307.5,404.9z"/>
	</g>
	<g>
		<g>
			<circle fill="#E4E4E4" cx="328.2" cy="384.2" r="8"/>
			<path fill="#E4E4E4" d="M333.8,378.5c3.1,3.1,3.1,8.2,0,11.3c-3.1,3.1-8.2,3.1-11.3,0C325.8,386.5,331.8,380.5,333.8,378.5z"/>
			<path opacity="0.7" fill="#FFFFFF" enable-background="new    " d="M333.8,389.8c1.6-1.6,1.8-2.9,1.8-2.9c-2.2,0.8-4,2.6-4.8,4.8
				C330.8,391.7,332.1,391.5,333.8,389.8z"/>
			<path fill="#E4E4E4" d="M322.4,379.2c-2.5,3-2.4,7.4,0.4,10.2c2.9,2.9,7.7,2.9,10.6,0c2.8-2.8,2.9-7.2,0.4-10.2
				c0,0-0.4,0.5-1.7,0.5c-0.7,0-5.5,0-7.7,0C322.6,379.7,322.4,379.2,322.4,379.2z"/>
			<polygon fill="#E4E4E4" points="326.2,386.2 330.3,382.1 338.1,389.9 334,393.9 			"/>
			<circle fill="#193642" cx="328.3" cy="384.2" r="2.9"/>
			<path fill="#E4E4E4" d="M330.4,386.2c-1.2,1.2-2.6,0.9-2.6,0.9l-1.2-1.2l3.4-3.4l1.2,1.2C331.2,383.7,331.4,385.2,330.4,386.2z"
				/>
			<g>
				<circle fill="#E4E4E4" cx="328.3" cy="384.2" r="2.4"/>
				<path fill="#E4E4E4" d="M326.6,385.8c0.7-0.7,2.7-2.7,3.4-3.4c0.9,0.9,0.9,2.4,0,3.4S327.6,386.8,326.6,385.8z"/>
			</g>
			<path fill="#FFFFFF" d="M327.1,380.1c0.8,0.8-0.3,0.9-1.1,1.6c-0.8,0.8-0.9,1.9-1.6,1.1c-0.8-0.8-0.3-1.5,0.4-2.3
				C325.5,379.8,326.3,379.3,327.1,380.1z"/>
			<path fill="#FFFFFF" d="M327,381.9c0.2,0.2-0.1,0.2-0.4,0.5c-0.2,0.2-0.3,0.5-0.5,0.4c-0.2-0.2,0-0.4,0.2-0.6
				C326.6,381.9,326.8,381.7,327,381.9z"/>
			<path fill="#E4E4E4" d="M327.9,378.5c2.6,0,3.9-1.5,3.9-1.5c-0.8-0.6-2.9-0.8-3.6-0.8c-4.4,0-8,3.6-8,8c0,0.6,0.2,2.7,1,3.8
				c0,0,1.5-1.6,1.5-4.3C322.9,380.9,325.1,378.7,327.9,378.5z"/>
		</g>
		<path opacity="0.7" fill="#FFFFFF" enable-background="new    " d="M322.5,389.8c1.6,1.6,2.9,1.8,2.9,1.8c-0.8-2.2-2.6-4-4.8-4.8
			C320.7,386.9,320.9,388.2,322.5,389.8z"/>
	</g>
	<polygon fill="#E4E4E4" points="314.8,446 361.9,398.9 345.4,382.5 298.1,429.9 	"/>
</g>
<g>
	<g>
		<rect x="252.5" y="452" fill="#E4E4E4" width="65.1" height="2.6"/>
		<g>
			<rect x="255.1" y="396.9" fill="#FFFFFF" width="4.7" height="0.8"/>
			<path fill="#FFFFFF" d="M260.4,411.1c-0.1-1.6-0.4-8.6-0.4-8.9s0.4-0.3,0.4-0.6c0-0.2,0-2.6,0-3.6c0-0.2-0.2-0.4-0.5-0.4
				c-0.1,0-4.7,0-4.9,0s-0.5,0.1-0.5,0.4c0,1,0,3.4,0,3.6c0,0.3,0.4,0.3,0.4,0.6c0,0.3-0.3,7.2-0.4,8.9c-0.4,5.2-5.4,3.2-5.4,11.3
				c0,3.7,0,24.2,0,30.4c0,1.1,0.5,1.7,1.4,1.7c0.7,0,10.7,0,13.9,0c0.7,0,1.3-0.6,1.3-1.6c0-0.3,0-26.2,0-30.6
				C265.8,414.3,260.8,416.4,260.4,411.1z"/>
			<rect x="252.5" y="425.1" fill="#193642" width="10.2" height="19.6"/>
			<rect x="257.5" y="396.9" fill="#4F656F" width="2.4" height="0.8"/>
			<path fill="#E4E4E4" d="M260.4,411.1c-0.1-1.6-0.4-8.6-0.4-8.9s0.4-0.3,0.4-0.6c0-0.2,0-2.6,0-3.6c0-0.2-0.2-0.4-0.5-0.4
				c-0.1,0-1.3,0-2.5,0v56.9c0,0,3.9,0,7,0c0.7,0,1.3-0.6,1.3-1.6c0-0.3,0-26.2,0-30.6C265.8,414.3,260.8,416.4,260.4,411.1z"/>
			<polygon fill="#4F656F" points="255.1,397.7 257.4,397.7 257.4,397.7 			"/>
			<path fill="#E4E4E4" d="M264.1,420.7c0,3.3,0,31.5,0,32.1c-3.6,0-4.8-1.1-6.7-1.1c-1.9,0-3.8,1.1-7,1.1c0-1,0-29.5,0-32.5
				s5-4.7,5.4-8.6c0.2-1.7,0.2-3.9,0.2-3.9h3.2c0,0-0.1,5.4,0.6,6.4C260.5,415.3,264.1,417.4,264.1,420.7z"/>
			<rect x="253.6" y="422.4" fill="#FFFFFF" width="1.2" height="2.7"/>
			<rect x="253.6" y="444.7" fill="#FFFFFF" width="1.2" height="4.5"/>
			<polygon fill="#FFFFFF" points="256,413.4 255.4,413.4 255.8,402.4 256.4,402.4 			"/>
		</g>
	</g>
	<path fill="#193642" d="M260,402.3c0-0.3,0.4-0.3,0.4-0.6c0-0.2,0-2.6,0-3.6c0-0.2-0.2-0.4-0.5-0.4c-0.1,0-4.7,0-4.9,0
		s-0.5,0.1-0.5,0.4c0,1,0,3.4,0,3.6c0,0.3,0.4,0.3,0.4,0.6c0,0.3-0.3,7.2-0.4,8.8h5.8C260.3,409.5,260,402.5,260,402.3z"/>
	<rect x="255.6" y="398.4" fill="#FFFFFF" width="0.6" height="3.2"/>
</g>
</svg>
