<?xml version="1.0" encoding="utf-8"?>
<!-- Generator: Adobe Illustrator 18.0.0, SVG Export Plug-In . SVG Version: 6.00 Build 0)  -->
<!DOCTYPE svg PUBLIC "-//W3C//DTD SVG 1.1//EN" "http://www.w3.org/Graphics/SVG/1.1/DTD/svg11.dtd">
<svg version="1.1" id="Layer_1" xmlns="http://www.w3.org/2000/svg" xmlns:xlink="http://www.w3.org/1999/xlink" x="0px" y="0px"
	 viewBox="0 0 106.3 78" enable-background="new 0 0 106.3 78" xml:space="preserve">
<g>
	<rect x="59.8" y="48.3" fill="#99A6AB" width="4" height="1"/>
</g>
<g>
	<rect x="59.8" y="48.8" fill="#99A6AB" width="4" height="0.5"/>
</g>
<g>
	<rect x="0.3" y="75.9" fill="#9A9B9C" width="106" height="2.1"/>
</g>
<g>
	<rect x="1" y="61.1" fill="#99A6AB" width="57.4" height="16.2"/>
</g>
<g>
	<rect x="1" y="13.6" fill="#E4E4E4" width="12.8" height="47.3"/>
</g>
<g>
	<rect x="13.8" y="8.9" fill="#FFFFFF" width="43.8" height="48.6"/>
</g>
<g>
	<rect x="17.8" y="0.6" fill="#FFFFFF" width="35.8" height="7.8"/>
</g>
<g>
	<rect x="13.8" y="8.2" fill="#9A9B9C" width="43.8" height="1.1"/>
</g>
<g>
	<rect x="13.8" y="47.8" fill="#FFFFFF" width="43.8" height="13.1"/>
</g>
<g>
	<rect x="13.9" y="42.3" fill="#E4E4E4" width="43.8" height="5.9"/>
</g>
<g>
	<rect x="28.3" y="23.1" fill="#FFFFFF" width="24" height="23.3"/>
</g>
<g>
	<polygon fill="#99A6AB" points="52.3,22.8 28.1,22.8 28.1,46.5 28.7,46.5 28.7,23.3 52.3,23.3 	"/>
</g>
<g>
	<circle fill="#99A6AB" cx="63.8" cy="32.1" r="1.5"/>
</g>
<g>
	<rect x="59" y="29.7" fill="#99A6AB" width="4.8" height="4.8"/>
</g>
<g>
	<rect x="57.6" y="27.3" fill="#99A6AB" width="1.5" height="9.6"/>
</g>
<g>
	<polygon fill="#99A6AB" points="13.8,49.2 14.7,49.8 57.7,49.8 57.7,49.2 	"/>
</g>
<g>
	<rect x="11.9" y="7.4" fill="#FFFFFF" width="47.7" height="1.2"/>
</g>
<g>
	<rect x="17.1" y="0" fill="#FFFFFF" width="37.3" height="1.2"/>
</g>
<g>
	<rect x="13.8" y="8.9" fill="#FFFFFF" width="43.8" height="11.5"/>
</g>
<g>
	<rect x="19.5" y="1.2" fill="#99A6AB" width="32.5" height="5.7"/>
</g>
<g>
	<rect x="16.9" y="9.1" fill="#99A6AB" width="37.7" height="8.3"/>
</g>
<g>
	<rect x="36.1" y="11.6" fill="#193642" width="7.9" height="4.9"/>
</g>
<g>
	<rect x="32.1" y="2.5" fill="#193642" width="18.6" height="3.5"/>
</g>
<g>
	<rect x="45.7" y="11.6" fill="#193642" width="7.9" height="4.9"/>
</g>
<g>
	<rect x="1" y="29.1" fill="#FFFFFF" width="12.8" height="17.1"/>
</g>
<g>
	<rect x="1" y="17.4" fill="#FFFFFF" width="12.8" height="6.5"/>
</g>
<g>
	<rect x="1" y="23.8" fill="#E4E4E4" width="12.8" height="2.7"/>
</g>
<g>
	<polygon fill="#E4E4E4" points="13.8,26.5 1,26.5 13.8,13.7 	"/>
</g>
<g>
	<polygon fill="#E4E4E4" points="13.8,60.8 1.6,60.8 13.8,48.6 	"/>
</g>
<g>
	<rect x="0" y="60.8" fill="#99A6AB" width="59.5" height="1.9"/>
</g>
<g>
	<rect x="0" y="75.4" fill="#99A6AB" width="59.5" height="1.9"/>
</g>
<g>
	<path fill="#193642" d="M56,75.5H3.1V63.3H56V75.5z M3.4,75.3h52.3V63.6H3.4V75.3z"/>
</g>
<g>
	<polygon fill="#99A6AB" points="1,62.7 2.9,64.7 58.4,64.7 58.4,62.7 	"/>
</g>
<g>
	<rect x="1" y="75.3" fill="#193642" width="57.4" height="0.2"/>
</g>
<g>
	<rect x="59" y="32.1" fill="#99A6AB" width="4.8" height="2.4"/>
</g>
<g>
	<rect x="57.6" y="32.1" fill="#99A6AB" width="1.4" height="4.8"/>
</g>
<g>
	<rect x="61.8" y="32.1" fill="#99A6AB" width="0.5" height="17.5"/>
</g>
<g>
	<rect x="60.6" y="48.8" fill="#99A6AB" width="1.7" height="0.8"/>
</g>
<g>
	<path fill="#99A6AB" d="M65.3,32.1c-0.4,0-1.5,0-1.5,0v1.5C64.6,33.6,65.3,33,65.3,32.1z"/>
</g>
<g>
	<path fill="#99A6AB" d="M70.6,45.8c-0.9,0-1.7,0.5-2.3,1.1c-0.9,0.9-2.6,1-3.5,0.5c-0.2-0.2-0.7-0.3-1.1-0.3c0,0.3,0,3,0,3.6
		c0.3,0,0.8-0.2,1.1-0.3c0.8-0.6,2.6-0.4,3.5,0.5c0.6,0.6,1.3,1.1,2.3,1.1c1.6,0,3-1.3,3-3C73.6,47.1,72.2,45.8,70.6,45.8z"/>
</g>
<g>
	<path fill="#99A6AB" d="M63.8,48.8c0,0.3,0,1.1,0,1.7c0.3,0,0.8-0.2,1.1-0.3c0.8-0.6,2.6-0.4,3.5,0.5c0.6,0.6,1.3,1.1,2.3,1.1
		c1.6,0,3-1.3,3-3C72.2,48.7,64.1,48.8,63.8,48.8z"/>
</g>
<g>
	<path fill="#99A6AB" d="M60.6,31.7v17.9c0,0.5,0.4,0.8,0.8,0.8s0.8-0.4,0.8-0.8V31.7H60.6z"/>
</g>
<g>
	<circle fill="#99A6AB" cx="35.7" cy="51.5" r="1.7"/>
</g>
<g>
	<polygon fill="#E4E4E4" points="24.8,20.4 24.8,20.4 14.2,20.4 14.2,25.6 28.1,25.6 28.1,22.7 52.3,22.7 52.3,25.6 57.6,25.6
		57.6,22.5 57.6,20.4 57.6,20.4 	"/>
</g>
<g>
	<polygon fill="#4F616C" points="54.6,9.1 16.9,9.1 16.9,9.1 16.9,17.4 18,17.4 18,10.2 54.6,10.2 	"/>
</g>
<g>
	<polygon fill="#4F616C" points="52,1.2 19.5,1.2 19.5,1.2 19.5,6.9 20,6.9 20,1.7 52,1.7 	"/>
</g>
<g opacity="0.82">
	<polygon fill="#FFFFFF" points="39.3,9.3 43,9.3 34.8,17.4 31.1,17.4 	"/>
</g>
<g opacity="0.82">
	<polygon fill="#FFFFFF" points="47.2,1.3 50.9,1.3 45,7.2 41.3,7.2 	"/>
</g>
<g>
	<rect x="15" y="8.6" fill="#99A6AB" width="0.6" height="39.7"/>
</g>
<g>
	<rect x="16.8" y="17.4" fill="#FFFFFF" width="37.8" height="0.3"/>
</g>
<g>
	<rect x="11.9" y="7.4" fill="#FFFFFF" width="47.7" height="0.3"/>
</g>
<g>
	<rect x="0" y="60.8" fill="#99A6AB" width="59.4" height="0.3"/>
</g>
<g>
	<polygon fill="#FFFFFF" points="54.4,0 17.1,0 17.1,1.2 17.3,1.2 17.3,0.3 54.4,0.3 	"/>
</g>
<g>
	<rect x="53.4" y="1.2" fill="#193642" width="0.3" height="6.2"/>
</g>
<g>
	<rect x="52" y="1.2" fill="#193642" width="1.5" height="0.3"/>
</g>
<g>
	<polygon fill="#99A6AB" points="17.8,1.2 18.1,1.4 19.5,1.4 19.5,1.2 	"/>
</g>
<g>
	<rect x="57.4" y="8.7" fill="#193642" width="0.3" height="39.5"/>
</g>
<g>
	<rect x="54.3" y="9.1" fill="#FFFFFF" width="0.3" height="8.6"/>
</g>
<g>
	<polygon fill="#FFFFFF" points="51.7,1.4 51.7,6.6 19.7,6.6 19.5,6.9 52,6.9 52,1.2 	"/>
</g>
<g>
	<g>
		<g>
			<circle fill="#99A6AB" cx="35" cy="25.9" r="1.4"/>
		</g>
		<g>
			<path fill="#04202D" d="M35.3,24.2c0.6,0.6,0.6,1.5,0,2c-0.6,0.6-1.5,0.6-2,0L35.3,24.2z"/>
		</g>
		<g>
			<circle fill="#4F616C" cx="34.1" cy="25.1" r="1.4"/>
		</g>
		<g>
			<path fill="#99A6AB" d="M33.2,25.1h-0.3c0-0.7,0.6-1.3,1.3-1.3v0.3C33.6,24.2,33.2,24.6,33.2,25.1z"/>
		</g>
		<g>
			<path fill="#FFFFFF" d="M34.1,26.3V26c0.5,0,1-0.4,1-1h0.3C35.4,25.8,34.8,26.3,34.1,26.3z"/>
		</g>
	</g>
	<g>
		<g>
			<circle fill="#99A6AB" cx="35" cy="29.1" r="1.4"/>
		</g>
		<g>
			<path fill="#04202D" d="M35.3,27.4c0.6,0.6,0.6,1.5,0,2c-0.6,0.6-1.5,0.6-2,0L35.3,27.4z"/>
		</g>
		<g>
			<circle fill="#4F616C" cx="34.1" cy="28.3" r="1.4"/>
		</g>
		<g>
			<path fill="#99A6AB" d="M33.2,28.3h-0.3c0-0.7,0.6-1.3,1.3-1.3v0.3C33.6,27.3,33.2,27.8,33.2,28.3z"/>
		</g>
		<g>
			<path fill="#FFFFFF" d="M34.1,29.5v-0.3c0.5,0,1-0.4,1-1h0.3C35.4,29,34.8,29.5,34.1,29.5z"/>
		</g>
	</g>
	<g>
		<g>
			<circle fill="#99A6AB" cx="35" cy="32.3" r="1.4"/>
		</g>
		<g>
			<path fill="#04202D" d="M35.3,30.6c0.6,0.6,0.6,1.5,0,2c-0.6,0.6-1.5,0.6-2,0L35.3,30.6z"/>
		</g>
		<g>
			<circle fill="#E4E4E4" cx="34.1" cy="31.5" r="1.4"/>
		</g>
		<g>
			<path fill="#99A6AB" d="M33.2,31.5h-0.3c0-0.7,0.6-1.3,1.3-1.3v0.3C33.6,30.5,33.2,30.9,33.2,31.5z"/>
		</g>
		<g>
			<path fill="#FFFFFF" d="M34.1,32.7v-0.3c0.5,0,1-0.4,1-1h0.3C35.4,32.1,34.8,32.7,34.1,32.7z"/>
		</g>
	</g>
	<g>
		<g>
			<circle fill="#99A6AB" cx="35" cy="35.5" r="1.4"/>
		</g>
		<g>
			<path fill="#04202D" d="M35.3,33.8c0.6,0.6,0.6,1.5,0,2c-0.6,0.6-1.5,0.6-2,0L35.3,33.8z"/>
		</g>
		<g>
			<circle fill="#E4E4E4" cx="34.1" cy="34.7" r="1.4"/>
		</g>
		<g>
			<path fill="#99A6AB" d="M33.2,34.7h-0.3c0-0.7,0.6-1.3,1.3-1.3v0.3C33.6,33.7,33.2,34.1,33.2,34.7z"/>
		</g>
		<g>
			<path fill="#FFFFFF" d="M34.1,35.9v-0.3c0.5,0,1-0.4,1-1h0.3C35.4,35.3,34.8,35.9,34.1,35.9z"/>
		</g>
	</g>
	<g>
		<g>
			<circle fill="#99A6AB" cx="35" cy="38.7" r="1.4"/>
		</g>
		<g>
			<path fill="#04202D" d="M35.3,36.9c0.6,0.6,0.6,1.5,0,2c-0.6,0.6-1.5,0.6-2,0L35.3,36.9z"/>
		</g>
		<g>
			<circle fill="#E4E4E4" cx="34.1" cy="37.8" r="1.4"/>
		</g>
		<g>
			<path fill="#99A6AB" d="M33.2,37.8h-0.3c0-0.7,0.6-1.3,1.3-1.3v0.3C33.6,36.9,33.2,37.3,33.2,37.8z"/>
		</g>
		<g>
			<path fill="#FFFFFF" d="M34.1,39.1v-0.3c0.5,0,1-0.4,1-1h0.3C35.4,38.5,34.8,39.1,34.1,39.1z"/>
		</g>
	</g>
	<g>
		<g>
			<circle fill="#99A6AB" cx="35" cy="41.8" r="1.4"/>
		</g>
		<g>
			<path fill="#04202D" d="M35.3,40.1c0.6,0.6,0.6,1.5,0,2c-0.6,0.6-1.5,0.6-2,0L35.3,40.1z"/>
		</g>
		<g>
			<circle fill="#E4E4E4" cx="34.1" cy="41" r="1.4"/>
		</g>
		<g>
			<path fill="#99A6AB" d="M33.2,41h-0.3c0-0.7,0.6-1.3,1.3-1.3v0.3C33.6,40.1,33.2,40.5,33.2,41z"/>
		</g>
		<g>
			<path fill="#FFFFFF" d="M34.1,42.3v-0.3c0.5,0,1-0.4,1-1h0.3C35.4,41.7,34.8,42.3,34.1,42.3z"/>
		</g>
	</g>
	<g>
		<g>
			<circle fill="#99A6AB" cx="35" cy="45" r="1.4"/>
		</g>
		<g>
			<path fill="#04202D" d="M35.3,43.3c0.6,0.6,0.6,1.5,0,2c-0.6,0.6-1.5,0.6-2,0L35.3,43.3z"/>
		</g>
		<g>
			<circle fill="#E4E4E4" cx="34.1" cy="44.2" r="1.4"/>
		</g>
		<g>
			<path fill="#99A6AB" d="M33.2,44.2h-0.3c0-0.7,0.6-1.3,1.3-1.3v0.3C33.6,43.2,33.2,43.7,33.2,44.2z"/>
		</g>
		<g>
			<path fill="#FFFFFF" d="M34.1,45.4v-0.3c0.5,0,1-0.4,1-1h0.3C35.4,44.9,34.8,45.4,34.1,45.4z"/>
		</g>
	</g>
</g>
<g>
	<g>
		<g>
			<circle fill="#99A6AB" cx="41.1" cy="25.9" r="1.4"/>
		</g>
		<g>
			<path fill="#04202D" d="M41.4,24.2c0.6,0.6,0.6,1.5,0,2c-0.6,0.6-1.5,0.6-2,0L41.4,24.2z"/>
		</g>
		<g>
			<circle fill="#4F616C" cx="40.3" cy="25.1" r="1.4"/>
		</g>
		<g>
			<path fill="#99A6AB" d="M39.3,25.1H39c0-0.7,0.6-1.3,1.3-1.3v0.3C39.8,24.2,39.3,24.6,39.3,25.1z"/>
		</g>
		<g>
			<path fill="#FFFFFF" d="M40.3,26.3V26c0.5,0,1-0.4,1-1h0.3C41.5,25.8,41,26.3,40.3,26.3z"/>
		</g>
	</g>
	<g>
		<g>
			<circle fill="#99A6AB" cx="41.1" cy="29.1" r="1.4"/>
		</g>
		<g>
			<path fill="#04202D" d="M41.4,27.4c0.6,0.6,0.6,1.5,0,2c-0.6,0.6-1.5,0.6-2,0L41.4,27.4z"/>
		</g>
		<g>
			<circle fill="#4F616C" cx="40.3" cy="28.3" r="1.4"/>
		</g>
		<g>
			<path fill="#99A6AB" d="M39.3,28.3H39c0-0.7,0.6-1.3,1.3-1.3v0.3C39.8,27.3,39.3,27.8,39.3,28.3z"/>
		</g>
		<g>
			<path fill="#FFFFFF" d="M40.3,29.5v-0.3c0.5,0,1-0.4,1-1h0.3C41.5,29,41,29.5,40.3,29.5z"/>
		</g>
	</g>
	<g>
		<g>
			<circle fill="#99A6AB" cx="41.1" cy="32.3" r="1.4"/>
		</g>
		<g>
			<path fill="#04202D" d="M41.4,30.6c0.6,0.6,0.6,1.5,0,2c-0.6,0.6-1.5,0.6-2,0L41.4,30.6z"/>
		</g>
		<g>
			<circle fill="#4F616C" cx="40.3" cy="31.5" r="1.4"/>
		</g>
		<g>
			<path fill="#99A6AB" d="M39.3,31.5H39c0-0.7,0.6-1.3,1.3-1.3v0.3C39.8,30.5,39.3,30.9,39.3,31.5z"/>
		</g>
		<g>
			<path fill="#FFFFFF" d="M40.3,32.7v-0.3c0.5,0,1-0.4,1-1h0.3C41.5,32.1,41,32.7,40.3,32.7z"/>
		</g>
	</g>
	<g>
		<g>
			<circle fill="#99A6AB" cx="41.1" cy="35.5" r="1.4"/>
		</g>
		<g>
			<path fill="#04202D" d="M41.4,33.8c0.6,0.6,0.6,1.5,0,2c-0.6,0.6-1.5,0.6-2,0L41.4,33.8z"/>
		</g>
		<g>
			<circle fill="#4F616C" cx="40.3" cy="34.7" r="1.4"/>
		</g>
		<g>
			<path fill="#99A6AB" d="M39.3,34.7H39c0-0.7,0.6-1.3,1.3-1.3v0.3C39.8,33.7,39.3,34.1,39.3,34.7z"/>
		</g>
		<g>
			<path fill="#FFFFFF" d="M40.3,35.9v-0.3c0.5,0,1-0.4,1-1h0.3C41.5,35.3,41,35.9,40.3,35.9z"/>
		</g>
	</g>
	<g>
		<g>
			<circle fill="#99A6AB" cx="41.1" cy="38.7" r="1.4"/>
		</g>
		<g>
			<path fill="#04202D" d="M41.4,36.9c0.6,0.6,0.6,1.5,0,2c-0.6,0.6-1.5,0.6-2,0L41.4,36.9z"/>
		</g>
		<g>
			<circle fill="#E4E4E4" cx="40.3" cy="37.8" r="1.4"/>
		</g>
		<g>
			<path fill="#99A6AB" d="M39.3,37.8H39c0-0.7,0.6-1.3,1.3-1.3v0.3C39.8,36.9,39.3,37.3,39.3,37.8z"/>
		</g>
		<g>
			<path fill="#FFFFFF" d="M40.3,39.1v-0.3c0.5,0,1-0.4,1-1h0.3C41.5,38.5,41,39.1,40.3,39.1z"/>
		</g>
	</g>
	<g>
		<g>
			<circle fill="#99A6AB" cx="41.1" cy="41.8" r="1.4"/>
		</g>
		<g>
			<path fill="#04202D" d="M41.4,40.1c0.6,0.6,0.6,1.5,0,2c-0.6,0.6-1.5,0.6-2,0L41.4,40.1z"/>
		</g>
		<g>
			<circle fill="#4F616C" cx="40.3" cy="41" r="1.4"/>
		</g>
		<g>
			<path fill="#99A6AB" d="M39.3,41H39c0-0.7,0.6-1.3,1.3-1.3v0.3C39.8,40.1,39.3,40.5,39.3,41z"/>
		</g>
		<g>
			<path fill="#FFFFFF" d="M40.3,42.3v-0.3c0.5,0,1-0.4,1-1h0.3C41.5,41.7,41,42.3,40.3,42.3z"/>
		</g>
	</g>
	<g>
		<g>
			<circle fill="#99A6AB" cx="41.1" cy="45" r="1.4"/>
		</g>
		<g>
			<path fill="#04202D" d="M41.4,43.3c0.6,0.6,0.6,1.5,0,2c-0.6,0.6-1.5,0.6-2,0L41.4,43.3z"/>
		</g>
		<g>
			<circle fill="#4F616C" cx="40.3" cy="44.2" r="1.4"/>
		</g>
		<g>
			<path fill="#99A6AB" d="M39.3,44.2H39c0-0.7,0.6-1.3,1.3-1.3v0.3C39.8,43.2,39.3,43.7,39.3,44.2z"/>
		</g>
		<g>
			<path fill="#FFFFFF" d="M40.3,45.4v-0.3c0.5,0,1-0.4,1-1h0.3C41.5,44.9,41,45.4,40.3,45.4z"/>
		</g>
	</g>
</g>
<g>
	<g>
		<g>
			<circle fill="#99A6AB" cx="44.2" cy="25.9" r="1.4"/>
		</g>
		<g>
			<path fill="#04202D" d="M44.6,24.2c0.6,0.6,0.6,1.5,0,2c-0.6,0.6-1.5,0.6-2,0L44.6,24.2z"/>
		</g>
		<g>
			<circle fill="#E4E4E4" cx="43.4" cy="25.1" r="1.4"/>
		</g>
		<g>
			<path fill="#99A6AB" d="M42.5,25.1h-0.3c0-0.7,0.6-1.3,1.3-1.3v0.3C42.9,24.2,42.5,24.6,42.5,25.1z"/>
		</g>
		<g>
			<path fill="#FFFFFF" d="M43.4,26.3V26c0.5,0,1-0.4,1-1h0.3C44.7,25.8,44.1,26.3,43.4,26.3z"/>
		</g>
	</g>
	<g>
		<g>
			<circle fill="#99A6AB" cx="44.2" cy="29.1" r="1.4"/>
		</g>
		<g>
			<path fill="#04202D" d="M44.6,27.4c0.6,0.6,0.6,1.5,0,2c-0.6,0.6-1.5,0.6-2,0L44.6,27.4z"/>
		</g>
		<g>
			<circle fill="#E4E4E4" cx="43.4" cy="28.3" r="1.4"/>
		</g>
		<g>
			<path fill="#99A6AB" d="M42.5,28.3h-0.3c0-0.7,0.6-1.3,1.3-1.3v0.3C42.9,27.3,42.5,27.8,42.5,28.3z"/>
		</g>
		<g>
			<path fill="#FFFFFF" d="M43.4,29.5v-0.3c0.5,0,1-0.4,1-1h0.3C44.7,29,44.1,29.5,43.4,29.5z"/>
		</g>
	</g>
	<g>
		<g>
			<circle fill="#99A6AB" cx="44.2" cy="32.3" r="1.4"/>
		</g>
		<g>
			<path fill="#04202D" d="M44.6,30.6c0.6,0.6,0.6,1.5,0,2c-0.6,0.6-1.5,0.6-2,0L44.6,30.6z"/>
		</g>
		<g>
			<circle fill="#E4E4E4" cx="43.4" cy="31.5" r="1.4"/>
		</g>
		<g>
			<path fill="#99A6AB" d="M42.5,31.5h-0.3c0-0.7,0.6-1.3,1.3-1.3v0.3C42.9,30.5,42.5,30.9,42.5,31.5z"/>
		</g>
		<g>
			<path fill="#FFFFFF" d="M43.4,32.7v-0.3c0.5,0,1-0.4,1-1h0.3C44.7,32.1,44.1,32.7,43.4,32.7z"/>
		</g>
	</g>
	<g>
		<g>
			<circle fill="#99A6AB" cx="44.2" cy="35.5" r="1.4"/>
		</g>
		<g>
			<path fill="#04202D" d="M44.6,33.8c0.6,0.6,0.6,1.5,0,2c-0.6,0.6-1.5,0.6-2,0L44.6,33.8z"/>
		</g>
		<g>
			<circle fill="#E4E4E4" cx="43.4" cy="34.7" r="1.4"/>
		</g>
		<g>
			<path fill="#99A6AB" d="M42.5,34.7h-0.3c0-0.7,0.6-1.3,1.3-1.3v0.3C42.9,33.7,42.5,34.1,42.5,34.7z"/>
		</g>
		<g>
			<path fill="#FFFFFF" d="M43.4,35.9v-0.3c0.5,0,1-0.4,1-1h0.3C44.7,35.3,44.1,35.9,43.4,35.9z"/>
		</g>
	</g>
	<g>
		<g>
			<circle fill="#99A6AB" cx="44.2" cy="38.7" r="1.4"/>
		</g>
		<g>
			<path fill="#04202D" d="M44.6,36.9c0.6,0.6,0.6,1.5,0,2c-0.6,0.6-1.5,0.6-2,0L44.6,36.9z"/>
		</g>
		<g>
			<circle fill="#E4E4E4" cx="43.4" cy="37.8" r="1.4"/>
		</g>
		<g>
			<path fill="#99A6AB" d="M42.5,37.8h-0.3c0-0.7,0.6-1.3,1.3-1.3v0.3C42.9,36.9,42.5,37.3,42.5,37.8z"/>
		</g>
		<g>
			<path fill="#FFFFFF" d="M43.4,39.1v-0.3c0.5,0,1-0.4,1-1h0.3C44.7,38.5,44.1,39.1,43.4,39.1z"/>
		</g>
	</g>
	<g>
		<g>
			<circle fill="#99A6AB" cx="44.2" cy="41.8" r="1.4"/>
		</g>
		<g>
			<path fill="#04202D" d="M44.6,40.1c0.6,0.6,0.6,1.5,0,2c-0.6,0.6-1.5,0.6-2,0L44.6,40.1z"/>
		</g>
		<g>
			<circle fill="#E4E4E4" cx="43.4" cy="41" r="1.4"/>
		</g>
		<g>
			<path fill="#99A6AB" d="M42.5,41h-0.3c0-0.7,0.6-1.3,1.3-1.3v0.3C42.9,40.1,42.5,40.5,42.5,41z"/>
		</g>
		<g>
			<path fill="#FFFFFF" d="M43.4,42.3v-0.3c0.5,0,1-0.4,1-1h0.3C44.7,41.7,44.1,42.3,43.4,42.3z"/>
		</g>
	</g>
	<g>
		<g>
			<circle fill="#99A6AB" cx="44.2" cy="45" r="1.4"/>
		</g>
		<g>
			<path fill="#04202D" d="M44.6,43.3c0.6,0.6,0.6,1.5,0,2c-0.6,0.6-1.5,0.6-2,0L44.6,43.3z"/>
		</g>
		<g>
			<circle fill="#E4E4E4" cx="43.4" cy="44.2" r="1.4"/>
		</g>
		<g>
			<path fill="#99A6AB" d="M42.5,44.2h-0.3c0-0.7,0.6-1.3,1.3-1.3v0.3C42.9,43.2,42.5,43.7,42.5,44.2z"/>
		</g>
		<g>
			<path fill="#FFFFFF" d="M43.4,45.4v-0.3c0.5,0,1-0.4,1-1h0.3C44.7,44.9,44.1,45.4,43.4,45.4z"/>
		</g>
	</g>
</g>
<g>
	<g>
		<g>
			<circle fill="#99A6AB" cx="47.4" cy="25.9" r="1.4"/>
		</g>
		<g>
			<path fill="#04202D" d="M47.7,24.2c0.6,0.6,0.6,1.5,0,2c-0.6,0.6-1.5,0.6-2,0L47.7,24.2z"/>
		</g>
		<g>
			<circle fill="#4F616C" cx="46.5" cy="25.1" r="1.4"/>
		</g>
		<g>
			<path fill="#99A6AB" d="M45.6,25.1h-0.3c0-0.7,0.6-1.3,1.3-1.3v0.3C46,24.2,45.6,24.6,45.6,25.1z"/>
		</g>
		<g>
			<path fill="#FFFFFF" d="M46.5,26.3V26c0.5,0,1-0.4,1-1h0.3C47.8,25.8,47.2,26.3,46.5,26.3z"/>
		</g>
	</g>
	<g>
		<g>
			<circle fill="#99A6AB" cx="47.4" cy="29.1" r="1.4"/>
		</g>
		<g>
			<path fill="#04202D" d="M47.7,27.4c0.6,0.6,0.6,1.5,0,2c-0.6,0.6-1.5,0.6-2,0L47.7,27.4z"/>
		</g>
		<g>
			<circle fill="#4F616C" cx="46.5" cy="28.3" r="1.4"/>
		</g>
		<g>
			<path fill="#99A6AB" d="M45.6,28.3h-0.3c0-0.7,0.6-1.3,1.3-1.3v0.3C46,27.3,45.6,27.8,45.6,28.3z"/>
		</g>
		<g>
			<path fill="#FFFFFF" d="M46.5,29.5v-0.3c0.5,0,1-0.4,1-1h0.3C47.8,29,47.2,29.5,46.5,29.5z"/>
		</g>
	</g>
	<g>
		<g>
			<circle fill="#99A6AB" cx="47.4" cy="32.3" r="1.4"/>
		</g>
		<g>
			<path fill="#04202D" d="M47.7,30.6c0.6,0.6,0.6,1.5,0,2c-0.6,0.6-1.5,0.6-2,0L47.7,30.6z"/>
		</g>
		<g>
			<circle fill="#4F616C" cx="46.5" cy="31.5" r="1.4"/>
		</g>
		<g>
			<path fill="#99A6AB" d="M45.6,31.5h-0.3c0-0.7,0.6-1.3,1.3-1.3v0.3C46,30.5,45.6,30.9,45.6,31.5z"/>
		</g>
		<g>
			<path fill="#FFFFFF" d="M46.5,32.7v-0.3c0.5,0,1-0.4,1-1h0.3C47.8,32.1,47.2,32.7,46.5,32.7z"/>
		</g>
	</g>
	<g>
		<g>
			<circle fill="#99A6AB" cx="47.4" cy="35.5" r="1.4"/>
		</g>
		<g>
			<path fill="#04202D" d="M47.7,33.8c0.6,0.6,0.6,1.5,0,2c-0.6,0.6-1.5,0.6-2,0L47.7,33.8z"/>
		</g>
		<g>
			<circle fill="#4F616C" cx="46.5" cy="34.7" r="1.4"/>
		</g>
		<g>
			<path fill="#99A6AB" d="M45.6,34.7h-0.3c0-0.7,0.6-1.3,1.3-1.3v0.3C46,33.7,45.6,34.1,45.6,34.7z"/>
		</g>
		<g>
			<path fill="#FFFFFF" d="M46.5,35.9v-0.3c0.5,0,1-0.4,1-1h0.3C47.8,35.3,47.2,35.9,46.5,35.9z"/>
		</g>
	</g>
	<g>
		<g>
			<circle fill="#99A6AB" cx="47.4" cy="38.7" r="1.4"/>
		</g>
		<g>
			<path fill="#04202D" d="M47.7,36.9c0.6,0.6,0.6,1.5,0,2c-0.6,0.6-1.5,0.6-2,0L47.7,36.9z"/>
		</g>
		<g>
			<circle fill="#4F616C" cx="46.5" cy="37.8" r="1.4"/>
		</g>
		<g>
			<path fill="#99A6AB" d="M45.6,37.8h-0.3c0-0.7,0.6-1.3,1.3-1.3v0.3C46,36.9,45.6,37.3,45.6,37.8z"/>
		</g>
		<g>
			<path fill="#FFFFFF" d="M46.5,39.1v-0.3c0.5,0,1-0.4,1-1h0.3C47.8,38.5,47.2,39.1,46.5,39.1z"/>
		</g>
	</g>
	<g>
		<g>
			<circle fill="#99A6AB" cx="47.4" cy="41.8" r="1.4"/>
		</g>
		<g>
			<path fill="#04202D" d="M47.7,40.1c0.6,0.6,0.6,1.5,0,2c-0.6,0.6-1.5,0.6-2,0L47.7,40.1z"/>
		</g>
		<g>
			<circle fill="#4F616C" cx="46.5" cy="41" r="1.4"/>
		</g>
		<g>
			<path fill="#99A6AB" d="M45.6,41h-0.3c0-0.7,0.6-1.3,1.3-1.3v0.3C46,40.1,45.6,40.5,45.6,41z"/>
		</g>
		<g>
			<path fill="#FFFFFF" d="M46.5,42.3v-0.3c0.5,0,1-0.4,1-1h0.3C47.8,41.7,47.2,42.3,46.5,42.3z"/>
		</g>
	</g>
	<g>
		<g>
			<circle fill="#99A6AB" cx="47.4" cy="45" r="1.4"/>
		</g>
		<g>
			<path fill="#04202D" d="M47.7,43.3c0.6,0.6,0.6,1.5,0,2c-0.6,0.6-1.5,0.6-2,0L47.7,43.3z"/>
		</g>
		<g>
			<circle fill="#4F616C" cx="46.5" cy="44.2" r="1.4"/>
		</g>
		<g>
			<path fill="#99A6AB" d="M45.6,44.2h-0.3c0-0.7,0.6-1.3,1.3-1.3v0.3C46,43.2,45.6,43.7,45.6,44.2z"/>
		</g>
		<g>
			<path fill="#FFFFFF" d="M46.5,45.4v-0.3c0.5,0,1-0.4,1-1h0.3C47.8,44.9,47.2,45.4,46.5,45.4z"/>
		</g>
	</g>
</g>
<g>
	<g>
		<g>
			<circle fill="#99A6AB" cx="50.5" cy="25.9" r="1.4"/>
		</g>
		<g>
			<path fill="#04202D" d="M50.8,24.2c0.6,0.6,0.6,1.5,0,2c-0.6,0.6-1.5,0.6-2,0L50.8,24.2z"/>
		</g>
		<g>
			<circle fill="#4F616C" cx="49.7" cy="25.1" r="1.4"/>
		</g>
		<g>
			<path fill="#99A6AB" d="M48.7,25.1h-0.3c0-0.7,0.6-1.3,1.3-1.3v0.3C49.1,24.2,48.7,24.6,48.7,25.1z"/>
		</g>
		<g>
			<path fill="#FFFFFF" d="M49.6,26.3V26c0.5,0,1-0.4,1-1h0.3C50.9,25.8,50.3,26.3,49.6,26.3z"/>
		</g>
	</g>
	<g>
		<g>
			<circle fill="#99A6AB" cx="50.5" cy="29.1" r="1.4"/>
		</g>
		<g>
			<path fill="#04202D" d="M50.8,27.4c0.6,0.6,0.6,1.5,0,2c-0.6,0.6-1.5,0.6-2,0L50.8,27.4z"/>
		</g>
		<g>
			<circle fill="#4F616C" cx="49.7" cy="28.3" r="1.4"/>
		</g>
		<g>
			<path fill="#99A6AB" d="M48.7,28.3h-0.3c0-0.7,0.6-1.3,1.3-1.3v0.3C49.1,27.3,48.7,27.8,48.7,28.3z"/>
		</g>
		<g>
			<path fill="#FFFFFF" d="M49.6,29.5v-0.3c0.5,0,1-0.4,1-1h0.3C50.9,29,50.3,29.5,49.6,29.5z"/>
		</g>
	</g>
	<g>
		<g>
			<circle fill="#99A6AB" cx="50.5" cy="32.3" r="1.4"/>
		</g>
		<g>
			<path fill="#04202D" d="M50.8,30.6c0.6,0.6,0.6,1.5,0,2c-0.6,0.6-1.5,0.6-2,0L50.8,30.6z"/>
		</g>
		<g>
			<circle fill="#4F616C" cx="49.7" cy="31.5" r="1.4"/>
		</g>
		<g>
			<path fill="#99A6AB" d="M48.7,31.5h-0.3c0-0.7,0.6-1.3,1.3-1.3v0.3C49.1,30.5,48.7,30.9,48.7,31.5z"/>
		</g>
		<g>
			<path fill="#FFFFFF" d="M49.6,32.7v-0.3c0.5,0,1-0.4,1-1h0.3C50.9,32.1,50.3,32.7,49.6,32.7z"/>
		</g>
	</g>
	<g>
		<g>
			<circle fill="#99A6AB" cx="50.5" cy="35.5" r="1.4"/>
		</g>
		<g>
			<path fill="#04202D" d="M50.8,33.8c0.6,0.6,0.6,1.5,0,2c-0.6,0.6-1.5,0.6-2,0L50.8,33.8z"/>
		</g>
		<g>
			<circle fill="#4F616C" cx="49.7" cy="34.7" r="1.4"/>
		</g>
		<g>
			<path fill="#99A6AB" d="M48.7,34.7h-0.3c0-0.7,0.6-1.3,1.3-1.3v0.3C49.1,33.7,48.7,34.1,48.7,34.7z"/>
		</g>
		<g>
			<path fill="#FFFFFF" d="M49.6,35.9v-0.3c0.5,0,1-0.4,1-1h0.3C50.9,35.3,50.3,35.9,49.6,35.9z"/>
		</g>
	</g>
	<g>
		<g>
			<circle fill="#99A6AB" cx="50.5" cy="38.7" r="1.4"/>
		</g>
		<g>
			<path fill="#04202D" d="M50.8,36.9c0.6,0.6,0.6,1.5,0,2c-0.6,0.6-1.5,0.6-2,0L50.8,36.9z"/>
		</g>
		<g>
			<circle fill="#4F616C" cx="49.7" cy="37.8" r="1.4"/>
		</g>
		<g>
			<path fill="#99A6AB" d="M48.7,37.8h-0.3c0-0.7,0.6-1.3,1.3-1.3v0.3C49.1,36.9,48.7,37.3,48.7,37.8z"/>
		</g>
		<g>
			<path fill="#FFFFFF" d="M49.6,39.1v-0.3c0.5,0,1-0.4,1-1h0.3C50.9,38.5,50.3,39.1,49.6,39.1z"/>
		</g>
	</g>
	<g>
		<g>
			<circle fill="#99A6AB" cx="50.5" cy="41.8" r="1.4"/>
		</g>
		<g>
			<path fill="#04202D" d="M50.8,40.1c0.6,0.6,0.6,1.5,0,2c-0.6,0.6-1.5,0.6-2,0L50.8,40.1z"/>
		</g>
		<g>
			<circle fill="#4F616C" cx="49.7" cy="41" r="1.4"/>
		</g>
		<g>
			<path fill="#99A6AB" d="M48.7,41h-0.3c0-0.7,0.6-1.3,1.3-1.3v0.3C49.1,40.1,48.7,40.5,48.7,41z"/>
		</g>
		<g>
			<path fill="#FFFFFF" d="M49.6,42.3v-0.3c0.5,0,1-0.4,1-1h0.3C50.9,41.7,50.3,42.3,49.6,42.3z"/>
		</g>
	</g>
	<g>
		<g>
			<circle fill="#99A6AB" cx="50.5" cy="45" r="1.4"/>
		</g>
		<g>
			<path fill="#04202D" d="M50.8,43.3c0.6,0.6,0.6,1.5,0,2c-0.6,0.6-1.5,0.6-2,0L50.8,43.3z"/>
		</g>
		<g>
			<circle fill="#4F616C" cx="49.7" cy="44.2" r="1.4"/>
		</g>
		<g>
			<path fill="#99A6AB" d="M48.7,44.2h-0.3c0-0.7,0.6-1.3,1.3-1.3v0.3C49.1,43.2,48.7,43.7,48.7,44.2z"/>
		</g>
		<g>
			<path fill="#FFFFFF" d="M49.6,45.4v-0.3c0.5,0,1-0.4,1-1h0.3C50.9,44.9,50.3,45.4,49.6,45.4z"/>
		</g>
	</g>
</g>
<g>
	<polygon fill="#E4E4E4" points="57.6,48.2 29.8,48.2 31.8,46.2 33.6,46.2 52.3,27.6 52.3,25.7 57.6,20.3 	"/>
</g>
<g>
	<polygon fill="#FFFFFF" points="13.8,8.5 13.8,48.2 14.2,48.2 14.2,8.9 	"/>
</g>
<g>
	<polygon fill="#FFFFFF" points="12.1,7.6 11.9,7.4 11.9,8.5 12.1,8.5 	"/>
</g>
<g>
	<polygon fill="#FFFFFF" points="1,13.6 1,60.8 1.3,60.8 1.3,13.6 	"/>
</g>
<g>
	<path fill="#99A6AB" d="M56.2,59.6H15.7v-8.4H33l0,0.1c0,0,0,0,0,0.1c0,0,0,0,0,0c0,1.5,1.2,2.7,2.7,2.7c1.5,0,2.7-1.2,2.7-2.7
		c0,0,0,0,0,0c0,0,0,0,0-0.1l0-0.1h17.7V59.6z M16,59.4h39.9v-7.9H38.7c0,1.6-1.3,2.9-3,2.9c-1.6,0-2.9-1.3-3-2.9H16V59.4z"/>
</g>
<g>
	<rect x="52.3" y="22.5" fill="#E4E4E4" width="0.3" height="24.1"/>
</g>
<g>
	<polygon fill="#FFFFFF" points="28.5,46.2 28.2,46.5 52.6,46.5 52.3,46.2 	"/>
</g>
<g>
	<polygon fill="#E4E4E4" points="57.6,8.9 54.3,12.2 54.3,13.2 50.1,17.4 49.2,17.4 46.2,20.4 57.6,20.4 	"/>
</g>
<g>
	<polygon fill="#E4E4E4" points="53.6,1.2 51.7,3.2 51.7,3.7 48.8,6.6 48.2,6.6 47.5,7.3 53.6,7.3 	"/>
</g>
<g>
	<path fill="#E4E4E4" d="M37.2,5.8c-0.8,0-1.4-0.6-1.4-1.4v0c0-0.8,0.6-1.4,1.4-1.4c0.5,0,0.8,0.2,1.1,0.4l-0.1,0.1
		c-0.2-0.2-0.5-0.4-0.9-0.4c-0.7,0-1.2,0.5-1.2,1.2v0c0,0.7,0.5,1.2,1.2,1.2c0.4,0,0.7-0.2,0.9-0.4l0.1,0.1
		C38,5.6,37.7,5.8,37.2,5.8z"/>
	<path fill="#E4E4E4" d="M41.1,5.7l-0.3-0.8h-1.6l-0.3,0.8h-0.2L39.9,3h0.2l1.3,2.8H41.1z M40,3.2l-0.7,1.6h1.4L40,3.2z"/>
	<path fill="#E4E4E4" d="M42.8,5.7c-0.4,0-0.8-0.1-1.1-0.4l0.1-0.2c0.3,0.3,0.6,0.4,1,0.4c0.4,0,0.7-0.2,0.7-0.5v0
		c0-0.3-0.2-0.5-0.8-0.6c-0.7-0.1-0.9-0.4-0.9-0.8v0c0-0.4,0.4-0.7,0.9-0.7c0.4,0,0.7,0.1,0.9,0.3l-0.1,0.2
		c-0.3-0.2-0.5-0.3-0.8-0.3c-0.4,0-0.7,0.2-0.7,0.5v0c0,0.3,0.1,0.5,0.8,0.6c0.6,0.1,0.9,0.4,0.9,0.8v0C43.7,5.4,43.3,5.7,42.8,5.7z
		"/>
	<path fill="#E4E4E4" d="M46.3,5.7V4.4h-1.8v1.3h-0.2V3h0.2v1.3h1.8V3h0.2v2.7H46.3z"/>
</g>
<g>
	<path fill="#E4E4E4" d="M37.8,12.2h1.9v0.2h-1.7L38,13.7c0.2-0.1,0.4-0.2,0.7-0.2c0.6,0,1.1,0.4,1.1,1c0,0.6-0.5,1.1-1.2,1.1
		c-0.5,0-0.9-0.2-1.2-0.5l0.2-0.2c0.3,0.3,0.6,0.5,1,0.5c0.5,0,0.9-0.4,0.9-0.8c0-0.5-0.4-0.8-0.9-0.8c-0.3,0-0.5,0.1-0.8,0.2
		l-0.2-0.1L37.8,12.2z"/>
	<path fill="#E4E4E4" d="M42.6,12.8c-0.3-0.2-0.5-0.4-0.8-0.4c-0.7,0-1.1,0.7-1.1,1.7c0.2-0.3,0.5-0.6,1-0.6c0.6,0,1.2,0.4,1.2,1
		c0,0.6-0.5,1.1-1.2,1.1c-0.3,0-0.6-0.1-0.9-0.3c-0.3-0.3-0.4-0.6-0.4-1.3c0-1,0.5-1.8,1.4-1.8c0.4,0,0.7,0.1,1,0.4L42.6,12.8z
		 M41.7,13.7c-0.5,0-0.9,0.4-0.9,0.8c0,0.5,0.4,0.8,0.9,0.8c0.5,0,0.9-0.4,0.9-0.9C42.6,14.1,42.3,13.7,41.7,13.7z"/>
</g>
<g>
	<path fill="#E4E4E4" d="M48.7,12.2v2.3h0.5v0.2h-0.5v0.8h-0.2v-0.8h-1.8l-0.1-0.2l1.9-2.4H48.7z M48.5,12.6l-1.6,2h1.6V12.6z"/>
	<path fill="#E4E4E4" d="M50,12.5v-0.2h2.1v0.2l-1.1,1.3c0.6,0,1.2,0.3,1.2,1c0,0.6-0.5,1-1.1,1c-0.5,0-1-0.2-1.2-0.6l0.2-0.2
		c0.3,0.3,0.6,0.5,1,0.5c0.4,0,0.8-0.3,0.8-0.7c0-0.5-0.4-0.7-1-0.7h-0.2l-0.1-0.1l1.2-1.3H50z"/>
</g>
<g>
	<polygon fill="#E4E4E4" points="57.6,60.8 45.4,60.8 57.6,48.5 	"/>
</g>
<g>
	<polygon fill="#FFFFFF" points="55.7,48.2 55.1,48.2 55.1,20.4 55.7,19.9 	"/>
</g>
</svg>
