<?xml version="1.0" encoding="utf-8"?>
<!-- Generator: Adobe Illustrator 18.0.0, SVG Export Plug-In . SVG Version: 6.00 Build 0)  -->
<!DOCTYPE svg PUBLIC "-//W3C//DTD SVG 1.1//EN" "http://www.w3.org/Graphics/SVG/1.1/DTD/svg11.dtd">
<svg version="1.1" id="Layer_1" xmlns="http://www.w3.org/2000/svg" xmlns:xlink="http://www.w3.org/1999/xlink" x="0px" y="0px"
	 viewBox="0 0 121.2 64.4" enable-background="new 0 0 121.2 64.4" xml:space="preserve">
<polygon fill="#9A9B9C" points="121.2,63.2 118.7,62.8 72.5,62.1 74.6,64 37.9,64 44.2,64.4 80,64.4 "/>
<polygon fill="#E4E4E4" points="39.5,64.1 2.9,64.1 20.4,0.8 57,0.8 "/>
<polygon fill="#193642" points="74.5,64.1 38,64.1 40.9,63.3 77.4,63.3 "/>
<polygon fill="#E4E4E4" points="20.5,0.8 57,0.8 54,0 17.5,0 "/>
<polygon fill="#E4E4E4" points="40.8,63.3 77.4,63.3 59.8,0 23.3,0 "/>
<g>
	<rect x="8.7" y="-0.8" transform="matrix(0.9637 0.2669 -0.2669 0.9637 8.9237 -1.5633)" fill="#FFFFFF" width="3" height="65.7"/>
</g>
<g>

		<rect x="29.1" y="-0.8" transform="matrix(-0.9637 0.2669 -0.2669 -0.9637 68.7193 54.755)" fill="#FFFFFF" width="3" height="65.7"/>
</g>
<path fill="#193642" d="M55.2,10c-2.5,0-4.9-1.1-5.8-1.5c-1.5-0.7-3.1-1.2-4.7-1.3c-0.2,0-0.4-0.1-0.8-0.1c-0.3,0-0.6,0-0.8,0.1
	c-1.5,0.1-2.9,0.6-4,1.3c-0.6,0.4-2.4,1.5-4.9,1.5c-1,0-3.4,0-3.4,0L44,57.5h6.1h15.5h6.1L58.6,10C58.6,10,56.3,10,55.2,10z"/>
<g>
	<path fill="#99A6AB" d="M58.6,11h-3.4c-2.6,0-5-1.1-6-1.6c-1.5-0.7-3-1.2-4.5-1.3c-0.2,0-0.4,0-0.7,0c-0.4,0-0.6,0-0.7,0
		c-1.5,0.1-2.8,0.5-3.8,1.2c-0.7,0.5-2.6,1.6-5.2,1.6h-3.1L31,10h3.4c2.4,0,4.2-1.1,4.6-1.4c1.2-0.8,2.6-1.3,4.2-1.4
		c0.1,0,0.4-0.1,0.8-0.1c0.4,0,0.7,0,0.9,0.1c1.6,0.1,3.3,0.6,4.8,1.4c0.7,0.3,3.1,1.5,5.5,1.5h3.4V11z"/>
</g>
<polygon fill="#FFFFFF" points="40.9,63.3 77.4,63.3 59.8,0 58.6,10 71.7,57.5 44,57.5 "/>
<g>
	<polygon fill="#E4E4E4" points="71,57.5 71.7,57.5 58.6,10 58.3,11 	"/>
</g>
<path fill="none" stroke="#4F656F" stroke-width="0.5" stroke-linecap="round" stroke-miterlimit="10" d="M32.4,39.1
	c-6.7,6.7-17.6,6.7-24.3,0"/>
<circle fill="#4F656F" cx="8.2" cy="39.1" r="0.8"/>
<circle fill="#4F656F" cx="32.3" cy="39.1" r="0.8"/>
<g>
	<path fill="#E4E4E4" d="M41.6,37.4l2.3-3.2c0.9-1.2,1.2-1.8,0.9-2.8c-0.3-1-1-1.5-1.7-1.5c-0.7,0-1.1,0.5-1.5,1.6L39.6,30
		c0.5-1.6,1.2-2.4,2.9-2.4c2,0,3.7,1.4,4.3,3.6l0,0c0.5,1.9,0,2.9-1.3,4.5l-1.2,1.5h4.2l0.6,2.2h-7.2L41.6,37.4z"/>
	<path fill="#E4E4E4" d="M53.3,36.6l-0.7,2.8h-2.2l1.4-4.5L48,30.5h2.3l2.1,2.6l0.7-2.6h2.2l-1.3,4.3l3.9,4.5h-2.3L53.3,36.6z"/>
	<path fill="#E4E4E4" d="M58.1,30.3l-1.6,0.5l-1-2.1l2.5-1h1.5l3.2,11.7h-2.1L58.1,30.3z"/>
</g>
<path fill="none" stroke="#E4E4E4" stroke-linecap="round" stroke-miterlimit="10" d="M51.1,46.2c-1.2-1.1-2.9-1.1-3.6,0
	c-0.8,1.1-0.4,2.8,0.9,3.9c1.2,1.1,2.9,1.1,3.6,0l4.2-6.1c0.8-1.1,2.4-1.1,3.6,0c1.2,1.1,1.6,2.8,0.9,3.9C60,49,58.4,49,57.1,48"/>
<path fill="none" stroke="#E4E4E4" stroke-linecap="round" stroke-miterlimit="10" d="M44.7,18.9c-1.2-1.1-2.9-1.1-3.6,0
	c-0.8,1.1-0.4,2.8,0.9,3.9c1.2,1.1,2.9,1.1,3.6,0l4.2-6.1c0.8-1.1,2.4-1.1,3.6,0c1.2,1.1,1.6,2.8,0.9,3.9c-0.8,1.1-2.4,1.1-3.6,0"/>
</svg>
