<?xml version="1.0" encoding="utf-8"?>
<!-- Generator: Adobe Illustrator 18.0.0, SVG Export Plug-In . SVG Version: 6.00 Build 0)  -->
<!DOCTYPE svg PUBLIC "-//W3C//DTD SVG 1.1//EN" "http://www.w3.org/Graphics/SVG/1.1/DTD/svg11.dtd">
<svg version="1.1" id="Layer_2" xmlns="http://www.w3.org/2000/svg" xmlns:xlink="http://www.w3.org/1999/xlink" x="0px" y="0px"
	 viewBox="271 365.8 67.2 55.6" enable-background="new 271 365.8 67.2 55.6" xml:space="preserve">
<rect x="272.4" y="396.5" fill="#E4E4E4" width="38.7" height="5.7"/>
<rect x="272.4" y="396" fill="#E4E4E4" width="38" height="6.2"/>
<path fill="#E4E4E4" d="M337.4,420.4c-1.2,0-13.7,1-25.8,1c-11.1,0-21.9,0-23.3,0c-2.8,0-2.1-2.5,0-2.5c1,0,12,0,23.3,0
	c11.9,0,24.2,1,25.8,1C338.3,419.9,338.6,420.4,337.4,420.4z"/>
<g>
	<path fill="#FFFFFF" d="M271.2,402.2c1.2,10.1,9.8,17.9,20.2,17.9s19-7.8,20.2-17.9H271.2z"/>
</g>
<g>
	<rect x="291" y="400.3" fill="#50656F" width="0.7" height="1.6"/>
	<rect x="292.9" y="400.9" fill="#50656F" width="0.4" height="1"/>
	<rect x="295" y="400.9" fill="#50656F" width="0.4" height="1"/>
	<rect x="297" y="400.9" fill="#50656F" width="0.4" height="1"/>
	<rect x="299.1" y="400.9" fill="#50656F" width="0.4" height="1"/>
	<rect x="300.7" y="400.3" fill="#50656F" width="0.7" height="1.6"/>
	<rect x="282.7" y="400.3" fill="#50656F" width="0.7" height="1.6"/>
	<rect x="273.9" y="400.3" fill="#50656F" width="0.7" height="1.6"/>
	<rect x="302.5" y="400.9" fill="#50656F" width="0.4" height="1"/>
	<rect x="304.4" y="400.9" fill="#50656F" width="0.4" height="1"/>
	<rect x="306.3" y="400.9" fill="#50656F" width="0.4" height="1"/>
	<rect x="308.2" y="400.9" fill="#50656F" width="0.4" height="1"/>
	<rect x="309.5" y="400.3" fill="#50656F" width="0.7" height="1.6"/>
</g>
<polygon fill="#50656F" points="289.5,405.8 291.3,402.9 293.2,405.8 "/>
<g>
	<path fill="#FFFFFF" d="M311.6,396c0-0.5,0.1-1,0.1-1.5c0-11.2-9.1-28.7-20.3-28.7c-11.2,0-20.3,17.5-20.3,28.7c0,0.5,0,1,0.1,1.5
		H311.6z"/>
</g>
<rect x="272.4" y="396" fill="#97A4A9" width="38" height="0.5"/>
<rect x="271" y="395.9" fill="#E4E4E4" width="40.7" height="0.2"/>
<path fill="#E4E4E4" d="M290.8,396h20.8c0-0.5,0.1-1,0.1-1.5c0-8.4-5.1-20.3-12.4-25.8c-2.4-1.8-7.9-0.8-7.9,5.2c0,3.5,0,7.7,0,12.1
	C291.3,388.5,291.4,392.3,290.8,396z"/>
<g>
	<path fill="#E4E4E4" d="M290.7,402.2c-0.5,3-1.5,6-3.3,8.3c-2,2.6-4.3,4.9-3.1,6.9c1.5,2.6,5,2.7,7.2,2.7c10.4,0,19-7.8,20.2-17.9
		h-0.5H290.7z"/>
</g>
<rect x="271.4" y="402.2" fill="#FFFFFF" width="40.1" height="0.2"/>
<rect x="272.4" y="396" fill="#E4E4E4" width="38" height="2.6"/>
<g>
	<text transform="matrix(1 0 0 1 290.228 399.7832)" fill="#50656F" font-family="'ArialMT'" font-size="4.3479">0</text>
	<text transform="matrix(1 0 0 1 273.1284 399.7832)" fill="#50656F" font-family="'ArialMT'" font-size="4.3479">0</text>
	<text transform="matrix(1 0 0 1 299.9644 399.7832)" fill="#50656F" font-family="'ArialMT'" font-size="4.3479">5</text>
	<text transform="matrix(1 0 0 1 308.624 399.7832)" fill="#50656F" font-family="'ArialMT'" font-size="4.3479">1</text>
	<text transform="matrix(1 0 0 1 280.8901 399.7832)" fill="#50656F" font-family="'ArialMT'" font-size="4.3479">55</text>
</g>
<rect x="291.9" y="396" fill="#E4E4E4" width="18" height="6.2"/>
</svg>
