<?xml version="1.0" encoding="utf-8"?>
<!-- Generator: Adobe Illustrator 18.0.0, SVG Export Plug-In . SVG Version: 6.00 Build 0)  -->
<!DOCTYPE svg PUBLIC "-//W3C//DTD SVG 1.1//EN" "http://www.w3.org/Graphics/SVG/1.1/DTD/svg11.dtd">
<svg version="1.1" id="Layer_2" xmlns="http://www.w3.org/2000/svg" xmlns:xlink="http://www.w3.org/1999/xlink" x="0px" y="0px"
	 viewBox="0 0 61.7 48.5" enable-background="new 0 0 61.7 48.5" xml:space="preserve">
<g>
	<rect x="0" y="0.1" fill="#E4E4E4" width="40.4" height="45"/>
</g>
<g>
	<rect x="20.5" y="7.8" fill="#99A6AB" width="18.5" height="30.8"/>
</g>
<g>
	<path fill="#193642" d="M33,31.2c0.2-0.3,0.3-0.6,0.3-1c0-1-0.8-1.8-1.8-1.8c-0.2,0-0.7-0.3-0.9-0.4c-0.5-0.6-1.2-1.1-2.1-1.1
		c-0.8,0-1.5,0.3-1.9,0.9c-0.2,0.2-0.9,0.5-1.1,0.5c-0.2,0-0.3-0.1-0.5-0.1c-0.5,0-0.9,0.2-1.2,0.4c-0.2,0.2-0.9,0.5-1.1,0.5
		c-0.1,0-0.2,0-0.2,0c-0.8,0-1.4,0.6-1.4,1.4c0,0.2,0.1,0.5,0.2,0.7H33z"/>
</g>
<g>
	<path fill="#FFFFFF" d="M17.1,13c-0.2-0.3-0.3-0.6-0.3-1c0-1,0.8-1.8,1.8-1.8c0.2,0,0.7-0.3,0.9-0.4c0.5-0.6,1.2-1.1,2.1-1.1
		c0.8,0,1.5,0.3,1.9,0.9c0.2,0.2,0.9,0.5,1.1,0.5c0.2,0,0.3-0.1,0.5-0.1c0.5,0,0.9,0.2,1.2,0.4c0.2,0.2,0.9,0.5,1.1,0.5
		c0.1,0,0.2,0,0.2,0c0.8,0,1.4,0.6,1.4,1.4c0,0.2-0.1,0.5-0.2,0.7H17.1z"/>
</g>
<g>
	<path fill="#E4E4E4" d="M29,12.3c0-0.8-0.6-1.4-1.4-1.4c-0.1,0-0.2,0-0.2,0c-0.2,0-0.9-0.3-1.1-0.5c-0.1-0.1-0.2-0.1-0.3-0.2
		L23.2,13h5.6C28.9,12.8,29,12.6,29,12.3z"/>
</g>
<g>
	<rect x="0" y="7.8" fill="#E4E4E4" width="20.5" height="30.8"/>
</g>
<g>
	<polygon fill="#FFFFFF" points="0,20.8 0,38.6 20.5,38.6 20.5,7.8 13,7.8 	"/>
</g>
<g>
	<polygon fill="#E4E4E4" points="20.1,7.8 0,27.9 0,34.9 20.1,14.8 	"/>
</g>
<g>
	<polygon fill="#E4E4E4" points="20.1,18.8 0.2,38.7 20.1,38.7 	"/>
</g>
<g>
	<rect x="41.1" y="6.7" fill="#E4E4E4" width="19.8" height="32"/>
</g>
<g>
	<rect x="25.9" y="14.4" fill="#E4E4E4" width="1.9" height="4.6"/>
</g>
<g>
	<rect x="27.9" y="17.9" fill="#4F656F" width="4.6" height="1.1"/>
</g>
<g>
	<rect x="32.9" y="18.3" fill="#4F656F" width="4.6" height="0.6"/>
</g>
<g>
	<rect x="32.9" y="17.4" fill="#4F656F" width="4.6" height="0.6"/>
</g>
<g>
	<rect x="32.9" y="16.5" fill="#193642" width="4.6" height="0.6"/>
</g>
<g>
	<rect x="32.9" y="15.6" fill="#4F656F" width="4.6" height="0.6"/>
</g>
<g>
	<rect x="32.9" y="14.8" fill="#4F656F" width="4.6" height="0.6"/>
</g>
<g>
	<rect x="23.7" y="14.4" fill="#193642" width="1.9" height="4.6"/>
</g>
<g>
	<rect x="21.5" y="14.4" fill="#193642" width="1.9" height="4.6"/>
</g>
<g>
	<circle fill="#E4E4E4" cx="30" cy="16.2" r="1.7"/>
</g>
<g>
	<path fill="#E4E4E4" d="M31.3,14.9c0.7,0.7,0.7,1.8,0,2.4c-0.7,0.7-1.8,0.7-2.4,0C29.6,16.6,30.8,15.4,31.3,14.9z"/>
</g>
<g>
	<rect x="25.8" y="36.2" fill="#E4E4E4" width="6" height="2.5"/>
</g>
<g>
	<path fill="#193642" d="M22,22c0-0.3,0-1.5,0-1.5h-0.7c0,0,0,1.2,0,1.5c0,0.3-0.6,0.5-0.6,1c0,0.4,0,2.2,0,2.2h1.9c0,0,0-1.8,0-2.2
		C22.6,22.6,22,22.3,22,22z"/>
</g>
<g>
	<path fill="#193642" d="M22.6,23c0-0.4-0.6-0.7-0.6-1s0-1.5,0-1.5h-0.4v4.7h1C22.6,25.1,22.6,23.4,22.6,23z"/>
</g>
<g>
	<path fill="#193642" d="M24.1,22c0-0.3,0-1.5,0-1.5h-0.7c0,0,0,1.2,0,1.5c0,0.3-0.6,0.5-0.6,1c0,0.4,0,2.2,0,2.2h1.9
		c0,0,0-1.8,0-2.2C24.7,22.6,24.1,22.3,24.1,22z"/>
</g>
<g>
	<path fill="#193642" d="M24.7,23c0-0.4-0.6-0.7-0.6-1s0-1.5,0-1.5h-0.4v4.7h1C24.7,25.1,24.7,23.4,24.7,23z"/>
</g>
<g>
	<path fill="#193642" d="M26.2,22c0-0.3,0-1.5,0-1.5h-0.7c0,0,0,1.2,0,1.5c0,0.3-0.6,0.5-0.6,1c0,0.4,0,2.2,0,2.2h1.9
		c0,0,0-1.8,0-2.2C26.7,22.6,26.2,22.3,26.2,22z"/>
</g>
<g>
	<path fill="#193642" d="M26.7,23c0-0.4-0.6-0.7-0.6-1s0-1.5,0-1.5h-0.4v4.7h1C26.7,25.1,26.7,23.4,26.7,23z"/>
</g>
<g>
	<path fill="#193642" d="M28.2,22c0-0.3,0-1.5,0-1.5h-0.7c0,0,0,1.2,0,1.5c0,0.3-0.6,0.5-0.6,1c0,0.4,0,2.2,0,2.2h1.9
		c0,0,0-1.8,0-2.2C28.8,22.6,28.2,22.3,28.2,22z"/>
</g>
<g>
	<path fill="#193642" d="M28.8,23c0-0.4-0.6-0.7-0.6-1s0-1.5,0-1.5h-0.4v4.7h1C28.8,25.1,28.8,23.4,28.8,23z"/>
</g>
<g>
	<path fill="#193642" d="M30.3,22c0-0.3,0-1.5,0-1.5h-0.7c0,0,0,1.2,0,1.5c0,0.3-0.6,0.5-0.6,1c0,0.4,0,2.2,0,2.2h1.9
		c0,0,0-1.8,0-2.2C30.9,22.6,30.3,22.3,30.3,22z"/>
</g>
<g>
	<path fill="#193642" d="M30.9,23c0-0.4-0.6-0.7-0.6-1s0-1.5,0-1.5h-0.4v4.7h1C30.9,25.1,30.9,23.4,30.9,23z"/>
</g>
<g>
	<path fill="#193642" d="M32.3,22c0-0.3,0-1.5,0-1.5h-0.7c0,0,0,1.2,0,1.5c0,0.3-0.6,0.5-0.6,1c0,0.4,0,2.2,0,2.2h1.9
		c0,0,0-1.8,0-2.2C32.9,22.6,32.3,22.3,32.3,22z"/>
</g>
<g>
	<path fill="#193642" d="M32.9,23c0-0.4-0.6-0.7-0.6-1s0-1.5,0-1.5H32v4.7h1C32.9,25.1,32.9,23.4,32.9,23z"/>
</g>
<g>
	<path fill="#193642" d="M34.4,22c0-0.3,0-1.5,0-1.5h-0.7c0,0,0,1.2,0,1.5c0,0.3-0.6,0.5-0.6,1c0,0.4,0,2.2,0,2.2H35
		c0,0,0-1.8,0-2.2C35,22.6,34.4,22.3,34.4,22z"/>
</g>
<g>
	<path fill="#193642" d="M35,23c0-0.4-0.6-0.7-0.6-1s0-1.5,0-1.5H34v4.7h1C35,25.1,35,23.4,35,23z"/>
</g>
<g>
	<path fill="#E4E4E4" d="M36.5,22c0-0.3,0-1.5,0-1.5h-0.7c0,0,0,1.2,0,1.5c0,0.3-0.6,0.5-0.6,1c0,0.4,0,2.2,0,2.2h1.9
		c0,0,0-1.8,0-2.2C37.1,22.6,36.5,22.3,36.5,22z"/>
</g>
<g>
	<path fill="#E4E4E4" d="M37.1,23c0-0.4-0.6-0.7-0.6-1s0-1.5,0-1.5h-0.4v4.7h1C37.1,25.1,37.1,23.4,37.1,23z"/>
</g>
<g>
	<polygon fill="#4F656F" points="39.1,15.3 27.1,15.3 27.1,38.6 20.5,38.6 20.5,7.8 39.1,7.8 	"/>
</g>
<g>
	<rect x="0.5" y="25" fill="#E4E4E4" width="19.8" height="1.8"/>
</g>
<g>
	<rect x="20.1" y="8.1" fill="#E4E4E4" width="0.4" height="30.5"/>
</g>
<g>
	<rect x="0.3" y="7.8" fill="#4F656F" width="19.8" height="0.3"/>
</g>
<g>
	<rect x="0.3" y="38.4" fill="#4F656F" width="20.2" height="0.3"/>
</g>
<g>
	<rect x="0" y="0" fill="#E4E4E4" width="40.3" height="1.2"/>
</g>
<g>
	<polygon fill="#99A6AB" points="61.7,48.2 40.3,48.2 40.3,47.4 0,47.4 0,48.5 61.7,48.5 	"/>
</g>
<g>
	<polygon fill="#E4E4E4" points="39.9,41.1 0.6,41.1 0.8,40 39.8,40 	"/>
</g>
<g>
	<rect x="0.5" y="24.6" fill="#E4E4E4" width="19.8" height="1.4"/>
</g>
<g>
	<rect x="0.4" y="24.6" fill="#FFFFFF" width="19.8" height="0.3"/>
</g>
<g>
	<rect x="0.4" y="25.5" fill="#99A6AB" width="19.8" height="0.3"/>
</g>
<g>
	<polygon fill="#99A6AB" points="39.8,40.4 0.7,40.4 0.8,40 39.8,40 	"/>
</g>
<g>
	<polygon fill="#E4E4E4" points="39.9,42.6 0.6,42.6 0.8,41.6 39.8,41.6 	"/>
</g>
<g>
	<polygon fill="#99A6AB" points="39.8,42 0.7,42 0.8,41.6 39.8,41.6 	"/>
</g>
<g>
	<polygon fill="#E4E4E4" points="39.9,44.2 0.6,44.2 0.8,43.2 39.8,43.2 	"/>
</g>
<g>
	<polygon fill="#99A6AB" points="39.8,43.5 0.7,43.5 0.8,43.2 39.8,43.2 	"/>
</g>
<g>
	<rect x="0" y="38.7" fill="#FFFFFF" width="0.3" height="6.4"/>
</g>
<g>
	<rect x="0" y="8.1" fill="#FFFFFF" width="0.3" height="30.2"/>
</g>
<g>
	<polygon fill="#FFFFFF" points="40.1,0.3 40.1,0 0,0 0,7.8 0.3,7.8 0.3,0.3 	"/>
</g>
<g>
	<rect x="0" y="24.6" fill="#99A6AB" width="0.4" height="1.5"/>
</g>
<g>
	<rect x="1" y="2" fill="#E4E4E4" width="39" height="3.8"/>
</g>
<g>
	<polygon fill="#FFFFFF" points="39.9,6.1 39.9,1.9 39.4,5.6 	"/>
</g>
<g>
	<rect x="32" y="3" fill="#E4E4E4" width="6.5" height="1.7"/>
</g>
<g>
	<polygon fill="#E4E4E4" points="39.9,6.1 0.9,6.1 0.9,1.9 1.5,5.6 39.9,5.6 	"/>
</g>
<g>
	<rect x="0.9" y="5.8" fill="#FFFFFF" width="39" height="0.3"/>
</g>
<g>
	<rect x="32.4" y="32.7" fill="#E4E4E4" width="6" height="6"/>
</g>
<g>
	<polygon fill="#E4E4E4" points="41.1,27.8 41.1,38.7 61.1,38.7 61.1,7.8 	"/>
</g>
<g>
	<polygon fill="#E4E4E4" points="60,7.9 60,37.7 41.3,37.7 41.1,38.7 60.9,38.7 60.9,6.7 	"/>
</g>
<g>
	<polygon fill="#FFFFFF" points="42.2,37.7 42.2,7.9 59.9,7.9 60.9,6.7 41.1,6.7 41.1,38.7 	"/>
</g>
<g>
	<rect x="40.4" y="30.1" fill="#4F616C" width="0.7" height="6.5"/>
</g>
<g>
	<rect x="40.4" y="8.9" fill="#4F616C" width="0.7" height="6.5"/>
</g>
<g>
	<rect x="40.8" y="30.1" fill="#193642" width="0.4" height="6.5"/>
</g>
<g>
	<rect x="40.8" y="8.9" fill="#193642" width="0.4" height="6.5"/>
</g>
<g>
	<path fill="#99A6AB" d="M31.5,28.5c-0.1,0-0.2,0-0.3-0.1l-2.9,2.9H33c0.2-0.3,0.3-0.6,0.3-1C33.3,29.3,32.5,28.5,31.5,28.5z"/>
</g>
<g>
	<g>
		<rect x="20.5" y="12.9" fill="#FFFFFF" width="18.5" height="0.4"/>
	</g>
	<g>
		<polygon fill="#4F656F" points="22.8,12.9 20.5,12.9 20.5,13.3 39,13.3 39,13.2 22.5,13.2 		"/>
	</g>
</g>
<g>
	<g>
		<rect x="20.5" y="18.9" fill="#FFFFFF" width="18.5" height="0.4"/>
	</g>
	<g>
		<polygon fill="#4F656F" points="22.8,18.9 20.5,18.9 20.5,19.4 39,19.4 39,19.2 22.5,19.2 		"/>
	</g>
</g>
<g>
	<g>
		<rect x="20.5" y="25" fill="#FFFFFF" width="18.5" height="0.4"/>
	</g>
	<g>
		<polygon fill="#4F656F" points="22.8,25 20.5,25 20.5,25.4 39,25.4 39,25.3 22.5,25.3 		"/>
	</g>
</g>
<g>
	<g>
		<rect x="20.5" y="31" fill="#FFFFFF" width="18.5" height="0.4"/>
	</g>
	<g>
		<polygon fill="#4F656F" points="22.8,31 20.5,31 20.5,31.5 39,31.5 39,31.3 22.5,31.3 		"/>
	</g>
</g>
<g>
	<g>
		<rect x="35.3" y="32.6" fill="#FFFFFF" width="0.2" height="6.1"/>
	</g>
	<g>
		<rect x="35.4" y="32.6" fill="#4F656F" width="0.1" height="6.1"/>
	</g>
</g>
<g>
	<g>
		<rect x="32.4" y="35.5" fill="#FFFFFF" width="6.1" height="0.2"/>
	</g>
	<g>
		<rect x="32.4" y="35.7" fill="#4F656F" width="6.1" height="0.1"/>
	</g>
</g>
<g>
	<polygon fill="#E4E4E4" points="38.4,38.7 32.4,38.7 38.4,32.7 	"/>
</g>
<g>
	<g>
		<circle fill="#E4E4E4" cx="2.1" cy="46.7" r="1.5"/>
	</g>
	<g>
		<path fill="#E4E4E4" d="M2.1,45.2c-0.5,0-1,0.3-1.2,0.7h0.3l0.2,0.2h1.3l0.2-0.2h0.4C3.1,45.5,2.6,45.2,2.1,45.2z"/>
	</g>
	<g>
		<path fill="#99A6AB" d="M1.1,46.7H0.9c0-0.7,0.6-1.2,1.2-1.2v0.2C1.6,45.8,1.1,46.2,1.1,46.7z"/>
	</g>
	<g>
		<path fill="#FFFFFF" d="M2.1,48v-0.2c0.5,0,1-0.4,1-1h0.2C3.4,47.4,2.8,48,2.1,48z"/>
	</g>
</g>
<g>
	<g>
		<circle fill="#E4E4E4" cx="38.8" cy="46.7" r="1.5"/>
	</g>
	<g>
		<path fill="#E4E4E4" d="M38.8,45.2c-0.5,0-1,0.3-1.2,0.7h0.3l0.2,0.2h1.3l0.2-0.2H40C39.7,45.5,39.3,45.2,38.8,45.2z"/>
	</g>
	<g>
		<path fill="#99A6AB" d="M37.8,46.7h-0.2c0-0.7,0.6-1.2,1.2-1.2v0.2C38.2,45.8,37.8,46.2,37.8,46.7z"/>
	</g>
	<g>
		<path fill="#FFFFFF" d="M38.8,48v-0.2c0.5,0,1-0.4,1-1H40C40,47.4,39.5,48,38.8,48z"/>
	</g>
</g>
<g>
	<polygon fill="#FFFFFF" points="14.6,6.1 13,7.8 19.8,7.8 21.5,6.1 	"/>
</g>
<g>
	<polygon fill="#FFFFFF" points="19.5,1.3 18.8,2 25.6,2 26.3,1.3 	"/>
</g>
<g>
	<polygon fill="#FFFFFF" points="33.5,1.3 32.8,2 36.9,2 37.6,1.3 	"/>
</g>
</svg>
