<?xml version="1.0" encoding="utf-8"?>
<!-- Generator: Adobe Illustrator 18.0.0, SVG Export Plug-In . SVG Version: 6.00 Build 0)  -->
<!DOCTYPE svg PUBLIC "-//W3C//DTD SVG 1.1//EN" "http://www.w3.org/Graphics/SVG/1.1/DTD/svg11.dtd">
<svg version="1.1" id="Layer_1" xmlns="http://www.w3.org/2000/svg" xmlns:xlink="http://www.w3.org/1999/xlink" x="0px" y="0px"
	 viewBox="0 0 103.1 114.4" enable-background="new 0 0 103.1 114.4" xml:space="preserve">
<g>
	<g>
		<path fill="#99A6AB" d="M41.3,6.1L3.7,11.4v34.4L1,48.6c0,0-0.1,2.7,2.7,2.7c2.9,0,43.4,0,43.4,0V6.1L41.3,6.1z"/>
	</g>
	<g>
		<rect x="15.5" y="0" fill="#FFFFFF" width="14.4" height="8.1"/>
	</g>
	<g>
		<path fill="#E4E4E4" d="M23.3,5h6.6V0.6h-2.4C23.3,0.6,23.3,5,23.3,5z"/>
	</g>
	<g>
		<path fill="#E4E4E4" d="M22.2,5h-5.6V0.6h1.4C22.2,0.6,22.2,5,22.2,5z"/>
	</g>
	<g>
		<path fill="#FFFFFF" d="M21.7,5h-6.2V0.6h2C21.7,0.6,21.7,5,21.7,5z"/>
	</g>
	<g>
		<path fill="#FFFFFF" d="M1,5c0,11.7,0,43.5,0,43.5h43.4V5H1z"/>
	</g>
	<g>
		<g>
			<circle fill="#193642" cx="12.4" cy="10.7" r="1.5"/>
		</g>
		<g>
			<circle fill="#193642" cx="31.9" cy="10.7" r="1.5"/>
		</g>
		<g>
			<circle fill="#193642" cx="12.4" cy="19" r="1.5"/>
		</g>
		<g>
			<circle fill="#193642" cx="31.9" cy="19" r="1.5"/>
		</g>
		<g>
			<circle fill="#193642" cx="12.4" cy="27.4" r="1.5"/>
		</g>
		<g>
			<circle fill="#193642" cx="31.9" cy="27.4" r="1.5"/>
		</g>
		<g>
			<circle fill="#193642" cx="12.4" cy="35.8" r="1.5"/>
		</g>
		<g>
			<circle fill="#193642" cx="31.9" cy="35.8" r="1.5"/>
		</g>
		<g>
			<circle fill="#193642" cx="12.4" cy="44.2" r="1.5"/>
		</g>
		<g>
			<circle fill="#193642" cx="31.9" cy="44.2" r="1.5"/>
		</g>
	</g>
	<g>
		<path fill="#E4E4E4" d="M34.6,48.5h-1V8.3L11.2,5H18l16.2,2.4c0.2,0,0.4,0.2,0.4,0.5V48.5z"/>
	</g>
	<g>
		<rect x="13.7" y="13.1" fill="#E4E4E4" width="19.6" height="29.9"/>
	</g>
	<g>
		<polygon fill="#E4E4E4" points="44.3,48.5 1,48.5 44.3,5 		"/>
	</g>
	<g>
		<g>
			<rect x="12.4" y="12.2" fill="#FFFFFF" width="19.6" height="29.9"/>
		</g>
		<g>
			<path fill="#99A6AB" d="M22.2,12.2v21.3h0.2c0,0,0.2-9.9,0.2-10.6c0-0.7-0.2-10.6-0.2-10.6H22.2z"/>
		</g>
		<g>
			<path fill="#99A6AB" d="M19.4,12.2v21.3h0.2c0,0,0.2-9.9,0.2-10.6c0-0.7-0.2-10.6-0.2-10.6H19.4z"/>
		</g>
		<g>
			<path fill="#99A6AB" d="M24.9,12.2v21.3h0.2c0,0,0.2-9.9,0.2-10.6c0-0.7-0.2-10.6-0.2-10.6H24.9z"/>
		</g>
		<g>
			<path fill="#99A6AB" d="M27.7,12.2v21.3h0.2c0,0,0.2-9.9,0.2-10.6c0-0.7-0.2-10.6-0.2-10.6H27.7z"/>
		</g>
		<g>
			<path fill="#99A6AB" d="M30.5,12.2v21.3h0.2c0,0,0.2-9.9,0.2-10.6c0-0.7-0.2-10.6-0.2-10.6H30.5z"/>
		</g>
		<g>
			<path fill="#99A6AB" d="M16.7,12.2v21.3h0.2c0,0,0.2-9.9,0.2-10.6c0-0.7-0.2-10.6-0.2-10.6H16.7z"/>
		</g>
		<g>
			<path fill="#99A6AB" d="M13.9,12.2v21.3h0.2c0,0,0.2-9.9,0.2-10.6c0-0.7-0.2-10.6-0.2-10.6H13.9z"/>
		</g>
	</g>
	<g>
		<polygon fill="#E4E4E4" points="32,42.1 12.2,42.1 22.3,32.6 22.4,12.2 32,12.2 		"/>
	</g>
	<g>
		<polygon fill="#E4E4E4" points="42.6,5 42.6,46.9 2.7,46.9 1,48.5 44.3,48.5 44.3,5 		"/>
	</g>
</g>
<g>
	<g>
		<polygon fill="#99A6AB" points="45.9,114.4 2.5,114.4 0,111.9 43.4,71 45.9,71 		"/>
	</g>
	<g>
		<rect x="0" y="68.5" fill="#193642" width="43.4" height="43.4"/>
	</g>
	<g>
		<g>
			<rect x="1.6" y="68.5" fill="#4F656F" width="0.5" height="43.4"/>
		</g>
		<g>
			<rect x="3.3" y="68.5" fill="#4F656F" width="0.5" height="43.4"/>
		</g>
		<g>
			<rect x="5" y="68.5" fill="#4F656F" width="0.5" height="43.4"/>
		</g>
		<g>
			<rect x="6.8" y="68.5" fill="#4F656F" width="0.5" height="43.4"/>
		</g>
		<g>
			<rect x="8.5" y="68.5" fill="#4F656F" width="0.5" height="43.4"/>
		</g>
		<g>
			<rect x="10.2" y="68.5" fill="#4F656F" width="0.5" height="43.4"/>
		</g>
		<g>
			<rect x="11.9" y="68.5" fill="#4F656F" width="0.5" height="43.4"/>
		</g>
		<g>
			<rect x="13.6" y="68.5" fill="#4F656F" width="0.5" height="43.4"/>
		</g>
		<g>
			<rect x="15.3" y="68.5" fill="#4F656F" width="0.5" height="43.4"/>
		</g>
		<g>
			<rect x="17" y="68.5" fill="#4F656F" width="0.5" height="43.4"/>
		</g>
		<g>
			<rect x="18.7" y="68.5" fill="#4F656F" width="0.5" height="43.4"/>
		</g>
		<g>
			<rect x="20.4" y="68.5" fill="#4F656F" width="0.5" height="43.4"/>
		</g>
		<g>
			<rect x="22.2" y="68.5" fill="#4F656F" width="0.5" height="43.4"/>
		</g>
		<g>
			<rect x="23.9" y="68.5" fill="#4F656F" width="0.5" height="43.4"/>
		</g>
		<g>
			<rect x="25.6" y="68.5" fill="#4F656F" width="0.5" height="43.4"/>
		</g>
		<g>
			<rect x="27.3" y="68.5" fill="#4F656F" width="0.5" height="43.4"/>
		</g>
		<g>
			<rect x="29" y="68.5" fill="#4F656F" width="0.5" height="43.4"/>
		</g>
		<g>
			<rect x="30.7" y="68.5" fill="#4F656F" width="0.5" height="43.4"/>
		</g>
		<g>
			<rect x="32.4" y="68.5" fill="#4F656F" width="0.5" height="43.4"/>
		</g>
		<g>
			<rect x="34.1" y="68.5" fill="#4F656F" width="0.5" height="43.4"/>
		</g>
		<g>
			<rect x="35.8" y="68.5" fill="#4F656F" width="0.5" height="43.4"/>
		</g>
		<g>
			<rect x="37.5" y="68.5" fill="#4F656F" width="0.5" height="43.4"/>
		</g>
		<g>
			<rect x="39.3" y="68.5" fill="#4F656F" width="0.5" height="43.4"/>
		</g>
		<g>
			<rect x="41" y="68.5" fill="#4F656F" width="0.5" height="43.4"/>
		</g>
		<g>
			<rect x="42.7" y="68.5" fill="#4F656F" width="0.5" height="43.4"/>
		</g>
	</g>
	<g>
		<path fill="#FFFFFF" d="M7.3,79.7c0,6.1-7.3,6.3-7.3,6.3V68.5h7.3C7.3,68.5,7.3,76.1,7.3,79.7z"/>
	</g>
	<g>
		<circle fill="#04202D" cx="21.7" cy="82.1" r="1.5"/>
	</g>
	<g>
		<circle fill="#04202D" cx="21.7" cy="90.4" r="1.5"/>
	</g>
	<g>
		<circle fill="#04202D" cx="21.7" cy="98.8" r="1.5"/>
	</g>
	<g>
		<circle fill="#04202D" cx="21.7" cy="107.2" r="1.5"/>
	</g>
	<g>
		<g>
			<path fill="#E4E4E4" d="M20.2,82.2c-0.1,0-0.1-0.1-0.1-0.1c0-0.9,0.7-1.7,1.7-1.7c0.1,0,0.1,0.1,0.1,0.1c0,0.1-0.1,0.1-0.1,0.1
				c-0.8,0-1.4,0.6-1.4,1.4C20.3,82.1,20.2,82.2,20.2,82.2z"/>
		</g>
		<g>
			<path fill="#E4E4E4" d="M20.2,90.6c-0.1,0-0.1-0.1-0.1-0.1c0-0.9,0.7-1.7,1.7-1.7c0.1,0,0.1,0.1,0.1,0.1c0,0.1-0.1,0.1-0.1,0.1
				c-0.8,0-1.4,0.6-1.4,1.4C20.3,90.5,20.2,90.6,20.2,90.6z"/>
		</g>
		<g>
			<path fill="#E4E4E4" d="M20.2,98.9c-0.1,0-0.1-0.1-0.1-0.1c0-0.9,0.7-1.7,1.7-1.7c0.1,0,0.1,0.1,0.1,0.1c0,0.1-0.1,0.1-0.1,0.1
				c-0.8,0-1.4,0.6-1.4,1.4C20.3,98.9,20.2,98.9,20.2,98.9z"/>
		</g>
		<g>
			<path fill="#E4E4E4" d="M20.2,107.3c-0.1,0-0.1-0.1-0.1-0.1c0-0.9,0.7-1.7,1.7-1.7c0.1,0,0.1,0.1,0.1,0.1c0,0.1-0.1,0.1-0.1,0.1
				c-0.8,0-1.4,0.6-1.4,1.4C20.3,107.3,20.2,107.3,20.2,107.3z"/>
		</g>
	</g>
	<g>
		<g>
			<polygon fill="#193642" points="21.7,75.7 18.4,79.1 18.5,78.7 18.5,111.9 17.5,111.9 17.5,78.7 17.5,78.5 17.7,78.4 21,75
				"/>
		</g>
	</g>
	<g>
		<polygon fill="#99A6AB" points="43.4,68.5 43.4,111.9 0,111.9 		"/>
	</g>
	<g opacity="0.34">
		<polygon fill="#FFFFFF" points="0,85.9 0,68.5 17.2,68.5 		"/>
	</g>
	<g>
		<path fill="#FFFFFF" d="M36.1,79.7c0,6.1,7.3,6.3,7.3,6.3V68.5h-7.3C36.1,68.5,36.1,76.1,36.1,79.7z"/>
	</g>
	<g>
		<polygon fill="#FFFFFF" points="14.5,63.4 14.5,68.5 21.7,75.7 28.9,68.5 28.9,63.4 		"/>
	</g>
	<g>
		<rect x="20.7" y="65.9" fill="#193642" width="2" height="2"/>
	</g>
	<g>
		<polygon fill="#193642" points="21.7,66.9 19.3,64.5 17.1,64.5 17.1,69.3 19.3,69.3 		"/>
	</g>
	<g>
		<polygon fill="#193642" points="21.7,66.9 24.2,69.3 26.4,69.3 26.4,64.5 24.2,64.5 		"/>
	</g>
	<g>
		<polygon fill="#04202D" points="26.3,69.3 24.2,69.3 22.7,67.9 20.7,67.9 19.3,69.3 17.1,69.3 20.6,65.8 20.6,68 22.7,65.9
			22.7,67.5 26.3,64.5 		"/>
	</g>
	<g>
		<path fill="#E4E4E4" d="M41.7,70.6c0,1.5,0,39.7,0,39.7h-40L0,111.9h43.4V68.5C43.4,68.5,41.7,69.1,41.7,70.6z"/>
	</g>
	<g>
		<path fill="#E4E4E4" d="M28.9,63.4c0,0-1.7,0.6-1.7,2c0,0.3,0,3.1,0,3.1h1.7V63.4z"/>
	</g>
</g>
<g>
	<g>
		<polygon fill="#99A6AB" points="103.1,84.9 59.7,84.9 57.1,82.3 100.5,38.9 103.1,41.5 		"/>
	</g>
	<g>
		<rect x="57.1" y="38.9" fill="#193642" width="43.4" height="43.4"/>
	</g>
	<g>
		<polygon fill="#99A6AB" points="100.5,38.9 100.5,82.3 57.1,82.3 		"/>
	</g>
	<g>
		<rect x="71.6" y="33.8" fill="#193642" width="14.4" height="7.1"/>
	</g>
	<g>
		<g>
			<circle fill="#E4E4E4" cx="68.6" cy="44.5" r="1.5"/>
		</g>
		<g>
			<circle fill="#E4E4E4" cx="68.6" cy="52.8" r="1.5"/>
		</g>
		<g>
			<circle fill="#E4E4E4" cx="68.6" cy="61.2" r="1.5"/>
		</g>
		<g>
			<circle fill="#E4E4E4" cx="68.6" cy="69.6" r="1.5"/>
		</g>
		<g>
			<circle fill="#E4E4E4" cx="68.6" cy="78" r="1.5"/>
		</g>
	</g>
	<g>
		<g>
			<circle fill="#E4E4E4" cx="78.8" cy="44.5" r="1.5"/>
		</g>
		<g>
			<circle fill="#E4E4E4" cx="78.8" cy="52.8" r="1.5"/>
		</g>
		<g>
			<circle fill="#E4E4E4" cx="78.8" cy="61.2" r="1.5"/>
		</g>
		<g>
			<circle fill="#E4E4E4" cx="78.8" cy="69.6" r="1.5"/>
		</g>
		<g>
			<circle fill="#E4E4E4" cx="78.8" cy="78" r="1.5"/>
		</g>
	</g>
	<g>
		<g>
			<circle fill="#E4E4E4" cx="88.1" cy="44.5" r="1.5"/>
		</g>
		<g>
			<circle fill="#E4E4E4" cx="88.1" cy="52.8" r="1.5"/>
		</g>
		<g>
			<circle fill="#E4E4E4" cx="88.1" cy="61.2" r="1.5"/>
		</g>
		<g>
			<circle fill="#E4E4E4" cx="88.1" cy="69.6" r="1.5"/>
		</g>
		<g>
			<circle fill="#E4E4E4" cx="88.1" cy="78" r="1.5"/>
		</g>
	</g>
	<g>
		<rect x="71" y="55.7" fill="#555052" width="18.2" height="11.7"/>
	</g>
	<g>
		<rect x="70.1" y="55.1" fill="#193642" width="18.2" height="11.7"/>
	</g>
	<g>
		<rect x="70.1" y="65" fill="#E4E4E4" width="18.2" height="0.8"/>
	</g>
	<g>
		<rect x="79.1" y="55.1" fill="#99A6AB" width="9.2" height="11.7"/>
	</g>
	<g opacity="0.34">
		<polygon fill="#FFFFFF" points="70.1,64.2 70.1,55.1 79.1,55.1 		"/>
	</g>
	<g opacity="0.34">
		<polygon fill="#FFFFFF" points="57.1,56.3 57.1,38.9 74.3,38.9 		"/>
	</g>
	<g>
		<path fill="#E4E4E4" d="M80.5,38.9h-1c0-2.8,2.3-5.1,5.1-5.1H86v1h-1.4C82.4,34.8,80.5,36.7,80.5,38.9z"/>
	</g>
	<g>
		<path fill="#E4E4E4" d="M78.1,38.9h-1c0-2.3-1.9-4.1-4.1-4.1h-1.4v-1H73C75.8,33.8,78.1,36.1,78.1,38.9z"/>
	</g>
</g>
</svg>
